solid ascii
  facet normal 5.555702e-001 -8.314697e-001 2.159290e-007
    outer loop
      vertex   3.182657e+000 2.122324e+001 3.950000e+000
      vertex   2.939340e+000 2.106066e+001 0.000000e+000
      vertex   3.425975e+000 2.138582e+001 0.000000e+000
    endloop
  endfacet
  facet normal -9.807853e-001 1.950901e-001 0.000000e+000
    outer loop
      vertex   5.442910e+000 3.712987e+000 3.950000e+000
      vertex   5.500000e+000 4.000000e+000 7.900000e+000
      vertex   5.500000e+000 4.000000e+000 0.000000e+000
    endloop
  endfacet
  facet normal 0.000000e+000 1.000000e+000 -0.000000e+000
    outer loop
      vertex   1.200000e+001 2.400000e+001 3.000000e+000
      vertex   1.200000e+001 2.400000e+001 0.000000e+000
      vertex   1.039875e+001 2.400000e+001 3.000000e+000
    endloop
  endfacet
  facet normal -9.807853e-001 -1.950904e-001 0.000000e+000
    outer loop
      vertex   5.442910e+000 2.028701e+001 3.950000e+000
      vertex   5.385819e+000 2.057402e+001 0.000000e+000
      vertex   5.500000e+000 2.000000e+001 0.000000e+000
    endloop
  endfacet
  facet normal -9.807853e-001 -1.950904e-001 0.000000e+000
    outer loop
      vertex   5.442910e+000 2.028701e+001 3.950000e+000
      vertex   5.500000e+000 2.000000e+001 0.000000e+000
      vertex   5.500000e+000 2.000000e+001 7.900000e+000
    endloop
  endfacet
  facet normal 8.314697e-001 5.555700e-001 -0.000000e+000
    outer loop
      vertex   2.776760e+000 3.182657e+000 3.950000e+000
      vertex   2.614181e+000 3.425975e+000 0.000000e+000
      vertex   2.614181e+000 3.425975e+000 7.900000e+000
    endloop
  endfacet
  facet normal 0.000000e+000 1.000000e+000 0.000000e+000
    outer loop
      vertex   1.039875e+001 2.400000e+001 3.000000e+000
      vertex   1.200000e+001 2.400000e+001 0.000000e+000
      vertex   9.798112e+000 2.400000e+001 2.510233e+000
    endloop
  endfacet
  facet normal 0.000000e+000 -1.000000e+000 0.000000e+000
    outer loop
      vertex   8.192893e+000 0.000000e+000 2.242893e+000
      vertex   0.000000e+000 0.000000e+000 3.000000e+000
      vertex   0.000000e+000 0.000000e+000 0.000000e+000
    endloop
  endfacet
  facet normal 1.000000e+000 0.000000e+000 0.000000e+000
    outer loop
      vertex   1.200000e+001 1.200000e+001 1.500000e+000
      vertex   1.200000e+001 0.000000e+000 0.000000e+000
      vertex   1.200000e+001 2.400000e+001 0.000000e+000
    endloop
  endfacet
  facet normal 1.000000e+000 0.000000e+000 -0.000000e+000
    outer loop
      vertex   1.200000e+001 1.200000e+001 1.500000e+000
      vertex   1.200000e+001 2.400000e+001 0.000000e+000
      vertex   1.200000e+001 2.400000e+001 3.000000e+000
    endloop
  endfacet
  facet normal 5.555702e-001 8.314697e-001 1.611410e-008
    outer loop
      vertex   3.182657e+000 2.776760e+000 3.950000e+000
      vertex   3.425975e+000 2.614181e+000 0.000000e+000
      vertex   2.939340e+000 2.939340e+000 0.000000e+000
    endloop
  endfacet
  facet normal 1.000000e+000 0.000000e+000 0.000000e+000
    outer loop
      vertex   1.200000e+001 1.200000e+001 1.500000e+000
      vertex   1.200000e+001 0.000000e+000 3.000000e+000
      vertex   1.200000e+001 0.000000e+000 0.000000e+000
    endloop
  endfacet
  facet normal -1.000000e+000 0.000000e+000 0.000000e+000
    outer loop
      vertex   0.000000e+000 1.200000e+001 1.500000e+000
      vertex   0.000000e+000 2.400000e+001 0.000000e+000
      vertex   0.000000e+000 0.000000e+000 0.000000e+000
    endloop
  endfacet
  facet normal -1.000000e+000 0.000000e+000 0.000000e+000
    outer loop
      vertex   0.000000e+000 1.200000e+001 1.500000e+000
      vertex   0.000000e+000 0.000000e+000 0.000000e+000
      vertex   0.000000e+000 0.000000e+000 3.000000e+000
    endloop
  endfacet
  facet normal 8.314697e-001 -5.555700e-001 0.000000e+000
    outer loop
      vertex   2.776760e+000 4.817343e+000 3.950000e+000
      vertex   2.614181e+000 4.574025e+000 7.900000e+000
      vertex   2.614181e+000 4.574025e+000 0.000000e+000
    endloop
  endfacet
  facet normal -1.000000e+000 0.000000e+000 -0.000000e+000
    outer loop
      vertex   0.000000e+000 1.200000e+001 1.500000e+000
      vertex   0.000000e+000 2.400000e+001 3.000000e+000
      vertex   0.000000e+000 2.400000e+001 0.000000e+000
    endloop
  endfacet
  facet normal 0.000000e+000 0.000000e+000 -1.000000e+000
    outer loop
      vertex   3.425975e+000 1.861418e+001 0.000000e+000
      vertex   1.200000e+001 0.000000e+000 0.000000e+000
      vertex   5.060660e+000 5.060660e+000 0.000000e+000
    endloop
  endfacet
  facet normal 0.000000e+000 0.000000e+000 -1.000000e+000
    outer loop
      vertex   3.425975e+000 1.861418e+001 0.000000e+000
      vertex   5.060660e+000 5.060660e+000 0.000000e+000
      vertex   4.574025e+000 5.385819e+000 0.000000e+000
    endloop
  endfacet
  facet normal 0.000000e+000 0.000000e+000 -1.000000e+000
    outer loop
      vertex   5.060660e+000 5.060660e+000 0.000000e+000
      vertex   1.200000e+001 0.000000e+000 0.000000e+000
      vertex   5.385819e+000 4.574025e+000 0.000000e+000
    endloop
  endfacet
  facet normal 0.000000e+000 0.000000e+000 -1.000000e+000
    outer loop
      vertex   5.385819e+000 4.574025e+000 0.000000e+000
      vertex   1.200000e+001 0.000000e+000 0.000000e+000
      vertex   5.500000e+000 4.000000e+000 0.000000e+000
    endloop
  endfacet
  facet normal 0.000000e+000 0.000000e+000 -1.000000e+000
    outer loop
      vertex   5.500000e+000 4.000000e+000 0.000000e+000
      vertex   1.200000e+001 0.000000e+000 0.000000e+000
      vertex   5.385819e+000 3.425975e+000 0.000000e+000
    endloop
  endfacet
  facet normal 0.000000e+000 0.000000e+000 -1.000000e+000
    outer loop
      vertex   5.385819e+000 3.425975e+000 0.000000e+000
      vertex   1.200000e+001 0.000000e+000 0.000000e+000
      vertex   5.060660e+000 2.939340e+000 0.000000e+000
    endloop
  endfacet
  facet normal 0.000000e+000 0.000000e+000 -1.000000e+000
    outer loop
      vertex   1.200000e+001 0.000000e+000 0.000000e+000
      vertex   0.000000e+000 0.000000e+000 0.000000e+000
      vertex   4.574025e+000 2.614181e+000 0.000000e+000
    endloop
  endfacet
  facet normal 0.000000e+000 0.000000e+000 -1.000000e+000
    outer loop
      vertex   1.200000e+001 0.000000e+000 0.000000e+000
      vertex   4.574025e+000 2.614181e+000 0.000000e+000
      vertex   5.060660e+000 2.939340e+000 0.000000e+000
    endloop
  endfacet
  facet normal -0.000000e+000 0.000000e+000 -1.000000e+000
    outer loop
      vertex   2.614181e+000 4.574025e+000 0.000000e+000
      vertex   2.500000e+000 4.000000e+000 0.000000e+000
      vertex   0.000000e+000 0.000000e+000 0.000000e+000
    endloop
  endfacet
  facet normal -0.000000e+000 0.000000e+000 -1.000000e+000
    outer loop
      vertex   2.500000e+000 4.000000e+000 0.000000e+000
      vertex   2.614181e+000 3.425975e+000 0.000000e+000
      vertex   0.000000e+000 0.000000e+000 0.000000e+000
    endloop
  endfacet
  facet normal 0.000000e+000 0.000000e+000 -1.000000e+000
    outer loop
      vertex   4.574025e+000 2.614181e+000 0.000000e+000
      vertex   0.000000e+000 0.000000e+000 0.000000e+000
      vertex   4.000000e+000 2.500000e+000 0.000000e+000
    endloop
  endfacet
  facet normal -0.000000e+000 0.000000e+000 -1.000000e+000
    outer loop
      vertex   2.614181e+000 3.425975e+000 0.000000e+000
      vertex   2.939340e+000 2.939340e+000 0.000000e+000
      vertex   0.000000e+000 0.000000e+000 0.000000e+000
    endloop
  endfacet
  facet normal 9.807853e-001 1.950901e-001 -0.000000e+000
    outer loop
      vertex   2.557090e+000 3.712987e+000 3.950000e+000
      vertex   2.500000e+000 4.000000e+000 0.000000e+000
      vertex   2.500000e+000 4.000000e+000 7.900000e+000
    endloop
  endfacet
  facet normal 0.000000e+000 1.000000e+000 0.000000e+000
    outer loop
      vertex   8.192893e+000 2.400000e+001 2.242893e+000
      vertex   0.000000e+000 2.400000e+001 0.000000e+000
      vertex   0.000000e+000 2.400000e+001 3.000000e+000
    endloop
  endfacet
  facet normal -1.950917e-001 9.807850e-001 0.000000e+000
    outer loop
      vertex   4.287013e+000 1.855709e+001 3.950000e+000
      vertex   4.574025e+000 1.861418e+001 0.000000e+000
      vertex   4.000000e+000 1.850000e+001 0.000000e+000
    endloop
  endfacet
  facet normal 0.000000e+000 1.000000e+000 0.000000e+000
    outer loop
      vertex   8.517317e+000 2.400000e+001 2.026120e+000
      vertex   0.000000e+000 2.400000e+001 0.000000e+000
      vertex   8.192893e+000 2.400000e+001 2.242893e+000
    endloop
  endfacet
  facet normal 0.000000e+000 0.000000e+000 -1.000000e+000
    outer loop
      vertex   4.000000e+000 2.500000e+000 0.000000e+000
      vertex   0.000000e+000 0.000000e+000 0.000000e+000
      vertex   3.425975e+000 2.614181e+000 0.000000e+000
    endloop
  endfacet
  facet normal 0.000000e+000 1.000000e+000 0.000000e+000
    outer loop
      vertex   8.900000e+000 2.400000e+001 1.950000e+000
      vertex   0.000000e+000 2.400000e+001 0.000000e+000
      vertex   8.517317e+000 2.400000e+001 2.026120e+000
    endloop
  endfacet
  facet normal -0.000000e+000 0.000000e+000 -1.000000e+000
    outer loop
      vertex   2.939340e+000 2.939340e+000 0.000000e+000
      vertex   3.425975e+000 2.614181e+000 0.000000e+000
      vertex   0.000000e+000 0.000000e+000 0.000000e+000
    endloop
  endfacet
  facet normal 0.000000e+000 1.000000e+000 0.000000e+000
    outer loop
      vertex   9.282683e+000 2.400000e+001 2.026120e+000
      vertex   0.000000e+000 2.400000e+001 0.000000e+000
      vertex   8.900000e+000 2.400000e+001 1.950000e+000
    endloop
  endfacet
  facet normal -0.000000e+000 1.000000e+000 0.000000e+000
    outer loop
      vertex   1.200000e+001 2.400000e+001 0.000000e+000
      vertex   9.282683e+000 2.400000e+001 2.026120e+000
      vertex   9.607107e+000 2.400000e+001 2.242893e+000
    endloop
  endfacet
  facet normal 0.000000e+000 1.000000e+000 0.000000e+000
    outer loop
      vertex   1.200000e+001 2.400000e+001 0.000000e+000
      vertex   0.000000e+000 2.400000e+001 0.000000e+000
      vertex   9.282683e+000 2.400000e+001 2.026120e+000
    endloop
  endfacet
  facet normal 0.000000e+000 1.000000e+000 0.000000e+000
    outer loop
      vertex   9.798112e+000 2.400000e+001 2.510233e+000
      vertex   1.200000e+001 2.400000e+001 0.000000e+000
      vertex   9.607107e+000 2.400000e+001 2.242893e+000
    endloop
  endfacet
  facet normal 0.000000e+000 -1.000000e+000 0.000000e+000
    outer loop
      vertex   1.200000e+001 0.000000e+000 3.000000e+000
      vertex   1.039875e+001 -0.000000e+000 3.000000e+000
      vertex   1.200000e+001 0.000000e+000 0.000000e+000
    endloop
  endfacet
  facet normal -9.807853e-001 1.950904e-001 0.000000e+000
    outer loop
      vertex   5.442910e+000 1.971299e+001 3.950000e+000
      vertex   5.500000e+000 2.000000e+001 7.900000e+000
      vertex   5.500000e+000 2.000000e+001 0.000000e+000
    endloop
  endfacet
  facet normal -0.000000e+000 0.000000e+000 -1.000000e+000
    outer loop
      vertex   3.425975e+000 1.861418e+001 0.000000e+000
      vertex   4.000000e+000 5.500000e+000 0.000000e+000
      vertex   3.425975e+000 5.385819e+000 0.000000e+000
    endloop
  endfacet
  facet normal -9.807853e-001 1.950904e-001 0.000000e+000
    outer loop
      vertex   5.442910e+000 1.971299e+001 3.950000e+000
      vertex   5.385819e+000 1.942598e+001 0.000000e+000
      vertex   5.385819e+000 1.942598e+001 7.900000e+000
    endloop
  endfacet
  facet normal 0.000000e+000 -1.000000e+000 -0.000000e+000
    outer loop
      vertex   1.039875e+001 -0.000000e+000 3.000000e+000
      vertex   9.798112e+000 0.000000e+000 2.510233e+000
      vertex   1.200000e+001 0.000000e+000 0.000000e+000
    endloop
  endfacet
  facet normal -9.807853e-001 1.950904e-001 0.000000e+000
    outer loop
      vertex   5.442910e+000 1.971299e+001 3.950000e+000
      vertex   5.500000e+000 2.000000e+001 0.000000e+000
      vertex   5.385819e+000 1.942598e+001 0.000000e+000
    endloop
  endfacet
  facet normal -8.314688e-001 5.555716e-001 0.000000e+000
    outer loop
      vertex   5.223240e+000 1.918266e+001 3.950000e+000
      vertex   5.385819e+000 1.942598e+001 7.900000e+000
      vertex   5.385819e+000 1.942598e+001 0.000000e+000
    endloop
  endfacet
  facet normal -0.000000e+000 0.000000e+000 -1.000000e+000
    outer loop
      vertex   3.425975e+000 1.861418e+001 0.000000e+000
      vertex   3.425975e+000 5.385819e+000 0.000000e+000
      vertex   2.939340e+000 5.060660e+000 0.000000e+000
    endloop
  endfacet
  facet normal -8.314707e-001 5.555685e-001 0.000000e+000
    outer loop
      vertex   5.223240e+000 1.918266e+001 3.950000e+000
      vertex   5.060660e+000 1.893934e+001 0.000000e+000
      vertex   5.060660e+000 1.893934e+001 7.900000e+000
    endloop
  endfacet
  facet normal 5.555700e-001 8.314697e-001 0.000000e+000
    outer loop
      vertex   3.182657e+000 2.776760e+000 3.950000e+000
      vertex   3.425975e+000 2.614181e+000 7.900000e+000
      vertex   3.425975e+000 2.614181e+000 0.000000e+000
    endloop
  endfacet
  facet normal 1.950905e-001 9.807853e-001 2.900538e-008
    outer loop
      vertex   3.712987e+000 2.557090e+000 3.950000e+000
      vertex   4.000000e+000 2.500000e+000 0.000000e+000
      vertex   3.425975e+000 2.614181e+000 0.000000e+000
    endloop
  endfacet
  facet normal 1.950917e-001 9.807850e-001 -0.000000e+000
    outer loop
      vertex   3.712987e+000 1.855709e+001 3.950000e+000
      vertex   3.425975e+000 1.861418e+001 0.000000e+000
      vertex   3.425975e+000 1.861418e+001 7.900000e+000
    endloop
  endfacet
  facet normal -8.314697e-001 5.555700e-001 -1.321356e-007
    outer loop
      vertex   5.223240e+000 1.918266e+001 3.950000e+000
      vertex   5.385819e+000 1.942598e+001 0.000000e+000
      vertex   5.060660e+000 1.893934e+001 0.000000e+000
    endloop
  endfacet
  facet normal -0.000000e+000 0.000000e+000 -1.000000e+000
    outer loop
      vertex   2.939340e+000 1.893934e+001 0.000000e+000
      vertex   3.425975e+000 1.861418e+001 0.000000e+000
      vertex   0.000000e+000 0.000000e+000 0.000000e+000
    endloop
  endfacet
  facet normal 5.555704e-001 8.314695e-001 -0.000000e+000
    outer loop
      vertex   3.182657e+000 2.776760e+000 3.950000e+000
      vertex   2.939340e+000 2.939340e+000 0.000000e+000
      vertex   2.939340e+000 2.939340e+000 7.900000e+000
    endloop
  endfacet
  facet normal 8.314688e-001 5.555716e-001 -0.000000e+000
    outer loop
      vertex   2.776760e+000 1.918266e+001 3.950000e+000
      vertex   2.614181e+000 1.942598e+001 0.000000e+000
      vertex   2.614181e+000 1.942598e+001 7.900000e+000
    endloop
  endfacet
  facet normal 5.555677e-001 8.314713e-001 0.000000e+000
    outer loop
      vertex   3.182657e+000 1.877676e+001 3.950000e+000
      vertex   3.425975e+000 1.861418e+001 7.900000e+000
      vertex   3.425975e+000 1.861418e+001 0.000000e+000
    endloop
  endfacet
  facet normal 9.807852e-001 1.950909e-001 0.000000e+000
    outer loop
      vertex   2.557090e+000 3.712987e+000 3.950000e+000
      vertex   2.614181e+000 3.425975e+000 7.900000e+000
      vertex   2.614181e+000 3.425975e+000 0.000000e+000
    endloop
  endfacet
  facet normal 8.314697e-001 5.555700e-001 -1.353584e-007
    outer loop
      vertex   2.776760e+000 1.918266e+001 3.950000e+000
      vertex   2.939340e+000 1.893934e+001 0.000000e+000
      vertex   2.614181e+000 1.942598e+001 0.000000e+000
    endloop
  endfacet
  facet normal 9.807851e-001 1.950912e-001 0.000000e+000
    outer loop
      vertex   2.557090e+000 1.971299e+001 3.950000e+000
      vertex   2.614181e+000 1.942598e+001 7.900000e+000
      vertex   2.614181e+000 1.942598e+001 0.000000e+000
    endloop
  endfacet
  facet normal 0.000000e+000 0.000000e+000 -1.000000e+000
    outer loop
      vertex   4.574025e+000 1.861418e+001 0.000000e+000
      vertex   1.200000e+001 0.000000e+000 0.000000e+000
      vertex   4.000000e+000 1.850000e+001 0.000000e+000
    endloop
  endfacet
  facet normal 9.807853e-001 1.950904e-001 -0.000000e+000
    outer loop
      vertex   2.557090e+000 1.971299e+001 3.950000e+000
      vertex   2.500000e+000 2.000000e+001 0.000000e+000
      vertex   2.500000e+000 2.000000e+001 7.900000e+000
    endloop
  endfacet
  facet normal 9.807851e-001 1.950908e-001 3.061684e-008
    outer loop
      vertex   2.557090e+000 1.971299e+001 3.950000e+000
      vertex   2.614181e+000 1.942598e+001 0.000000e+000
      vertex   2.500000e+000 2.000000e+001 0.000000e+000
    endloop
  endfacet
  facet normal 9.807853e-001 -1.950904e-001 0.000000e+000
    outer loop
      vertex   2.557090e+000 2.028701e+001 3.950000e+000
      vertex   2.500000e+000 2.000000e+001 7.900000e+000
      vertex   2.500000e+000 2.000000e+001 0.000000e+000
    endloop
  endfacet
  facet normal -0.000000e+000 0.000000e+000 -1.000000e+000
    outer loop
      vertex   2.500000e+000 2.000000e+001 0.000000e+000
      vertex   2.614181e+000 1.942598e+001 0.000000e+000
      vertex   0.000000e+000 0.000000e+000 0.000000e+000
    endloop
  endfacet
  facet normal 9.807851e-001 -1.950912e-001 0.000000e+000
    outer loop
      vertex   2.557090e+000 2.028701e+001 3.950000e+000
      vertex   2.614181e+000 2.057402e+001 0.000000e+000
      vertex   2.614181e+000 2.057402e+001 7.900000e+000
    endloop
  endfacet
  facet normal 0.000000e+000 0.000000e+000 -1.000000e+000
    outer loop
      vertex   4.000000e+000 1.850000e+001 0.000000e+000
      vertex   1.200000e+001 0.000000e+000 0.000000e+000
      vertex   3.425975e+000 1.861418e+001 0.000000e+000
    endloop
  endfacet
  facet normal 9.807851e-001 -1.950908e-001 2.900542e-008
    outer loop
      vertex   2.557090e+000 2.028701e+001 3.950000e+000
      vertex   2.500000e+000 2.000000e+001 0.000000e+000
      vertex   2.614181e+000 2.057402e+001 0.000000e+000
    endloop
  endfacet
  facet normal 8.314688e-001 -5.555716e-001 0.000000e+000
    outer loop
      vertex   2.776760e+000 2.081734e+001 3.950000e+000
      vertex   2.614181e+000 2.057402e+001 7.900000e+000
      vertex   2.614181e+000 2.057402e+001 0.000000e+000
    endloop
  endfacet
  facet normal 5.555726e-001 8.314679e-001 -0.000000e+000
    outer loop
      vertex   3.182657e+000 1.877676e+001 3.950000e+000
      vertex   2.939340e+000 1.893934e+001 0.000000e+000
      vertex   2.939340e+000 1.893934e+001 7.900000e+000
    endloop
  endfacet
  facet normal -5.555723e-001 8.314683e-001 0.000000e+000
    outer loop
      vertex   4.817343e+000 1.877676e+001 3.950000e+000
      vertex   5.060660e+000 1.893934e+001 7.900000e+000
      vertex   5.060660e+000 1.893934e+001 0.000000e+000
    endloop
  endfacet
  facet normal 5.555702e-001 8.314697e-001 2.159290e-007
    outer loop
      vertex   3.182657e+000 1.877676e+001 3.950000e+000
      vertex   3.425975e+000 1.861418e+001 0.000000e+000
      vertex   2.939340e+000 1.893934e+001 0.000000e+000
    endloop
  endfacet
  facet normal 8.314707e-001 5.555685e-001 0.000000e+000
    outer loop
      vertex   2.776760e+000 1.918266e+001 3.950000e+000
      vertex   2.939340e+000 1.893934e+001 7.900000e+000
      vertex   2.939340e+000 1.893934e+001 0.000000e+000
    endloop
  endfacet
  facet normal -9.807853e-001 -1.950901e-001 0.000000e+000
    outer loop
      vertex   5.442910e+000 4.287013e+000 3.950000e+000
      vertex   5.385819e+000 4.574025e+000 0.000000e+000
      vertex   5.500000e+000 4.000000e+000 0.000000e+000
    endloop
  endfacet
  facet normal -9.807853e-001 -1.950901e-001 0.000000e+000
    outer loop
      vertex   5.442910e+000 4.287013e+000 3.950000e+000
      vertex   5.500000e+000 4.000000e+000 0.000000e+000
      vertex   5.500000e+000 4.000000e+000 7.900000e+000
    endloop
  endfacet
  facet normal 0.000000e+000 -1.000000e+000 0.000000e+000
    outer loop
      vertex   9.798112e+000 0.000000e+000 2.510233e+000
      vertex   9.607107e+000 0.000000e+000 2.242893e+000
      vertex   1.200000e+001 0.000000e+000 0.000000e+000
    endloop
  endfacet
  facet normal -9.807853e-001 -1.950901e-001 -0.000000e+000
    outer loop
      vertex   5.442910e+000 4.287013e+000 3.950000e+000
      vertex   5.385819e+000 4.574025e+000 7.900000e+000
      vertex   5.385819e+000 4.574025e+000 0.000000e+000
    endloop
  endfacet
  facet normal -8.314697e-001 -5.555700e-001 0.000000e+000
    outer loop
      vertex   5.223240e+000 4.817343e+000 3.950000e+000
      vertex   5.060660e+000 5.060660e+000 0.000000e+000
      vertex   5.385819e+000 4.574025e+000 0.000000e+000
    endloop
  endfacet
  facet normal -8.314697e-001 -5.555700e-001 0.000000e+000
    outer loop
      vertex   5.223240e+000 4.817343e+000 3.950000e+000
      vertex   5.385819e+000 4.574025e+000 0.000000e+000
      vertex   5.385819e+000 4.574025e+000 7.900000e+000
    endloop
  endfacet
  facet normal 0.000000e+000 -1.000000e+000 -0.000000e+000
    outer loop
      vertex   1.200000e+001 0.000000e+000 0.000000e+000
      vertex   9.282683e+000 0.000000e+000 2.026120e+000
      vertex   0.000000e+000 0.000000e+000 0.000000e+000
    endloop
  endfacet
  facet normal -8.314697e-001 -5.555700e-001 -0.000000e+000
    outer loop
      vertex   5.223240e+000 4.817343e+000 3.950000e+000
      vertex   5.060660e+000 5.060660e+000 7.900000e+000
      vertex   5.060660e+000 5.060660e+000 0.000000e+000
    endloop
  endfacet
  facet normal -5.555700e-001 -8.314697e-001 0.000000e+000
    outer loop
      vertex   4.817343e+000 5.223240e+000 3.950000e+000
      vertex   4.574025e+000 5.385819e+000 0.000000e+000
      vertex   5.060660e+000 5.060660e+000 0.000000e+000
    endloop
  endfacet
  facet normal -5.555700e-001 -8.314697e-001 0.000000e+000
    outer loop
      vertex   4.817343e+000 5.223240e+000 3.950000e+000
      vertex   5.060660e+000 5.060660e+000 0.000000e+000
      vertex   5.060660e+000 5.060660e+000 7.900000e+000
    endloop
  endfacet
  facet normal 0.000000e+000 -1.000000e+000 -0.000000e+000
    outer loop
      vertex   1.200000e+001 0.000000e+000 0.000000e+000
      vertex   9.607107e+000 0.000000e+000 2.242893e+000
      vertex   9.282683e+000 0.000000e+000 2.026120e+000
    endloop
  endfacet
  facet normal -5.555700e-001 -8.314697e-001 -0.000000e+000
    outer loop
      vertex   4.817343e+000 5.223240e+000 3.950000e+000
      vertex   4.574025e+000 5.385819e+000 7.900000e+000
      vertex   4.574025e+000 5.385819e+000 0.000000e+000
    endloop
  endfacet
  facet normal -1.950901e-001 -9.807853e-001 0.000000e+000
    outer loop
      vertex   4.287013e+000 5.442910e+000 3.950000e+000
      vertex   4.000000e+000 5.500000e+000 0.000000e+000
      vertex   4.574025e+000 5.385819e+000 0.000000e+000
    endloop
  endfacet
  facet normal -1.950901e-001 -9.807853e-001 0.000000e+000
    outer loop
      vertex   4.287013e+000 5.442910e+000 3.950000e+000
      vertex   4.574025e+000 5.385819e+000 0.000000e+000
      vertex   4.574025e+000 5.385819e+000 7.900000e+000
    endloop
  endfacet
  facet normal 0.000000e+000 -1.000000e+000 -0.000000e+000
    outer loop
      vertex   9.282683e+000 0.000000e+000 2.026120e+000
      vertex   8.900000e+000 0.000000e+000 1.950000e+000
      vertex   0.000000e+000 0.000000e+000 0.000000e+000
    endloop
  endfacet
  facet normal -1.950901e-001 -9.807853e-001 -0.000000e+000
    outer loop
      vertex   4.287013e+000 5.442910e+000 3.950000e+000
      vertex   4.000000e+000 5.500000e+000 7.900000e+000
      vertex   4.000000e+000 5.500000e+000 0.000000e+000
    endloop
  endfacet
  facet normal 1.950901e-001 -9.807853e-001 0.000000e+000
    outer loop
      vertex   3.712987e+000 5.442910e+000 3.950000e+000
      vertex   3.425975e+000 5.385819e+000 0.000000e+000
      vertex   4.000000e+000 5.500000e+000 0.000000e+000
    endloop
  endfacet
  facet normal 1.950901e-001 -9.807853e-001 0.000000e+000
    outer loop
      vertex   3.712987e+000 5.442910e+000 3.950000e+000
      vertex   4.000000e+000 5.500000e+000 0.000000e+000
      vertex   4.000000e+000 5.500000e+000 7.900000e+000
    endloop
  endfacet
  facet normal -0.000000e+000 0.000000e+000 -1.000000e+000
    outer loop
      vertex   3.425975e+000 1.861418e+001 0.000000e+000
      vertex   2.939340e+000 5.060660e+000 0.000000e+000
      vertex   2.614181e+000 4.574025e+000 0.000000e+000
    endloop
  endfacet
  facet normal 1.950901e-001 -9.807853e-001 0.000000e+000
    outer loop
      vertex   3.712987e+000 5.442910e+000 3.950000e+000
      vertex   3.425975e+000 5.385819e+000 7.900000e+000
      vertex   3.425975e+000 5.385819e+000 0.000000e+000
    endloop
  endfacet
  facet normal 5.555702e-001 -8.314697e-001 1.611410e-008
    outer loop
      vertex   3.182657e+000 5.223240e+000 3.950000e+000
      vertex   2.939340e+000 5.060660e+000 0.000000e+000
      vertex   3.425975e+000 5.385819e+000 0.000000e+000
    endloop
  endfacet
  facet normal 5.555700e-001 -8.314697e-001 0.000000e+000
    outer loop
      vertex   3.182657e+000 5.223240e+000 3.950000e+000
      vertex   3.425975e+000 5.385819e+000 0.000000e+000
      vertex   3.425975e+000 5.385819e+000 7.900000e+000
    endloop
  endfacet
  facet normal 0.000000e+000 -1.000000e+000 -0.000000e+000
    outer loop
      vertex   8.900000e+000 0.000000e+000 1.950000e+000
      vertex   8.517317e+000 0.000000e+000 2.026120e+000
      vertex   0.000000e+000 0.000000e+000 0.000000e+000
    endloop
  endfacet
  facet normal 5.555704e-001 -8.314695e-001 0.000000e+000
    outer loop
      vertex   3.182657e+000 5.223240e+000 3.950000e+000
      vertex   2.939340e+000 5.060660e+000 7.900000e+000
      vertex   2.939340e+000 5.060660e+000 0.000000e+000
    endloop
  endfacet
  facet normal 8.314697e-001 -5.555700e-001 0.000000e+000
    outer loop
      vertex   2.776760e+000 4.817343e+000 3.950000e+000
      vertex   2.614181e+000 4.574025e+000 0.000000e+000
      vertex   2.939340e+000 5.060660e+000 0.000000e+000
    endloop
  endfacet
  facet normal 8.314697e-001 -5.555700e-001 0.000000e+000
    outer loop
      vertex   2.776760e+000 4.817343e+000 3.950000e+000
      vertex   2.939340e+000 5.060660e+000 0.000000e+000
      vertex   2.939340e+000 5.060660e+000 7.900000e+000
    endloop
  endfacet
  facet normal -5.555677e-001 8.314713e-001 0.000000e+000
    outer loop
      vertex   4.817343e+000 1.877676e+001 3.950000e+000
      vertex   4.574025e+000 1.861418e+001 0.000000e+000
      vertex   4.574025e+000 1.861418e+001 7.900000e+000
    endloop
  endfacet
  facet normal -1.950917e-001 9.807850e-001 0.000000e+000
    outer loop
      vertex   4.287013e+000 1.855709e+001 3.950000e+000
      vertex   4.000000e+000 1.850000e+001 0.000000e+000
      vertex   4.000000e+000 1.850000e+001 7.900000e+000
    endloop
  endfacet
  facet normal 9.807853e-001 -1.950905e-001 2.900538e-008
    outer loop
      vertex   2.557090e+000 4.287013e+000 3.950000e+000
      vertex   2.500000e+000 4.000000e+000 0.000000e+000
      vertex   2.614181e+000 4.574025e+000 0.000000e+000
    endloop
  endfacet
  facet normal 9.807852e-001 -1.950909e-001 0.000000e+000
    outer loop
      vertex   2.557090e+000 4.287013e+000 3.950000e+000
      vertex   2.614181e+000 4.574025e+000 0.000000e+000
      vertex   2.614181e+000 4.574025e+000 7.900000e+000
    endloop
  endfacet
  facet normal 0.000000e+000 -1.000000e+000 -0.000000e+000
    outer loop
      vertex   8.517317e+000 0.000000e+000 2.026120e+000
      vertex   8.192893e+000 0.000000e+000 2.242893e+000
      vertex   0.000000e+000 0.000000e+000 0.000000e+000
    endloop
  endfacet
  facet normal 9.807853e-001 -1.950901e-001 0.000000e+000
    outer loop
      vertex   2.557090e+000 4.287013e+000 3.950000e+000
      vertex   2.500000e+000 4.000000e+000 7.900000e+000
      vertex   2.500000e+000 4.000000e+000 0.000000e+000
    endloop
  endfacet
  facet normal 9.807853e-001 1.950905e-001 2.900538e-008
    outer loop
      vertex   2.557090e+000 3.712987e+000 3.950000e+000
      vertex   2.614181e+000 3.425975e+000 0.000000e+000
      vertex   2.500000e+000 4.000000e+000 0.000000e+000
    endloop
  endfacet
  facet normal 1.950917e-001 9.807850e-001 0.000000e+000
    outer loop
      vertex   3.712987e+000 1.855709e+001 3.950000e+000
      vertex   4.000000e+000 1.850000e+001 7.900000e+000
      vertex   4.000000e+000 1.850000e+001 0.000000e+000
    endloop
  endfacet
  facet normal -0.000000e+000 0.000000e+000 -1.000000e+000
    outer loop
      vertex   2.614181e+000 1.942598e+001 0.000000e+000
      vertex   2.939340e+000 1.893934e+001 0.000000e+000
      vertex   0.000000e+000 0.000000e+000 0.000000e+000
    endloop
  endfacet
  facet normal 5.555726e-001 -8.314679e-001 0.000000e+000
    outer loop
      vertex   3.182657e+000 2.122324e+001 3.950000e+000
      vertex   2.939340e+000 2.106066e+001 7.900000e+000
      vertex   2.939340e+000 2.106066e+001 0.000000e+000
    endloop
  endfacet
  facet normal 8.314697e-001 5.555702e-001 1.611410e-008
    outer loop
      vertex   2.776760e+000 3.182657e+000 3.950000e+000
      vertex   2.939340e+000 2.939340e+000 0.000000e+000
      vertex   2.614181e+000 3.425975e+000 0.000000e+000
    endloop
  endfacet
  facet normal 0.000000e+000 0.000000e+000 -1.000000e+000
    outer loop
      vertex   3.425975e+000 1.861418e+001 0.000000e+000
      vertex   4.574025e+000 5.385819e+000 0.000000e+000
      vertex   4.000000e+000 5.500000e+000 0.000000e+000
    endloop
  endfacet
  facet normal -5.555700e-001 8.314697e-001 1.998148e-007
    outer loop
      vertex   4.817343e+000 1.877676e+001 3.950000e+000
      vertex   5.060660e+000 1.893934e+001 0.000000e+000
      vertex   4.574025e+000 1.861418e+001 0.000000e+000
    endloop
  endfacet
  facet normal 8.314695e-001 5.555704e-001 0.000000e+000
    outer loop
      vertex   2.776760e+000 3.182657e+000 3.950000e+000
      vertex   2.939340e+000 2.939340e+000 7.900000e+000
      vertex   2.939340e+000 2.939340e+000 0.000000e+000
    endloop
  endfacet
  facet normal -1.950917e-001 9.807850e-001 0.000000e+000
    outer loop
      vertex   4.287013e+000 1.855709e+001 3.950000e+000
      vertex   4.574025e+000 1.861418e+001 7.900000e+000
      vertex   4.574025e+000 1.861418e+001 0.000000e+000
    endloop
  endfacet
  facet normal 0.000000e+000 0.000000e+000 -1.000000e+000
    outer loop
      vertex   5.060660e+000 1.893934e+001 0.000000e+000
      vertex   1.200000e+001 0.000000e+000 0.000000e+000
      vertex   4.574025e+000 1.861418e+001 0.000000e+000
    endloop
  endfacet
  facet normal 8.314707e-001 -5.555685e-001 0.000000e+000
    outer loop
      vertex   2.776760e+000 2.081734e+001 3.950000e+000
      vertex   2.939340e+000 2.106066e+001 0.000000e+000
      vertex   2.939340e+000 2.106066e+001 7.900000e+000
    endloop
  endfacet
  facet normal 1.950917e-001 9.807850e-001 0.000000e+000
    outer loop
      vertex   3.712987e+000 1.855709e+001 3.950000e+000
      vertex   4.000000e+000 1.850000e+001 0.000000e+000
      vertex   3.425975e+000 1.861418e+001 0.000000e+000
    endloop
  endfacet
  facet normal 8.314697e-001 -5.555700e-001 -1.321356e-007
    outer loop
      vertex   2.776760e+000 2.081734e+001 3.950000e+000
      vertex   2.614181e+000 2.057402e+001 0.000000e+000
      vertex   2.939340e+000 2.106066e+001 0.000000e+000
    endloop
  endfacet
  facet normal 1.950909e-001 9.807852e-001 -0.000000e+000
    outer loop
      vertex   3.712987e+000 2.557090e+000 3.950000e+000
      vertex   3.425975e+000 2.614181e+000 0.000000e+000
      vertex   3.425975e+000 2.614181e+000 7.900000e+000
    endloop
  endfacet
  facet normal 0.000000e+000 0.000000e+000 -1.000000e+000
    outer loop
      vertex   1.200000e+001 2.400000e+001 0.000000e+000
      vertex   1.200000e+001 0.000000e+000 0.000000e+000
      vertex   5.385819e+000 2.057402e+001 0.000000e+000
    endloop
  endfacet
  facet normal 1.950901e-001 9.807853e-001 0.000000e+000
    outer loop
      vertex   3.712987e+000 2.557090e+000 3.950000e+000
      vertex   4.000000e+000 2.500000e+000 7.900000e+000
      vertex   4.000000e+000 2.500000e+000 0.000000e+000
    endloop
  endfacet
  facet normal -1.950905e-001 9.807853e-001 2.900538e-008
    outer loop
      vertex   4.287013e+000 2.557090e+000 3.950000e+000
      vertex   4.574025e+000 2.614181e+000 0.000000e+000
      vertex   4.000000e+000 2.500000e+000 0.000000e+000
    endloop
  endfacet
  facet normal -1.950901e-001 9.807853e-001 0.000000e+000
    outer loop
      vertex   4.287013e+000 2.557090e+000 3.950000e+000
      vertex   4.000000e+000 2.500000e+000 0.000000e+000
      vertex   4.000000e+000 2.500000e+000 7.900000e+000
    endloop
  endfacet
  facet normal 0.000000e+000 0.000000e+000 -1.000000e+000
    outer loop
      vertex   1.200000e+001 2.400000e+001 0.000000e+000
      vertex   5.385819e+000 2.057402e+001 0.000000e+000
      vertex   5.060660e+000 2.106066e+001 0.000000e+000
    endloop
  endfacet
  facet normal -1.950909e-001 9.807852e-001 0.000000e+000
    outer loop
      vertex   4.287013e+000 2.557090e+000 3.950000e+000
      vertex   4.574025e+000 2.614181e+000 7.900000e+000
      vertex   4.574025e+000 2.614181e+000 0.000000e+000
    endloop
  endfacet
  facet normal -5.555700e-001 8.314697e-001 0.000000e+000
    outer loop
      vertex   4.817343e+000 2.776760e+000 3.950000e+000
      vertex   5.060660e+000 2.939340e+000 0.000000e+000
      vertex   4.574025e+000 2.614181e+000 0.000000e+000
    endloop
  endfacet
  facet normal -5.555700e-001 8.314697e-001 0.000000e+000
    outer loop
      vertex   4.817343e+000 2.776760e+000 3.950000e+000
      vertex   4.574025e+000 2.614181e+000 0.000000e+000
      vertex   4.574025e+000 2.614181e+000 7.900000e+000
    endloop
  endfacet
  facet normal 0.000000e+000 0.000000e+000 -1.000000e+000
    outer loop
      vertex   1.200000e+001 2.400000e+001 0.000000e+000
      vertex   5.060660e+000 2.106066e+001 0.000000e+000
      vertex   4.574025e+000 2.138582e+001 0.000000e+000
    endloop
  endfacet
  facet normal -5.555700e-001 8.314697e-001 0.000000e+000
    outer loop
      vertex   4.817343e+000 2.776760e+000 3.950000e+000
      vertex   5.060660e+000 2.939340e+000 7.900000e+000
      vertex   5.060660e+000 2.939340e+000 0.000000e+000
    endloop
  endfacet
  facet normal -8.314697e-001 5.555702e-001 1.611410e-008
    outer loop
      vertex   5.223240e+000 3.182657e+000 3.950000e+000
      vertex   5.385819e+000 3.425975e+000 0.000000e+000
      vertex   5.060660e+000 2.939340e+000 0.000000e+000
    endloop
  endfacet
  facet normal -8.314695e-001 5.555704e-001 0.000000e+000
    outer loop
      vertex   5.223240e+000 3.182657e+000 3.950000e+000
      vertex   5.060660e+000 2.939340e+000 0.000000e+000
      vertex   5.060660e+000 2.939340e+000 7.900000e+000
    endloop
  endfacet
  facet normal 0.000000e+000 0.000000e+000 -1.000000e+000
    outer loop
      vertex   1.200000e+001 2.400000e+001 0.000000e+000
      vertex   4.574025e+000 2.138582e+001 0.000000e+000
      vertex   0.000000e+000 2.400000e+001 0.000000e+000
    endloop
  endfacet
  facet normal -8.314697e-001 5.555700e-001 0.000000e+000
    outer loop
      vertex   5.223240e+000 3.182657e+000 3.950000e+000
      vertex   5.385819e+000 3.425975e+000 7.900000e+000
      vertex   5.385819e+000 3.425975e+000 0.000000e+000
    endloop
  endfacet
  facet normal -9.807853e-001 1.950901e-001 0.000000e+000
    outer loop
      vertex   5.442910e+000 3.712987e+000 3.950000e+000
      vertex   5.500000e+000 4.000000e+000 0.000000e+000
      vertex   5.385819e+000 3.425975e+000 0.000000e+000
    endloop
  endfacet
  facet normal -9.807853e-001 1.950901e-001 0.000000e+000
    outer loop
      vertex   5.442910e+000 3.712987e+000 3.950000e+000
      vertex   5.385819e+000 3.425975e+000 0.000000e+000
      vertex   5.385819e+000 3.425975e+000 7.900000e+000
    endloop
  endfacet
  facet normal -0.000000e+000 0.000000e+000 -1.000000e+000
    outer loop
      vertex   0.000000e+000 2.400000e+001 0.000000e+000
      vertex   2.500000e+000 2.000000e+001 0.000000e+000
      vertex   0.000000e+000 0.000000e+000 0.000000e+000
    endloop
  endfacet
  facet normal -5.555677e-001 -8.314713e-001 -0.000000e+000
    outer loop
      vertex   4.817343e+000 2.122324e+001 3.950000e+000
      vertex   4.574025e+000 2.138582e+001 7.900000e+000
      vertex   4.574025e+000 2.138582e+001 0.000000e+000
    endloop
  endfacet
  facet normal -0.000000e+000 0.000000e+000 -1.000000e+000
    outer loop
      vertex   0.000000e+000 2.400000e+001 0.000000e+000
      vertex   2.614181e+000 2.057402e+001 0.000000e+000
      vertex   2.500000e+000 2.000000e+001 0.000000e+000
    endloop
  endfacet
  facet normal -0.000000e+000 0.000000e+000 -1.000000e+000
    outer loop
      vertex   3.425975e+000 1.861418e+001 0.000000e+000
      vertex   2.614181e+000 4.574025e+000 0.000000e+000
      vertex   0.000000e+000 0.000000e+000 0.000000e+000
    endloop
  endfacet
  facet normal -0.000000e+000 0.000000e+000 -1.000000e+000
    outer loop
      vertex   0.000000e+000 2.400000e+001 0.000000e+000
      vertex   2.939340e+000 2.106066e+001 0.000000e+000
      vertex   2.614181e+000 2.057402e+001 0.000000e+000
    endloop
  endfacet
  facet normal -9.807853e-001 -1.950904e-001 -0.000000e+000
    outer loop
      vertex   5.442910e+000 2.028701e+001 3.950000e+000
      vertex   5.385819e+000 2.057402e+001 7.900000e+000
      vertex   5.385819e+000 2.057402e+001 0.000000e+000
    endloop
  endfacet
  facet normal -8.314697e-001 -5.555700e-001 -1.353584e-007
    outer loop
      vertex   5.223240e+000 2.081734e+001 3.950000e+000
      vertex   5.060660e+000 2.106066e+001 0.000000e+000
      vertex   5.385819e+000 2.057402e+001 0.000000e+000
    endloop
  endfacet
  facet normal -8.314688e-001 -5.555716e-001 0.000000e+000
    outer loop
      vertex   5.223240e+000 2.081734e+001 3.950000e+000
      vertex   5.385819e+000 2.057402e+001 0.000000e+000
      vertex   5.385819e+000 2.057402e+001 7.900000e+000
    endloop
  endfacet
  facet normal -0.000000e+000 0.000000e+000 -1.000000e+000
    outer loop
      vertex   0.000000e+000 2.400000e+001 0.000000e+000
      vertex   3.425975e+000 2.138582e+001 0.000000e+000
      vertex   2.939340e+000 2.106066e+001 0.000000e+000
    endloop
  endfacet
  facet normal -8.314707e-001 -5.555685e-001 -0.000000e+000
    outer loop
      vertex   5.223240e+000 2.081734e+001 3.950000e+000
      vertex   5.060660e+000 2.106066e+001 7.900000e+000
      vertex   5.060660e+000 2.106066e+001 0.000000e+000
    endloop
  endfacet
  facet normal -5.555700e-001 -8.314697e-001 1.998148e-007
    outer loop
      vertex   4.817343e+000 2.122324e+001 3.950000e+000
      vertex   4.574025e+000 2.138582e+001 0.000000e+000
      vertex   5.060660e+000 2.106066e+001 0.000000e+000
    endloop
  endfacet
  facet normal -5.555723e-001 -8.314683e-001 0.000000e+000
    outer loop
      vertex   4.817343e+000 2.122324e+001 3.950000e+000
      vertex   5.060660e+000 2.106066e+001 0.000000e+000
      vertex   5.060660e+000 2.106066e+001 7.900000e+000
    endloop
  endfacet
  facet normal -0.000000e+000 0.000000e+000 -1.000000e+000
    outer loop
      vertex   0.000000e+000 2.400000e+001 0.000000e+000
      vertex   4.000000e+000 2.150000e+001 0.000000e+000
      vertex   3.425975e+000 2.138582e+001 0.000000e+000
    endloop
  endfacet
  facet normal 1.950917e-001 -9.807850e-001 0.000000e+000
    outer loop
      vertex   3.712987e+000 2.144291e+001 3.950000e+000
      vertex   4.000000e+000 2.150000e+001 0.000000e+000
      vertex   4.000000e+000 2.150000e+001 7.900000e+000
    endloop
  endfacet
  facet normal -1.950917e-001 -9.807850e-001 0.000000e+000
    outer loop
      vertex   4.287013e+000 2.144291e+001 3.950000e+000
      vertex   4.000000e+000 2.150000e+001 0.000000e+000
      vertex   4.574025e+000 2.138582e+001 0.000000e+000
    endloop
  endfacet
  facet normal -1.950917e-001 -9.807850e-001 0.000000e+000
    outer loop
      vertex   4.287013e+000 2.144291e+001 3.950000e+000
      vertex   4.574025e+000 2.138582e+001 0.000000e+000
      vertex   4.574025e+000 2.138582e+001 7.900000e+000
    endloop
  endfacet
  facet normal 0.000000e+000 0.000000e+000 -1.000000e+000
    outer loop
      vertex   0.000000e+000 2.400000e+001 0.000000e+000
      vertex   4.574025e+000 2.138582e+001 0.000000e+000
      vertex   4.000000e+000 2.150000e+001 0.000000e+000
    endloop
  endfacet
  facet normal -1.950917e-001 -9.807850e-001 -0.000000e+000
    outer loop
      vertex   4.287013e+000 2.144291e+001 3.950000e+000
      vertex   4.000000e+000 2.150000e+001 7.900000e+000
      vertex   4.000000e+000 2.150000e+001 0.000000e+000
    endloop
  endfacet
  facet normal 1.950917e-001 -9.807850e-001 0.000000e+000
    outer loop
      vertex   3.712987e+000 2.144291e+001 3.950000e+000
      vertex   3.425975e+000 2.138582e+001 0.000000e+000
      vertex   4.000000e+000 2.150000e+001 0.000000e+000
    endloop
  endfacet
  facet normal 0.000000e+000 0.000000e+000 -1.000000e+000
    outer loop
      vertex   5.385819e+000 2.057402e+001 0.000000e+000
      vertex   1.200000e+001 0.000000e+000 0.000000e+000
      vertex   5.500000e+000 2.000000e+001 0.000000e+000
    endloop
  endfacet
  facet normal 1.950917e-001 -9.807850e-001 0.000000e+000
    outer loop
      vertex   3.712987e+000 2.144291e+001 3.950000e+000
      vertex   3.425975e+000 2.138582e+001 7.900000e+000
      vertex   3.425975e+000 2.138582e+001 0.000000e+000
    endloop
  endfacet
  facet normal 0.000000e+000 0.000000e+000 -1.000000e+000
    outer loop
      vertex   5.500000e+000 2.000000e+001 0.000000e+000
      vertex   1.200000e+001 0.000000e+000 0.000000e+000
      vertex   5.385819e+000 1.942598e+001 0.000000e+000
    endloop
  endfacet
  facet normal 5.555677e-001 -8.314713e-001 0.000000e+000
    outer loop
      vertex   3.182657e+000 2.122324e+001 3.950000e+000
      vertex   3.425975e+000 2.138582e+001 0.000000e+000
      vertex   3.425975e+000 2.138582e+001 7.900000e+000
    endloop
  endfacet
  facet normal 0.000000e+000 0.000000e+000 -1.000000e+000
    outer loop
      vertex   5.385819e+000 1.942598e+001 0.000000e+000
      vertex   1.200000e+001 0.000000e+000 0.000000e+000
      vertex   5.060660e+000 1.893934e+001 0.000000e+000
    endloop
  endfacet
  facet normal 1.000000e+000 0.000000e+000 0.000000e+000
    outer loop
      vertex   1.200000e+001 1.200000e+001 1.500000e+000
      vertex   1.200000e+001 2.400000e+001 3.000000e+000
      vertex   1.200000e+001 0.000000e+000 3.000000e+000
    endloop
  endfacet
  facet normal -1.000000e+000 0.000000e+000 0.000000e+000
    outer loop
      vertex   0.000000e+000 1.200000e+001 1.500000e+000
      vertex   0.000000e+000 0.000000e+000 3.000000e+000
      vertex   0.000000e+000 2.400000e+001 3.000000e+000
    endloop
  endfacet
  facet normal -1.950904e-001 0.000000e+000 9.807853e-001
    outer loop
      vertex   9.091341e+000 1.200000e+001 1.988060e+000
      vertex   8.900000e+000 2.400000e+001 1.950000e+000
      vertex   8.900000e+000 0.000000e+000 1.950000e+000
    endloop
  endfacet
  facet normal 1.950904e-001 0.000000e+000 9.807853e-001
    outer loop
      vertex   8.708658e+000 1.200000e+001 1.988060e+000
      vertex   8.517317e+000 0.000000e+000 2.026120e+000
      vertex   8.900000e+000 0.000000e+000 1.950000e+000
    endloop
  endfacet
  facet normal -1.950899e-001 7.757422e-009 9.807854e-001
    outer loop
      vertex   9.091341e+000 1.200000e+001 1.988060e+000
      vertex   9.282683e+000 2.400000e+001 2.026120e+000
      vertex   8.900000e+000 2.400000e+001 1.950000e+000
    endloop
  endfacet
  facet normal 1.950904e-001 -0.000000e+000 9.807853e-001
    outer loop
      vertex   8.708658e+000 1.200000e+001 1.988060e+000
      vertex   8.900000e+000 0.000000e+000 1.950000e+000
      vertex   8.900000e+000 2.400000e+001 1.950000e+000
    endloop
  endfacet
  facet normal 1.950904e-001 0.000000e+000 9.807853e-001
    outer loop
      vertex   8.708658e+000 1.200000e+001 1.988060e+000
      vertex   8.900000e+000 2.400000e+001 1.950000e+000
      vertex   8.517317e+000 2.400000e+001 2.026120e+000
    endloop
  endfacet
  facet normal -1.950899e-001 -7.757422e-009 9.807854e-001
    outer loop
      vertex   9.091341e+000 1.200000e+001 1.988060e+000
      vertex   8.900000e+000 0.000000e+000 1.950000e+000
      vertex   9.282683e+000 0.000000e+000 2.026120e+000
    endloop
  endfacet
  facet normal -1.950895e-001 0.000000e+000 9.807855e-001
    outer loop
      vertex   9.091341e+000 1.200000e+001 1.988060e+000
      vertex   9.282683e+000 0.000000e+000 2.026120e+000
      vertex   9.282683e+000 2.400000e+001 2.026120e+000
    endloop
  endfacet
  facet normal 1.950904e-001 0.000000e+000 9.807853e-001
    outer loop
      vertex   8.708658e+000 1.200000e+001 1.988060e+000
      vertex   8.517317e+000 2.400000e+001 2.026120e+000
      vertex   8.517317e+000 0.000000e+000 2.026120e+000
    endloop
  endfacet
  facet normal 5.555682e-001 -0.000000e+000 8.314709e-001
    outer loop
      vertex   8.355104e+000 1.200000e+001 2.134507e+000
      vertex   8.517317e+000 0.000000e+000 2.026120e+000
      vertex   8.517317e+000 2.400000e+001 2.026120e+000
    endloop
  endfacet
  facet normal -5.555705e-001 0.000000e+000 8.314694e-001
    outer loop
      vertex   9.444895e+000 1.200000e+001 2.134507e+000
      vertex   9.282683e+000 2.400000e+001 2.026120e+000
      vertex   9.282683e+000 0.000000e+000 2.026120e+000
    endloop
  endfacet
  facet normal -5.555698e-001 -1.352576e-008 8.314700e-001
    outer loop
      vertex   9.444895e+000 1.200000e+001 2.134507e+000
      vertex   9.282683e+000 0.000000e+000 2.026120e+000
      vertex   9.607107e+000 0.000000e+000 2.242893e+000
    endloop
  endfacet
  facet normal -5.555698e-001 1.352576e-008 8.314700e-001
    outer loop
      vertex   9.444895e+000 1.200000e+001 2.134507e+000
      vertex   9.607107e+000 2.400000e+001 2.242893e+000
      vertex   9.282683e+000 2.400000e+001 2.026120e+000
    endloop
  endfacet
  facet normal 5.555698e-001 -3.023405e-008 8.314700e-001
    outer loop
      vertex   8.355104e+000 1.200000e+001 2.134507e+000
      vertex   8.517317e+000 2.400000e+001 2.026120e+000
      vertex   8.192893e+000 2.400000e+001 2.242893e+000
    endloop
  endfacet
  facet normal 5.555698e-001 3.023405e-008 8.314700e-001
    outer loop
      vertex   8.355104e+000 1.200000e+001 2.134507e+000
      vertex   8.192893e+000 0.000000e+000 2.242893e+000
      vertex   8.517317e+000 0.000000e+000 2.026120e+000
    endloop
  endfacet
  facet normal -5.555691e-001 0.000000e+000 8.314704e-001
    outer loop
      vertex   9.444895e+000 1.200000e+001 2.134507e+000
      vertex   9.607107e+000 0.000000e+000 2.242893e+000
      vertex   9.607107e+000 2.400000e+001 2.242893e+000
    endloop
  endfacet
  facet normal 5.555713e-001 0.000000e+000 8.314688e-001
    outer loop
      vertex   8.355104e+000 1.200000e+001 2.134507e+000
      vertex   8.192893e+000 2.400000e+001 2.242893e+000
      vertex   8.192893e+000 0.000000e+000 2.242893e+000
    endloop
  endfacet
  facet normal -8.136644e-001 2.645569e-008 5.813349e-001
    outer loop
      vertex   9.702610e+000 1.200000e+001 2.376563e+000
      vertex   9.607107e+000 0.000000e+000 2.242893e+000
      vertex   9.798112e+000 0.000000e+000 2.510233e+000
    endloop
  endfacet
  facet normal -8.136644e-001 -2.645569e-008 5.813349e-001
    outer loop
      vertex   9.702610e+000 1.200000e+001 2.376563e+000
      vertex   9.798112e+000 2.400000e+001 2.510233e+000
      vertex   9.607107e+000 2.400000e+001 2.242893e+000
    endloop
  endfacet
  facet normal -8.136632e-001 0.000000e+000 5.813365e-001
    outer loop
      vertex   9.702610e+000 1.200000e+001 2.376563e+000
      vertex   9.607107e+000 2.400000e+001 2.242893e+000
      vertex   9.607107e+000 0.000000e+000 2.242893e+000
    endloop
  endfacet
  facet normal 0.000000e+000 1.000000e+000 0.000000e+000
    outer loop
      vertex   7.976120e+000 2.400000e+001 2.567317e+000
      vertex   8.192893e+000 2.400000e+001 2.242893e+000
      vertex   -1.000000e-001 2.400000e+001 7.900000e+000
    endloop
  endfacet
  facet normal 8.314698e-001 -1.670831e-008 5.555699e-001
    outer loop
      vertex   8.084507e+000 1.200000e+001 2.405105e+000
      vertex   7.976120e+000 0.000000e+000 2.567317e+000
      vertex   8.192893e+000 0.000000e+000 2.242893e+000
    endloop
  endfacet
  facet normal 8.314698e-001 1.591268e-008 5.555699e-001
    outer loop
      vertex   8.084507e+000 1.200000e+001 2.405105e+000
      vertex   8.192893e+000 2.400000e+001 2.242893e+000
      vertex   7.976120e+000 2.400000e+001 2.567317e+000
    endloop
  endfacet
  facet normal 8.314704e-001 -0.000000e+000 5.555691e-001
    outer loop
      vertex   8.084507e+000 1.200000e+001 2.405105e+000
      vertex   8.192893e+000 0.000000e+000 2.242893e+000
      vertex   8.192893e+000 2.400000e+001 2.242893e+000
    endloop
  endfacet
  facet normal -0.000000e+000 1.000000e+000 -0.000000e+000
    outer loop
      vertex   8.192893e+000 2.400000e+001 2.242893e+000
      vertex   0.000000e+000 2.400000e+001 3.000000e+000
      vertex   -1.000000e-001 2.400000e+001 7.900000e+000
    endloop
  endfacet
  facet normal 0.000000e+000 -1.000000e+000 0.000000e+000
    outer loop
      vertex   7.976120e+000 0.000000e+000 2.567317e+000
      vertex   -1.000000e-001 0.000000e+000 7.900000e+000
      vertex   8.192893e+000 0.000000e+000 2.242893e+000
    endloop
  endfacet
  facet normal 0.000000e+000 -1.000000e+000 0.000000e+000
    outer loop
      vertex   8.192893e+000 0.000000e+000 2.242893e+000
      vertex   -1.000000e-001 0.000000e+000 7.900000e+000
      vertex   0.000000e+000 0.000000e+000 3.000000e+000
    endloop
  endfacet
  facet normal -8.136655e-001 0.000000e+000 5.813333e-001
    outer loop
      vertex   9.702610e+000 1.200000e+001 2.376563e+000
      vertex   9.798112e+000 0.000000e+000 2.510233e+000
      vertex   9.798112e+000 2.400000e+001 2.510233e+000
    endloop
  endfacet
  facet normal 8.314692e-001 0.000000e+000 5.555708e-001
    outer loop
      vertex   8.084507e+000 1.200000e+001 2.405105e+000
      vertex   7.976120e+000 2.400000e+001 2.567317e+000
      vertex   7.976120e+000 0.000000e+000 2.567317e+000
    endloop
  endfacet
  facet normal -6.319513e-001 -8.011295e-009 7.750081e-001
    outer loop
      vertex   1.009843e+001 1.200000e+001 2.755116e+000
      vertex   1.039875e+001 2.400000e+001 3.000000e+000
      vertex   9.798112e+000 2.400000e+001 2.510233e+000
    endloop
  endfacet
  facet normal -6.319513e-001 8.011295e-009 7.750081e-001
    outer loop
      vertex   1.009843e+001 1.200000e+001 2.755116e+000
      vertex   9.798112e+000 0.000000e+000 2.510233e+000
      vertex   1.039875e+001 -0.000000e+000 3.000000e+000
    endloop
  endfacet
  facet normal -6.319512e-001 0.000000e+000 7.750083e-001
    outer loop
      vertex   1.009843e+001 1.200000e+001 2.755116e+000
      vertex   9.798112e+000 2.400000e+001 2.510233e+000
      vertex   9.798112e+000 0.000000e+000 2.510233e+000
    endloop
  endfacet
  facet normal 0.000000e+000 -1.000000e+000 0.000000e+000
    outer loop
      vertex   7.900000e+000 0.000000e+000 2.950000e+000
      vertex   -1.000000e-001 0.000000e+000 7.900000e+000
      vertex   7.976120e+000 0.000000e+000 2.567317e+000
    endloop
  endfacet
  facet normal 9.807853e-001 1.989084e-009 1.950901e-001
    outer loop
      vertex   7.938060e+000 1.200000e+001 2.758658e+000
      vertex   7.976120e+000 2.400000e+001 2.567317e+000
      vertex   7.900000e+000 2.400000e+001 2.950000e+000
    endloop
  endfacet
  facet normal 9.807853e-001 -1.989084e-009 1.950901e-001
    outer loop
      vertex   7.938060e+000 1.200000e+001 2.758658e+000
      vertex   7.900000e+000 0.000000e+000 2.950000e+000
      vertex   7.976120e+000 0.000000e+000 2.567317e+000
    endloop
  endfacet
  facet normal 9.807854e-001 -0.000000e+000 1.950899e-001
    outer loop
      vertex   7.938060e+000 1.200000e+001 2.758658e+000
      vertex   7.976120e+000 0.000000e+000 2.567317e+000
      vertex   7.976120e+000 2.400000e+001 2.567317e+000
    endloop
  endfacet
  facet normal 0.000000e+000 1.000000e+000 0.000000e+000
    outer loop
      vertex   7.900000e+000 2.400000e+001 2.950000e+000
      vertex   7.976120e+000 2.400000e+001 2.567317e+000
      vertex   -1.000000e-001 2.400000e+001 7.900000e+000
    endloop
  endfacet
  facet normal -6.319515e-001 0.000000e+000 7.750079e-001
    outer loop
      vertex   1.009843e+001 1.200000e+001 2.755116e+000
      vertex   1.039875e+001 -0.000000e+000 3.000000e+000
      vertex   1.039875e+001 2.400000e+001 3.000000e+000
    endloop
  endfacet
  facet normal 9.807853e-001 0.000000e+000 1.950902e-001
    outer loop
      vertex   7.938060e+000 1.200000e+001 2.758658e+000
      vertex   7.900000e+000 2.400000e+001 2.950000e+000
      vertex   7.900000e+000 0.000000e+000 2.950000e+000
    endloop
  endfacet
  facet normal 9.807853e-001 0.000000e+000 -1.950902e-001
    outer loop
      vertex   7.938060e+000 1.200000e+001 3.141342e+000
      vertex   7.976120e+000 0.000000e+000 3.332683e+000
      vertex   7.900000e+000 0.000000e+000 2.950000e+000
    endloop
  endfacet
  facet normal 9.807853e-001 0.000000e+000 -1.950902e-001
    outer loop
      vertex   7.938060e+000 1.200000e+001 3.141342e+000
      vertex   7.900000e+000 0.000000e+000 2.950000e+000
      vertex   7.900000e+000 2.400000e+001 2.950000e+000
    endloop
  endfacet
  facet normal 0.000000e+000 -1.000000e+000 0.000000e+000
    outer loop
      vertex   7.976120e+000 0.000000e+000 3.332683e+000
      vertex   -1.000000e-001 0.000000e+000 7.900000e+000
      vertex   7.900000e+000 0.000000e+000 2.950000e+000
    endloop
  endfacet
  facet normal 9.807853e-001 0.000000e+000 -1.950902e-001
    outer loop
      vertex   7.938060e+000 1.200000e+001 3.141342e+000
      vertex   7.900000e+000 2.400000e+001 2.950000e+000
      vertex   7.976120e+000 2.400000e+001 3.332683e+000
    endloop
  endfacet
  facet normal 0.000000e+000 1.000000e+000 -0.000000e+000
    outer loop
      vertex   7.976120e+000 2.400000e+001 3.332683e+000
      vertex   7.900000e+000 2.400000e+001 2.950000e+000
      vertex   -1.000000e-001 2.400000e+001 7.900000e+000
    endloop
  endfacet
  facet normal -1.000000e+000 0.000000e+000 -0.000000e+000
    outer loop
      vertex   -1.000000e-001 1.200000e+001 5.450000e+000
      vertex   -1.000000e-001 2.400000e+001 7.900000e+000
      vertex   -1.000000e-001 2.400000e+001 3.000000e+000
    endloop
  endfacet
  facet normal 0.000000e+000 0.000000e+000 1.000000e+000
    outer loop
      vertex   1.119937e+001 1.200000e+001 3.000000e+000
      vertex   1.039875e+001 -0.000000e+000 3.000000e+000
      vertex   1.200000e+001 0.000000e+000 3.000000e+000
    endloop
  endfacet
  facet normal 0.000000e+000 0.000000e+000 1.000000e+000
    outer loop
      vertex   1.119937e+001 1.200000e+001 3.000000e+000
      vertex   1.039875e+001 2.400000e+001 3.000000e+000
      vertex   1.039875e+001 -0.000000e+000 3.000000e+000
    endloop
  endfacet
  facet normal 0.000000e+000 0.000000e+000 1.000000e+000
    outer loop
      vertex   1.119937e+001 1.200000e+001 3.000000e+000
      vertex   1.200000e+001 2.400000e+001 3.000000e+000
      vertex   1.039875e+001 2.400000e+001 3.000000e+000
    endloop
  endfacet
  facet normal -1.000000e+000 0.000000e+000 0.000000e+000
    outer loop
      vertex   -1.000000e-001 1.200000e+001 5.450000e+000
      vertex   -1.000000e-001 0.000000e+000 3.000000e+000
      vertex   -1.000000e-001 0.000000e+000 7.900000e+000
    endloop
  endfacet
  facet normal 0.000000e+000 -0.000000e+000 1.000000e+000
    outer loop
      vertex   1.119937e+001 1.200000e+001 3.000000e+000
      vertex   1.200000e+001 0.000000e+000 3.000000e+000
      vertex   1.200000e+001 2.400000e+001 3.000000e+000
    endloop
  endfacet
  facet normal 0.000000e+000 1.000000e+000 0.000000e+000
    outer loop
      vertex   -1.000000e-001 2.400000e+001 7.900000e+000
      vertex   0.000000e+000 2.400000e+001 3.000000e+000
      vertex   -1.000000e-001 2.400000e+001 3.000000e+000
    endloop
  endfacet
  facet normal 0.000000e+000 0.000000e+000 -1.000000e+000
    outer loop
      vertex   -5.000000e-002 1.200000e+001 3.000000e+000
      vertex   -1.000000e-001 0.000000e+000 3.000000e+000
      vertex   -1.000000e-001 2.400000e+001 3.000000e+000
    endloop
  endfacet
  facet normal 0.000000e+000 0.000000e+000 -1.000000e+000
    outer loop
      vertex   -5.000000e-002 1.200000e+001 3.000000e+000
      vertex   0.000000e+000 0.000000e+000 3.000000e+000
      vertex   -1.000000e-001 0.000000e+000 3.000000e+000
    endloop
  endfacet
  facet normal 0.000000e+000 -0.000000e+000 -1.000000e+000
    outer loop
      vertex   -5.000000e-002 1.200000e+001 3.000000e+000
      vertex   0.000000e+000 2.400000e+001 3.000000e+000
      vertex   0.000000e+000 0.000000e+000 3.000000e+000
    endloop
  endfacet
  facet normal 0.000000e+000 0.000000e+000 -1.000000e+000
    outer loop
      vertex   -5.000000e-002 1.200000e+001 3.000000e+000
      vertex   -1.000000e-001 2.400000e+001 3.000000e+000
      vertex   0.000000e+000 2.400000e+001 3.000000e+000
    endloop
  endfacet
  facet normal -1.000000e+000 0.000000e+000 0.000000e+000
    outer loop
      vertex   -1.000000e-001 1.200000e+001 5.450000e+000
      vertex   -1.000000e-001 2.400000e+001 3.000000e+000
      vertex   -1.000000e-001 0.000000e+000 3.000000e+000
    endloop
  endfacet
  facet normal 0.000000e+000 -1.000000e+000 0.000000e+000
    outer loop
      vertex   -1.000000e-001 0.000000e+000 7.900000e+000
      vertex   -1.000000e-001 0.000000e+000 3.000000e+000
      vertex   0.000000e+000 0.000000e+000 3.000000e+000
    endloop
  endfacet
  facet normal 9.807853e-001 0.000000e+000 -1.950902e-001
    outer loop
      vertex   7.938060e+000 1.200000e+001 3.141342e+000
      vertex   7.976120e+000 2.400000e+001 3.332683e+000
      vertex   7.976120e+000 0.000000e+000 3.332683e+000
    endloop
  endfacet
  facet normal 0.000000e+000 1.000000e+000 -0.000000e+000
    outer loop
      vertex   8.192893e+000 2.400000e+001 3.657107e+000
      vertex   7.976120e+000 2.400000e+001 3.332683e+000
      vertex   -1.000000e-001 2.400000e+001 7.900000e+000
    endloop
  endfacet
  facet normal 8.314700e-001 2.227774e-008 -5.555696e-001
    outer loop
      vertex   8.084507e+000 1.200000e+001 3.494895e+000
      vertex   7.976120e+000 2.400000e+001 3.332683e+000
      vertex   8.192893e+000 2.400000e+001 3.657107e+000
    endloop
  endfacet
  facet normal 8.314700e-001 -2.148210e-008 -5.555696e-001
    outer loop
      vertex   8.084507e+000 1.200000e+001 3.494895e+000
      vertex   8.192893e+000 0.000000e+000 3.657107e+000
      vertex   7.976120e+000 0.000000e+000 3.332683e+000
    endloop
  endfacet
  facet normal 8.314692e-001 0.000000e+000 -5.555708e-001
    outer loop
      vertex   8.084507e+000 1.200000e+001 3.494895e+000
      vertex   7.976120e+000 0.000000e+000 3.332683e+000
      vertex   7.976120e+000 2.400000e+001 3.332683e+000
    endloop
  endfacet
  facet normal 0.000000e+000 -1.000000e+000 0.000000e+000
    outer loop
      vertex   8.192893e+000 0.000000e+000 3.657107e+000
      vertex   -1.000000e-001 0.000000e+000 7.900000e+000
      vertex   7.976120e+000 0.000000e+000 3.332683e+000
    endloop
  endfacet
  facet normal 8.314708e-001 0.000000e+000 -5.555685e-001
    outer loop
      vertex   8.084507e+000 1.200000e+001 3.494895e+000
      vertex   8.192893e+000 2.400000e+001 3.657107e+000
      vertex   8.192893e+000 0.000000e+000 3.657107e+000
    endloop
  endfacet
  facet normal 0.000000e+000 -1.000000e+000 0.000000e+000
    outer loop
      vertex   8.415877e+000 0.000000e+000 3.825000e+000
      vertex   -1.000000e-001 0.000000e+000 7.900000e+000
      vertex   8.192893e+000 0.000000e+000 3.657107e+000
    endloop
  endfacet
  facet normal 6.015012e-001 0.000000e+000 -7.988719e-001
    outer loop
      vertex   8.304385e+000 1.200000e+001 3.741054e+000
      vertex   8.192893e+000 0.000000e+000 3.657107e+000
      vertex   8.192893e+000 2.400000e+001 3.657107e+000
    endloop
  endfacet
  facet normal 6.015006e-001 -7.785383e-009 -7.988724e-001
    outer loop
      vertex   8.304385e+000 1.200000e+001 3.741054e+000
      vertex   8.192893e+000 2.400000e+001 3.657107e+000
      vertex   8.415877e+000 2.400000e+001 3.825000e+000
    endloop
  endfacet
  facet normal 6.015006e-001 7.785383e-009 -7.988724e-001
    outer loop
      vertex   8.304385e+000 1.200000e+001 3.741054e+000
      vertex   8.415877e+000 0.000000e+000 3.825000e+000
      vertex   8.192893e+000 0.000000e+000 3.657107e+000
    endloop
  endfacet
  facet normal 0.000000e+000 1.000000e+000 -0.000000e+000
    outer loop
      vertex   8.415877e+000 2.400000e+001 3.825000e+000
      vertex   8.192893e+000 2.400000e+001 3.657107e+000
      vertex   -1.000000e-001 2.400000e+001 7.900000e+000
    endloop
  endfacet
  facet normal 6.015001e-001 0.000000e+000 -7.988727e-001
    outer loop
      vertex   8.304385e+000 1.200000e+001 3.741054e+000
      vertex   8.415877e+000 2.400000e+001 3.825000e+000
      vertex   8.415877e+000 0.000000e+000 3.825000e+000
    endloop
  endfacet
  facet normal 0.000000e+000 1.000000e+000 -0.000000e+000
    outer loop
      vertex   8.900000e+000 2.400000e+001 4.450000e+000
      vertex   8.415877e+000 2.400000e+001 3.825000e+000
      vertex   -1.000000e-001 2.400000e+001 7.900000e+000
    endloop
  endfacet
  facet normal 7.905697e-001 -3.769732e-008 -6.123721e-001
    outer loop
      vertex   8.657939e+000 1.200000e+001 4.137500e+000
      vertex   8.900000e+000 0.000000e+000 4.450000e+000
      vertex   8.415877e+000 0.000000e+000 3.825000e+000
    endloop
  endfacet
  facet normal 7.905697e-001 3.769732e-008 -6.123721e-001
    outer loop
      vertex   8.657939e+000 1.200000e+001 4.137500e+000
      vertex   8.415877e+000 2.400000e+001 3.825000e+000
      vertex   8.900000e+000 2.400000e+001 4.450000e+000
    endloop
  endfacet
  facet normal 7.905690e-001 0.000000e+000 -6.123730e-001
    outer loop
      vertex   8.657939e+000 1.200000e+001 4.137500e+000
      vertex   8.415877e+000 0.000000e+000 3.825000e+000
      vertex   8.415877e+000 2.400000e+001 3.825000e+000
    endloop
  endfacet
  facet normal 0.000000e+000 -1.000000e+000 0.000000e+000
    outer loop
      vertex   8.900000e+000 0.000000e+000 4.450000e+000
      vertex   -1.000000e-001 0.000000e+000 7.900000e+000
      vertex   8.415877e+000 0.000000e+000 3.825000e+000
    endloop
  endfacet
  facet normal -8.314697e-001 5.555702e-001 -1.611410e-008
    outer loop
      vertex   5.223240e+000 3.182657e+000 3.950000e+000
      vertex   5.060660e+000 2.939340e+000 7.900000e+000
      vertex   5.385819e+000 3.425975e+000 7.900000e+000
    endloop
  endfacet
  facet normal -9.807853e-001 1.950901e-001 0.000000e+000
    outer loop
      vertex   5.442910e+000 3.712987e+000 3.950000e+000
      vertex   5.385819e+000 3.425975e+000 7.900000e+000
      vertex   5.500000e+000 4.000000e+000 7.900000e+000
    endloop
  endfacet
  facet normal -5.555700e-001 8.314697e-001 0.000000e+000
    outer loop
      vertex   4.817343e+000 2.776760e+000 3.950000e+000
      vertex   4.574025e+000 2.614181e+000 7.900000e+000
      vertex   5.060660e+000 2.939340e+000 7.900000e+000
    endloop
  endfacet
  facet normal 1.950905e-001 9.807853e-001 -2.900538e-008
    outer loop
      vertex   3.712987e+000 2.557090e+000 3.950000e+000
      vertex   3.425975e+000 2.614181e+000 7.900000e+000
      vertex   4.000000e+000 2.500000e+000 7.900000e+000
    endloop
  endfacet
  facet normal -1.950917e-001 -9.807850e-001 0.000000e+000
    outer loop
      vertex   4.287013e+000 2.144291e+001 3.950000e+000
      vertex   4.574025e+000 2.138582e+001 7.900000e+000
      vertex   4.000000e+000 2.150000e+001 7.900000e+000
    endloop
  endfacet
  facet normal 1.950917e-001 -9.807850e-001 0.000000e+000
    outer loop
      vertex   3.712987e+000 2.144291e+001 3.950000e+000
      vertex   4.000000e+000 2.150000e+001 7.900000e+000
      vertex   3.425975e+000 2.138582e+001 7.900000e+000
    endloop
  endfacet
  facet normal -1.950905e-001 9.807853e-001 -2.900538e-008
    outer loop
      vertex   4.287013e+000 2.557090e+000 3.950000e+000
      vertex   4.000000e+000 2.500000e+000 7.900000e+000
      vertex   4.574025e+000 2.614181e+000 7.900000e+000
    endloop
  endfacet
  facet normal 9.807853e-001 1.950905e-001 -2.900538e-008
    outer loop
      vertex   2.557090e+000 3.712987e+000 3.950000e+000
      vertex   2.500000e+000 4.000000e+000 7.900000e+000
      vertex   2.614181e+000 3.425975e+000 7.900000e+000
    endloop
  endfacet
  facet normal -8.314697e-001 -5.555700e-001 1.321356e-007
    outer loop
      vertex   5.223240e+000 2.081734e+001 3.950000e+000
      vertex   5.385819e+000 2.057402e+001 7.900000e+000
      vertex   5.060660e+000 2.106066e+001 7.900000e+000
    endloop
  endfacet
  facet normal -9.807853e-001 -1.950904e-001 0.000000e+000
    outer loop
      vertex   5.442910e+000 2.028701e+001 3.950000e+000
      vertex   5.500000e+000 2.000000e+001 7.900000e+000
      vertex   5.385819e+000 2.057402e+001 7.900000e+000
    endloop
  endfacet
  facet normal 5.555702e-001 -8.314697e-001 -1.611410e-008
    outer loop
      vertex   3.182657e+000 5.223240e+000 3.950000e+000
      vertex   3.425975e+000 5.385819e+000 7.900000e+000
      vertex   2.939340e+000 5.060660e+000 7.900000e+000
    endloop
  endfacet
  facet normal 1.950901e-001 -9.807853e-001 0.000000e+000
    outer loop
      vertex   3.712987e+000 5.442910e+000 3.950000e+000
      vertex   4.000000e+000 5.500000e+000 7.900000e+000
      vertex   3.425975e+000 5.385819e+000 7.900000e+000
    endloop
  endfacet
  facet normal -5.555700e-001 -8.314697e-001 -1.998148e-007
    outer loop
      vertex   4.817343e+000 2.122324e+001 3.950000e+000
      vertex   5.060660e+000 2.106066e+001 7.900000e+000
      vertex   4.574025e+000 2.138582e+001 7.900000e+000
    endloop
  endfacet
  facet normal 5.555702e-001 -8.314697e-001 -2.159290e-007
    outer loop
      vertex   3.182657e+000 2.122324e+001 3.950000e+000
      vertex   3.425975e+000 2.138582e+001 7.900000e+000
      vertex   2.939340e+000 2.106066e+001 7.900000e+000
    endloop
  endfacet
  facet normal 8.314697e-001 -5.555700e-001 1.353584e-007
    outer loop
      vertex   2.776760e+000 2.081734e+001 3.950000e+000
      vertex   2.939340e+000 2.106066e+001 7.900000e+000
      vertex   2.614181e+000 2.057402e+001 7.900000e+000
    endloop
  endfacet
  facet normal -5.555700e-001 -8.314697e-001 0.000000e+000
    outer loop
      vertex   4.817343e+000 5.223240e+000 3.950000e+000
      vertex   5.060660e+000 5.060660e+000 7.900000e+000
      vertex   4.574025e+000 5.385819e+000 7.900000e+000
    endloop
  endfacet
  facet normal -8.314697e-001 -5.555700e-001 0.000000e+000
    outer loop
      vertex   5.223240e+000 4.817343e+000 3.950000e+000
      vertex   5.385819e+000 4.574025e+000 7.900000e+000
      vertex   5.060660e+000 5.060660e+000 7.900000e+000
    endloop
  endfacet
  facet normal -9.807853e-001 -1.950901e-001 0.000000e+000
    outer loop
      vertex   5.442910e+000 4.287013e+000 3.950000e+000
      vertex   5.500000e+000 4.000000e+000 7.900000e+000
      vertex   5.385819e+000 4.574025e+000 7.900000e+000
    endloop
  endfacet
  facet normal 8.314697e-001 -5.555700e-001 0.000000e+000
    outer loop
      vertex   2.776760e+000 4.817343e+000 3.950000e+000
      vertex   2.939340e+000 5.060660e+000 7.900000e+000
      vertex   2.614181e+000 4.574025e+000 7.900000e+000
    endloop
  endfacet
  facet normal 9.807851e-001 -1.950908e-001 -3.061684e-008
    outer loop
      vertex   2.557090e+000 2.028701e+001 3.950000e+000
      vertex   2.614181e+000 2.057402e+001 7.900000e+000
      vertex   2.500000e+000 2.000000e+001 7.900000e+000
    endloop
  endfacet
  facet normal 9.807851e-001 1.950908e-001 -2.900542e-008
    outer loop
      vertex   2.557090e+000 1.971299e+001 3.950000e+000
      vertex   2.500000e+000 2.000000e+001 7.900000e+000
      vertex   2.614181e+000 1.942598e+001 7.900000e+000
    endloop
  endfacet
  facet normal -9.807853e-001 1.950904e-001 0.000000e+000
    outer loop
      vertex   5.442910e+000 1.971299e+001 3.950000e+000
      vertex   5.385819e+000 1.942598e+001 7.900000e+000
      vertex   5.500000e+000 2.000000e+001 7.900000e+000
    endloop
  endfacet
  facet normal -1.950901e-001 -9.807853e-001 0.000000e+000
    outer loop
      vertex   4.287013e+000 5.442910e+000 3.950000e+000
      vertex   4.574025e+000 5.385819e+000 7.900000e+000
      vertex   4.000000e+000 5.500000e+000 7.900000e+000
    endloop
  endfacet
  facet normal 8.314697e-001 5.555700e-001 1.321356e-007
    outer loop
      vertex   2.776760e+000 1.918266e+001 3.950000e+000
      vertex   2.614181e+000 1.942598e+001 7.900000e+000
      vertex   2.939340e+000 1.893934e+001 7.900000e+000
    endloop
  endfacet
  facet normal 5.555702e-001 8.314697e-001 -2.159290e-007
    outer loop
      vertex   3.182657e+000 1.877676e+001 3.950000e+000
      vertex   2.939340e+000 1.893934e+001 7.900000e+000
      vertex   3.425975e+000 1.861418e+001 7.900000e+000
    endloop
  endfacet
  facet normal 1.950917e-001 9.807850e-001 0.000000e+000
    outer loop
      vertex   3.712987e+000 1.855709e+001 3.950000e+000
      vertex   3.425975e+000 1.861418e+001 7.900000e+000
      vertex   4.000000e+000 1.850000e+001 7.900000e+000
    endloop
  endfacet
  facet normal -1.950917e-001 9.807850e-001 0.000000e+000
    outer loop
      vertex   4.287013e+000 1.855709e+001 3.950000e+000
      vertex   4.000000e+000 1.850000e+001 7.900000e+000
      vertex   4.574025e+000 1.861418e+001 7.900000e+000
    endloop
  endfacet
  facet normal -5.555700e-001 8.314697e-001 -1.998148e-007
    outer loop
      vertex   4.817343e+000 1.877676e+001 3.950000e+000
      vertex   4.574025e+000 1.861418e+001 7.900000e+000
      vertex   5.060660e+000 1.893934e+001 7.900000e+000
    endloop
  endfacet
  facet normal -8.314697e-001 5.555700e-001 1.353584e-007
    outer loop
      vertex   5.223240e+000 1.918266e+001 3.950000e+000
      vertex   5.060660e+000 1.893934e+001 7.900000e+000
      vertex   5.385819e+000 1.942598e+001 7.900000e+000
    endloop
  endfacet
  facet normal 5.555702e-001 8.314697e-001 -1.611410e-008
    outer loop
      vertex   3.182657e+000 2.776760e+000 3.950000e+000
      vertex   2.939340e+000 2.939340e+000 7.900000e+000
      vertex   3.425975e+000 2.614181e+000 7.900000e+000
    endloop
  endfacet
  facet normal 8.314697e-001 5.555702e-001 -1.611410e-008
    outer loop
      vertex   2.776760e+000 3.182657e+000 3.950000e+000
      vertex   2.614181e+000 3.425975e+000 7.900000e+000
      vertex   2.939340e+000 2.939340e+000 7.900000e+000
    endloop
  endfacet
  facet normal 9.807853e-001 -1.950905e-001 -2.900538e-008
    outer loop
      vertex   2.557090e+000 4.287013e+000 3.950000e+000
      vertex   2.614181e+000 4.574025e+000 7.900000e+000
      vertex   2.500000e+000 4.000000e+000 7.900000e+000
    endloop
  endfacet
  facet normal 7.905704e-001 0.000000e+000 -6.123712e-001
    outer loop
      vertex   8.657939e+000 1.200000e+001 4.137500e+000
      vertex   8.900000e+000 2.400000e+001 4.450000e+000
      vertex   8.900000e+000 0.000000e+000 4.450000e+000
    endloop
  endfacet
  facet normal 1.000000e+000 0.000000e+000 0.000000e+000
    outer loop
      vertex   8.900000e+000 1.200000e+001 6.175000e+000
      vertex   8.900000e+000 0.000000e+000 7.900000e+000
      vertex   8.900000e+000 0.000000e+000 4.450000e+000
    endloop
  endfacet
  facet normal 1.000000e+000 0.000000e+000 -0.000000e+000
    outer loop
      vertex   8.900000e+000 1.200000e+001 6.175000e+000
      vertex   8.900000e+000 2.400000e+001 4.450000e+000
      vertex   8.900000e+000 2.400000e+001 7.900000e+000
    endloop
  endfacet
  facet normal 0.000000e+000 -1.000000e+000 0.000000e+000
    outer loop
      vertex   8.900000e+000 0.000000e+000 7.900000e+000
      vertex   -1.000000e-001 0.000000e+000 7.900000e+000
      vertex   8.900000e+000 0.000000e+000 4.450000e+000
    endloop
  endfacet
  facet normal 1.000000e+000 0.000000e+000 0.000000e+000
    outer loop
      vertex   8.900000e+000 1.200000e+001 6.175000e+000
      vertex   8.900000e+000 0.000000e+000 4.450000e+000
      vertex   8.900000e+000 2.400000e+001 4.450000e+000
    endloop
  endfacet
  facet normal 0.000000e+000 1.000000e+000 -0.000000e+000
    outer loop
      vertex   8.900000e+000 2.400000e+001 7.900000e+000
      vertex   8.900000e+000 2.400000e+001 4.450000e+000
      vertex   -1.000000e-001 2.400000e+001 7.900000e+000
    endloop
  endfacet
  facet normal -1.000000e+000 0.000000e+000 0.000000e+000
    outer loop
      vertex   -1.000000e-001 1.200000e+001 5.450000e+000
      vertex   -1.000000e-001 0.000000e+000 7.900000e+000
      vertex   -1.000000e-001 2.400000e+001 7.900000e+000
    endloop
  endfacet
  facet normal 1.000000e+000 0.000000e+000 0.000000e+000
    outer loop
      vertex   8.900000e+000 1.200000e+001 6.175000e+000
      vertex   8.900000e+000 2.400000e+001 7.900000e+000
      vertex   8.900000e+000 0.000000e+000 7.900000e+000
    endloop
  endfacet
  facet normal 0.000000e+000 -0.000000e+000 1.000000e+000
    outer loop
      vertex   -1.000000e-001 2.400000e+001 7.900000e+000
      vertex   2.939340e+000 5.060660e+000 7.900000e+000
      vertex   3.425975e+000 5.385819e+000 7.900000e+000
    endloop
  endfacet
  facet normal 0.000000e+000 0.000000e+000 1.000000e+000
    outer loop
      vertex   2.614181e+000 1.942598e+001 7.900000e+000
      vertex   -1.000000e-001 2.400000e+001 7.900000e+000
      vertex   8.900000e+000 0.000000e+000 7.900000e+000
    endloop
  endfacet
  facet normal 0.000000e+000 0.000000e+000 1.000000e+000
    outer loop
      vertex   2.939340e+000 1.893934e+001 7.900000e+000
      vertex   2.614181e+000 1.942598e+001 7.900000e+000
      vertex   8.900000e+000 0.000000e+000 7.900000e+000
    endloop
  endfacet
  facet normal 0.000000e+000 0.000000e+000 1.000000e+000
    outer loop
      vertex   2.500000e+000 2.000000e+001 7.900000e+000
      vertex   -1.000000e-001 2.400000e+001 7.900000e+000
      vertex   2.614181e+000 1.942598e+001 7.900000e+000
    endloop
  endfacet
  facet normal 0.000000e+000 0.000000e+000 1.000000e+000
    outer loop
      vertex   3.425975e+000 1.861418e+001 7.900000e+000
      vertex   2.939340e+000 1.893934e+001 7.900000e+000
      vertex   8.900000e+000 0.000000e+000 7.900000e+000
    endloop
  endfacet
  facet normal 0.000000e+000 0.000000e+000 1.000000e+000
    outer loop
      vertex   2.614181e+000 2.057402e+001 7.900000e+000
      vertex   -1.000000e-001 2.400000e+001 7.900000e+000
      vertex   2.500000e+000 2.000000e+001 7.900000e+000
    endloop
  endfacet
  facet normal 0.000000e+000 0.000000e+000 1.000000e+000
    outer loop
      vertex   4.000000e+000 1.850000e+001 7.900000e+000
      vertex   3.425975e+000 1.861418e+001 7.900000e+000
      vertex   8.900000e+000 0.000000e+000 7.900000e+000
    endloop
  endfacet
  facet normal 0.000000e+000 0.000000e+000 1.000000e+000
    outer loop
      vertex   2.939340e+000 2.106066e+001 7.900000e+000
      vertex   -1.000000e-001 2.400000e+001 7.900000e+000
      vertex   2.614181e+000 2.057402e+001 7.900000e+000
    endloop
  endfacet
  facet normal -0.000000e+000 0.000000e+000 1.000000e+000
    outer loop
      vertex   4.574025e+000 1.861418e+001 7.900000e+000
      vertex   4.000000e+000 1.850000e+001 7.900000e+000
      vertex   8.900000e+000 0.000000e+000 7.900000e+000
    endloop
  endfacet
  facet normal 0.000000e+000 0.000000e+000 1.000000e+000
    outer loop
      vertex   3.425975e+000 2.138582e+001 7.900000e+000
      vertex   -1.000000e-001 2.400000e+001 7.900000e+000
      vertex   2.939340e+000 2.106066e+001 7.900000e+000
    endloop
  endfacet
  facet normal -0.000000e+000 0.000000e+000 1.000000e+000
    outer loop
      vertex   5.060660e+000 1.893934e+001 7.900000e+000
      vertex   4.574025e+000 1.861418e+001 7.900000e+000
      vertex   8.900000e+000 0.000000e+000 7.900000e+000
    endloop
  endfacet
  facet normal 0.000000e+000 0.000000e+000 1.000000e+000
    outer loop
      vertex   4.000000e+000 2.150000e+001 7.900000e+000
      vertex   -1.000000e-001 2.400000e+001 7.900000e+000
      vertex   3.425975e+000 2.138582e+001 7.900000e+000
    endloop
  endfacet
  facet normal -0.000000e+000 0.000000e+000 1.000000e+000
    outer loop
      vertex   5.385819e+000 1.942598e+001 7.900000e+000
      vertex   5.060660e+000 1.893934e+001 7.900000e+000
      vertex   8.900000e+000 0.000000e+000 7.900000e+000
    endloop
  endfacet
  facet normal 0.000000e+000 0.000000e+000 1.000000e+000
    outer loop
      vertex   4.574025e+000 2.138582e+001 7.900000e+000
      vertex   -1.000000e-001 2.400000e+001 7.900000e+000
      vertex   4.000000e+000 2.150000e+001 7.900000e+000
    endloop
  endfacet
  facet normal -0.000000e+000 0.000000e+000 1.000000e+000
    outer loop
      vertex   5.500000e+000 2.000000e+001 7.900000e+000
      vertex   5.385819e+000 1.942598e+001 7.900000e+000
      vertex   8.900000e+000 0.000000e+000 7.900000e+000
    endloop
  endfacet
  facet normal -0.000000e+000 0.000000e+000 1.000000e+000
    outer loop
      vertex   8.900000e+000 2.400000e+001 7.900000e+000
      vertex   5.060660e+000 2.106066e+001 7.900000e+000
      vertex   5.385819e+000 2.057402e+001 7.900000e+000
    endloop
  endfacet
  facet normal 0.000000e+000 -0.000000e+000 1.000000e+000
    outer loop
      vertex   -1.000000e-001 2.400000e+001 7.900000e+000
      vertex   2.614181e+000 4.574025e+000 7.900000e+000
      vertex   2.939340e+000 5.060660e+000 7.900000e+000
    endloop
  endfacet
  facet normal 0.000000e+000 0.000000e+000 1.000000e+000
    outer loop
      vertex   -1.000000e-001 2.400000e+001 7.900000e+000
      vertex   -1.000000e-001 0.000000e+000 7.900000e+000
      vertex   2.614181e+000 4.574025e+000 7.900000e+000
    endloop
  endfacet
  facet normal -0.000000e+000 0.000000e+000 1.000000e+000
    outer loop
      vertex   8.900000e+000 2.400000e+001 7.900000e+000
      vertex   5.385819e+000 2.057402e+001 7.900000e+000
      vertex   5.500000e+000 2.000000e+001 7.900000e+000
    endloop
  endfacet
  facet normal -0.000000e+000 0.000000e+000 1.000000e+000
    outer loop
      vertex   8.900000e+000 2.400000e+001 7.900000e+000
      vertex   5.500000e+000 2.000000e+001 7.900000e+000
      vertex   8.900000e+000 0.000000e+000 7.900000e+000
    endloop
  endfacet
  facet normal -0.000000e+000 -0.000000e+000 1.000000e+000
    outer loop
      vertex   -1.000000e-001 2.400000e+001 7.900000e+000
      vertex   4.000000e+000 5.500000e+000 7.900000e+000
      vertex   4.574025e+000 5.385819e+000 7.900000e+000
    endloop
  endfacet
  facet normal -0.000000e+000 -0.000000e+000 1.000000e+000
    outer loop
      vertex   -1.000000e-001 2.400000e+001 7.900000e+000
      vertex   4.574025e+000 5.385819e+000 7.900000e+000
      vertex   5.060660e+000 5.060660e+000 7.900000e+000
    endloop
  endfacet
  facet normal -0.000000e+000 -0.000000e+000 1.000000e+000
    outer loop
      vertex   -1.000000e-001 2.400000e+001 7.900000e+000
      vertex   5.060660e+000 5.060660e+000 7.900000e+000
      vertex   8.900000e+000 0.000000e+000 7.900000e+000
    endloop
  endfacet
  facet normal 0.000000e+000 0.000000e+000 1.000000e+000
    outer loop
      vertex   8.900000e+000 0.000000e+000 7.900000e+000
      vertex   4.574025e+000 2.614181e+000 7.900000e+000
      vertex   -1.000000e-001 0.000000e+000 7.900000e+000
    endloop
  endfacet
  facet normal 0.000000e+000 0.000000e+000 1.000000e+000
    outer loop
      vertex   8.900000e+000 0.000000e+000 7.900000e+000
      vertex   5.060660e+000 2.939340e+000 7.900000e+000
      vertex   4.574025e+000 2.614181e+000 7.900000e+000
    endloop
  endfacet
  facet normal 0.000000e+000 0.000000e+000 1.000000e+000
    outer loop
      vertex   8.900000e+000 0.000000e+000 7.900000e+000
      vertex   5.385819e+000 3.425975e+000 7.900000e+000
      vertex   5.060660e+000 2.939340e+000 7.900000e+000
    endloop
  endfacet
  facet normal 0.000000e+000 0.000000e+000 1.000000e+000
    outer loop
      vertex   8.900000e+000 0.000000e+000 7.900000e+000
      vertex   5.500000e+000 4.000000e+000 7.900000e+000
      vertex   5.385819e+000 3.425975e+000 7.900000e+000
    endloop
  endfacet
  facet normal 0.000000e+000 0.000000e+000 1.000000e+000
    outer loop
      vertex   8.900000e+000 0.000000e+000 7.900000e+000
      vertex   5.385819e+000 4.574025e+000 7.900000e+000
      vertex   5.500000e+000 4.000000e+000 7.900000e+000
    endloop
  endfacet
  facet normal 0.000000e+000 0.000000e+000 1.000000e+000
    outer loop
      vertex   8.900000e+000 0.000000e+000 7.900000e+000
      vertex   5.060660e+000 5.060660e+000 7.900000e+000
      vertex   5.385819e+000 4.574025e+000 7.900000e+000
    endloop
  endfacet
  facet normal -0.000000e+000 0.000000e+000 1.000000e+000
    outer loop
      vertex   4.574025e+000 2.614181e+000 7.900000e+000
      vertex   4.000000e+000 2.500000e+000 7.900000e+000
      vertex   -1.000000e-001 0.000000e+000 7.900000e+000
    endloop
  endfacet
  facet normal 0.000000e+000 0.000000e+000 1.000000e+000
    outer loop
      vertex   4.000000e+000 2.500000e+000 7.900000e+000
      vertex   3.425975e+000 2.614181e+000 7.900000e+000
      vertex   -1.000000e-001 0.000000e+000 7.900000e+000
    endloop
  endfacet
  facet normal 0.000000e+000 0.000000e+000 1.000000e+000
    outer loop
      vertex   2.614181e+000 4.574025e+000 7.900000e+000
      vertex   -1.000000e-001 0.000000e+000 7.900000e+000
      vertex   2.500000e+000 4.000000e+000 7.900000e+000
    endloop
  endfacet
  facet normal 0.000000e+000 0.000000e+000 1.000000e+000
    outer loop
      vertex   3.425975e+000 2.614181e+000 7.900000e+000
      vertex   2.939340e+000 2.939340e+000 7.900000e+000
      vertex   -1.000000e-001 0.000000e+000 7.900000e+000
    endloop
  endfacet
  facet normal 0.000000e+000 0.000000e+000 1.000000e+000
    outer loop
      vertex   2.500000e+000 4.000000e+000 7.900000e+000
      vertex   -1.000000e-001 0.000000e+000 7.900000e+000
      vertex   2.614181e+000 3.425975e+000 7.900000e+000
    endloop
  endfacet
  facet normal 0.000000e+000 0.000000e+000 1.000000e+000
    outer loop
      vertex   2.939340e+000 2.939340e+000 7.900000e+000
      vertex   2.614181e+000 3.425975e+000 7.900000e+000
      vertex   -1.000000e-001 0.000000e+000 7.900000e+000
    endloop
  endfacet
  facet normal -0.000000e+000 0.000000e+000 1.000000e+000
    outer loop
      vertex   8.900000e+000 2.400000e+001 7.900000e+000
      vertex   4.574025e+000 2.138582e+001 7.900000e+000
      vertex   5.060660e+000 2.106066e+001 7.900000e+000
    endloop
  endfacet
  facet normal 0.000000e+000 -0.000000e+000 1.000000e+000
    outer loop
      vertex   -1.000000e-001 2.400000e+001 7.900000e+000
      vertex   3.425975e+000 5.385819e+000 7.900000e+000
      vertex   4.000000e+000 5.500000e+000 7.900000e+000
    endloop
  endfacet
  facet normal -0.000000e+000 0.000000e+000 1.000000e+000
    outer loop
      vertex   8.900000e+000 2.400000e+001 7.900000e+000
      vertex   -1.000000e-001 2.400000e+001 7.900000e+000
      vertex   4.574025e+000 2.138582e+001 7.900000e+000
    endloop
  endfacet
endsolid
