solid OpenSCAD_Model
  facet normal -0.987621 -0.156857 -0
    outer loop
      vertex 0 2.2 -29
      vertex 0.108 1.52 -29
      vertex 0 2.2 0
    endloop
  endfacet
  facet normal -0.987621 -0.156857 0
    outer loop
      vertex 0 2.2 0
      vertex 0.108 1.52 -29
      vertex 0.108 1.52 0
    endloop
  endfacet
  facet normal -0 -0 -1
    outer loop
      vertex 0 2.2 -29
      vertex 0 57.8 -29
      vertex 0.108 1.52 -29
    endloop
  endfacet
  facet normal 0 0 -1
    outer loop
      vertex 0.108 1.52 -29
      vertex 0 57.8 -29
      vertex 0.108 58.48 -29
    endloop
  endfacet
  facet normal 0 -0 -1
    outer loop
      vertex 0.108 1.52 -29
      vertex 0.108 58.48 -29
      vertex 0.42 59.093 -29
    endloop
  endfacet
  facet normal 0 0 -1
    outer loop
      vertex 0.108 1.52 -29
      vertex 0.42 59.093 -29
      vertex 0.907 59.58 -29
    endloop
  endfacet
  facet normal 0 0 -1
    outer loop
      vertex 0.108 1.52 -29
      vertex 0.907 59.58 -29
      vertex 1.52 59.892 -29
    endloop
  endfacet
  facet normal 0 0 -1
    outer loop
      vertex 0.108 1.52 -29
      vertex 1.52 59.892 -29
      vertex 2.2 60 -29
    endloop
  endfacet
  facet normal 0 0 -1
    outer loop
      vertex 0.108 1.52 -29
      vertex 2.2 60 -29
      vertex 57.8 60 -29
    endloop
  endfacet
  facet normal 0 0 -1
    outer loop
      vertex 0.108 1.52 -29
      vertex 57.8 60 -29
      vertex 58.48 59.892 -29
    endloop
  endfacet
  facet normal 0 0 -1
    outer loop
      vertex 0.108 1.52 -29
      vertex 58.48 59.892 -29
      vertex 59.093 59.58 -29
    endloop
  endfacet
  facet normal 0 0 -1
    outer loop
      vertex 0.108 1.52 -29
      vertex 59.093 59.58 -29
      vertex 59.58 59.093 -29
    endloop
  endfacet
  facet normal 0 0 -1
    outer loop
      vertex 0.108 1.52 -29
      vertex 59.58 59.093 -29
      vertex 59.892 58.48 -29
    endloop
  endfacet
  facet normal 0 0 -1
    outer loop
      vertex 0.108 1.52 -29
      vertex 59.892 58.48 -29
      vertex 60 57.8 -29
    endloop
  endfacet
  facet normal 0 0 -1
    outer loop
      vertex 0.108 1.52 -29
      vertex 60 57.8 -29
      vertex 60 2.2 -29
    endloop
  endfacet
  facet normal -0 0 -1
    outer loop
      vertex 0.108 1.52 -29
      vertex 60 2.2 -29
      vertex 59.892 1.52 -29
    endloop
  endfacet
  facet normal 0 0 -1
    outer loop
      vertex 0.108 1.52 -29
      vertex 59.892 1.52 -29
      vertex 59.58 0.907 -29
    endloop
  endfacet
  facet normal 0 0 -1
    outer loop
      vertex 0.108 1.52 -29
      vertex 59.58 0.907 -29
      vertex 59.093 0.42 -29
    endloop
  endfacet
  facet normal 0 0 -1
    outer loop
      vertex 0.108 1.52 -29
      vertex 59.093 0.42 -29
      vertex 58.48 0.108 -29
    endloop
  endfacet
  facet normal 0 0 -1
    outer loop
      vertex 0.108 1.52 -29
      vertex 58.48 0.108 -29
      vertex 57.8 0 -29
    endloop
  endfacet
  facet normal 0 0 -1
    outer loop
      vertex 0.108 1.52 -29
      vertex 57.8 0 -29
      vertex 2.2 0 -29
    endloop
  endfacet
  facet normal 0 0 -1
    outer loop
      vertex 0.108 1.52 -29
      vertex 2.2 0 -29
      vertex 1.52 0.108 -29
    endloop
  endfacet
  facet normal 0 0 -1
    outer loop
      vertex 0.108 1.52 -29
      vertex 1.52 0.108 -29
      vertex 0.907 0.42 -29
    endloop
  endfacet
  facet normal 0 0 -1
    outer loop
      vertex 0.108 1.52 -29
      vertex 0.907 0.42 -29
      vertex 0.42 0.907 -29
    endloop
  endfacet
  facet normal -1 -0 -0
    outer loop
      vertex 0 2.2 -29
      vertex 0 2.2 0
      vertex 0 57.8 -29
    endloop
  endfacet
  facet normal -1 0 0
    outer loop
      vertex 0 57.8 -29
      vertex 0 2.2 0
      vertex 0 57.8 0
    endloop
  endfacet
  facet normal 0 -0 1
    outer loop
      vertex 0 57.8 0
      vertex 0 2.2 0
      vertex 0.108 1.52 0
    endloop
  endfacet
  facet normal 0 0 1
    outer loop
      vertex 0.907 0.42 0
      vertex 0 57.8 0
      vertex 0.42 0.907 0
    endloop
  endfacet
  facet normal 0 0 1
    outer loop
      vertex 0.42 0.907 0
      vertex 0 57.8 0
      vertex 0.108 1.52 0
    endloop
  endfacet
  facet normal 0 0 1
    outer loop
      vertex 1.52 0.108 0
      vertex 0 57.8 0
      vertex 0.907 0.42 0
    endloop
  endfacet
  facet normal 0 0 1
    outer loop
      vertex 2.2 0 0
      vertex 0 57.8 0
      vertex 1.52 0.108 0
    endloop
  endfacet
  facet normal -0 0 1
    outer loop
      vertex 2.8 5 0
      vertex 0 57.8 0
      vertex 2.2 0 0
    endloop
  endfacet
  facet normal 0 0 1
    outer loop
      vertex 50.3 57.2 0
      vertex 53.22 56.293 0
      vertex 53.707 56.78 0
    endloop
  endfacet
  facet normal 0 0 1
    outer loop
      vertex 50.3 57.2 0
      vertex 54.32 57.092 0
      vertex 55 57.2 0
    endloop
  endfacet
  facet normal 0 0 1
    outer loop
      vertex 9.7 57.2 0
      vertex 50.3 57.2 0
      vertex 60 57.8 0
    endloop
  endfacet
  facet normal 0 -0 1
    outer loop
      vertex 59.892 58.48 0
      vertex 0 57.8 0
      vertex 60 57.8 0
    endloop
  endfacet
  facet normal 0 -0 1
    outer loop
      vertex 59.58 59.093 0
      vertex 0 57.8 0
      vertex 59.892 58.48 0
    endloop
  endfacet
  facet normal 0 -0 1
    outer loop
      vertex 59.093 59.58 0
      vertex 0 57.8 0
      vertex 59.58 59.093 0
    endloop
  endfacet
  facet normal 0 -0 1
    outer loop
      vertex 58.48 59.892 0
      vertex 0 57.8 0
      vertex 59.093 59.58 0
    endloop
  endfacet
  facet normal 0 -0 1
    outer loop
      vertex 57.8 60 0
      vertex 0 57.8 0
      vertex 58.48 59.892 0
    endloop
  endfacet
  facet normal 0 -0 1
    outer loop
      vertex 2.2 60 0
      vertex 0 57.8 0
      vertex 57.8 60 0
    endloop
  endfacet
  facet normal 0 -0 1
    outer loop
      vertex 1.52 59.892 0
      vertex 0 57.8 0
      vertex 2.2 60 0
    endloop
  endfacet
  facet normal 0 -0 1
    outer loop
      vertex 0.907 59.58 0
      vertex 0 57.8 0
      vertex 1.52 59.892 0
    endloop
  endfacet
  facet normal 0 -0 1
    outer loop
      vertex 0.42 59.093 0
      vertex 0 57.8 0
      vertex 0.907 59.58 0
    endloop
  endfacet
  facet normal 0 -0 1
    outer loop
      vertex 0.108 58.48 0
      vertex 0 57.8 0
      vertex 0.42 59.093 0
    endloop
  endfacet
  facet normal -0 0 1
    outer loop
      vertex 3.22 3.707 0
      vertex 2.908 4.32 0
      vertex 2.2 0 0
    endloop
  endfacet
  facet normal -0 0 1
    outer loop
      vertex 2.908 4.32 0
      vertex 2.8 5 0
      vertex 2.2 0 0
    endloop
  endfacet
  facet normal -0 -0 1
    outer loop
      vertex 2.8 9.7 0
      vertex 0 57.8 0
      vertex 2.908 5.68 0
    endloop
  endfacet
  facet normal 0 -0 1
    outer loop
      vertex 57.092 4.32 0
      vertex 56.78 3.707 0
      vertex 59.58 0.907 0
    endloop
  endfacet
  facet normal 0 -0 1
    outer loop
      vertex 55.68 2.908 0
      vertex 55 2.8 0
      vertex 58.48 0.108 0
    endloop
  endfacet
  facet normal 0 0 1
    outer loop
      vertex 7.092 5.68 0
      vertex 7.2 5 0
      vertex 9.7 5 0
    endloop
  endfacet
  facet normal 0 0 1
    outer loop
      vertex 9.47 6.452 0
      vertex 8.802 7.763 0
      vertex 5.68 7.092 0
    endloop
  endfacet
  facet normal 0 0 1
    outer loop
      vertex 5 9.7 0
      vertex 4.32 7.092 0
      vertex 5 7.2 0
    endloop
  endfacet
  facet normal 0 0 1
    outer loop
      vertex 6.293 3.22 0
      vertex 5.68 2.908 0
      vertex 2.2 0 0
    endloop
  endfacet
  facet normal 0 0 1
    outer loop
      vertex 5.68 7.092 0
      vertex 8.802 7.763 0
      vertex 5 7.2 0
    endloop
  endfacet
  facet normal -0 0 1
    outer loop
      vertex 9.7 2.8 0
      vertex 6.293 3.22 0
      vertex 2.2 0 0
    endloop
  endfacet
  facet normal 0 0 1
    outer loop
      vertex 2.8 9.7 0
      vertex 2.8 50.3 0
      vertex 0 57.8 0
    endloop
  endfacet
  facet normal 0 0 1
    outer loop
      vertex 5.68 2.908 0
      vertex 5 2.8 0
      vertex 2.2 0 0
    endloop
  endfacet
  facet normal -0 0 1
    outer loop
      vertex 5 2.8 0
      vertex 4.32 2.908 0
      vertex 2.2 0 0
    endloop
  endfacet
  facet normal -0 0 1
    outer loop
      vertex 4.32 2.908 0
      vertex 3.707 3.22 0
      vertex 2.2 0 0
    endloop
  endfacet
  facet normal -0 0 1
    outer loop
      vertex 3.707 3.22 0
      vertex 3.22 3.707 0
      vertex 2.2 0 0
    endloop
  endfacet
  facet normal -0 0 1
    outer loop
      vertex 3.22 6.293 0
      vertex 2.8 9.7 0
      vertex 2.908 5.68 0
    endloop
  endfacet
  facet normal 0 0 1
    outer loop
      vertex 56.293 3.22 0
      vertex 58.48 0.108 0
      vertex 59.093 0.42 0
    endloop
  endfacet
  facet normal -0 0 1
    outer loop
      vertex 5 50.3 0
      vertex 0 57.8 0
      vertex 2.8 50.3 0
    endloop
  endfacet
  facet normal 0 0 1
    outer loop
      vertex 9.7 2.8 0
      vertex 7.092 4.32 0
      vertex 6.78 3.707 0
    endloop
  endfacet
  facet normal -0 -0 1
    outer loop
      vertex 3.22 53.707 0
      vertex 0 57.8 0
      vertex 5 50.3 0
    endloop
  endfacet
  facet normal 0 0 1
    outer loop
      vertex 9.7 2.8 0
      vertex 7.2 5 0
      vertex 7.092 4.32 0
    endloop
  endfacet
  facet normal 0 0 1
    outer loop
      vertex 9.7 2.8 0
      vertex 9.7 5 0
      vertex 7.2 5 0
    endloop
  endfacet
  facet normal 0 -0 1
    outer loop
      vertex 6.293 53.22 0
      vertex 5.68 52.908 0
      vertex 7.763 51.198 0
    endloop
  endfacet
  facet normal 0 -0 1
    outer loop
      vertex 51.198 7.763 0
      vertex 50.53 6.452 0
      vertex 52.8 5 0
    endloop
  endfacet
  facet normal 0 0 1
    outer loop
      vertex 52.908 5.68 0
      vertex 53.22 6.293 0
      vertex 51.198 7.763 0
    endloop
  endfacet
  facet normal 0 0 1
    outer loop
      vertex 60 57.8 0
      vertex 0 57.8 0
      vertex 9.7 57.2 0
    endloop
  endfacet
  facet normal 0 0 1
    outer loop
      vertex 3.22 56.293 0
      vertex 3.707 56.78 0
      vertex 0 57.8 0
    endloop
  endfacet
  facet normal -0 0 1
    outer loop
      vertex 52.908 54.32 0
      vertex 50.3 55 0
      vertex 51.198 52.237 0
    endloop
  endfacet
  facet normal 0 0 1
    outer loop
      vertex 53.548 9.47 0
      vertex 54.32 7.092 0
      vertex 55 7.2 0
    endloop
  endfacet
  facet normal 0 0 1
    outer loop
      vertex 53.707 53.22 0
      vertex 51.198 52.237 0
      vertex 52.237 51.198 0
    endloop
  endfacet
  facet normal 0 -0 1
    outer loop
      vertex 53.548 9.47 0
      vertex 52.237 8.802 0
      vertex 54.32 7.092 0
    endloop
  endfacet
  facet normal 0 0 1
    outer loop
      vertex 55 52.8 0
      vertex 52.237 51.198 0
      vertex 53.548 50.53 0
    endloop
  endfacet
  facet normal 0 -0 1
    outer loop
      vertex 52.237 8.802 0
      vertex 51.198 7.763 0
      vertex 53.22 6.293 0
    endloop
  endfacet
  facet normal 0 0 1
    outer loop
      vertex 56.293 53.22 0
      vertex 53.548 50.53 0
      vertex 55 50.3 0
    endloop
  endfacet
  facet normal 0 0 1
    outer loop
      vertex 60 57.8 0
      vertex 57.2 50.3 0
      vertex 60 2.2 0
    endloop
  endfacet
  facet normal 0 0 1
    outer loop
      vertex 60 57.8 0
      vertex 55 50.3 0
      vertex 57.2 50.3 0
    endloop
  endfacet
  facet normal 0 -0 1
    outer loop
      vertex 57.2 9.7 0
      vertex 55 9.7 0
      vertex 60 2.2 0
    endloop
  endfacet
  facet normal 0 0 1
    outer loop
      vertex 57.092 5.68 0
      vertex 57.2 5 0
      vertex 60 2.2 0
    endloop
  endfacet
  facet normal 0 0 1
    outer loop
      vertex 50.3 57.2 0
      vertex 55 57.2 0
      vertex 60 57.8 0
    endloop
  endfacet
  facet normal 0 0 1
    outer loop
      vertex 56.78 56.293 0
      vertex 57.092 55.68 0
      vertex 60 57.8 0
    endloop
  endfacet
  facet normal 0 0 1
    outer loop
      vertex 9.7 2.8 0
      vertex 6.78 3.707 0
      vertex 6.293 3.22 0
    endloop
  endfacet
  facet normal 0 0 1
    outer loop
      vertex 52.908 4.32 0
      vertex 50.53 6.452 0
      vertex 50.3 5 0
    endloop
  endfacet
  facet normal 0 0 1
    outer loop
      vertex 57.8 0 0
      vertex 50.3 5 0
      vertex 50.3 2.8 0
    endloop
  endfacet
  facet normal -0 0 1
    outer loop
      vertex 57.8 0 0
      vertex 9.7 2.8 0
      vertex 2.2 0 0
    endloop
  endfacet
  facet normal -0 -0 1
    outer loop
      vertex 4.32 52.908 0
      vertex 3.707 53.22 0
      vertex 6.452 50.53 0
    endloop
  endfacet
  facet normal -0 0 1
    outer loop
      vertex 8.802 7.763 0
      vertex 7.763 8.802 0
      vertex 5 7.2 0
    endloop
  endfacet
  facet normal -0 0 1
    outer loop
      vertex 7.763 8.802 0
      vertex 6.452 9.47 0
      vertex 5 7.2 0
    endloop
  endfacet
  facet normal -0 0 1
    outer loop
      vertex 6.452 9.47 0
      vertex 5 9.7 0
      vertex 5 7.2 0
    endloop
  endfacet
  facet normal 0 0 1
    outer loop
      vertex 52.908 4.32 0
      vertex 52.8 5 0
      vertex 50.53 6.452 0
    endloop
  endfacet
  facet normal -0 -0 1
    outer loop
      vertex 5 52.8 0
      vertex 4.32 52.908 0
      vertex 6.452 50.53 0
    endloop
  endfacet
  facet normal -0 0 1
    outer loop
      vertex 4.32 57.092 0
      vertex 0 57.8 0
      vertex 3.707 56.78 0
    endloop
  endfacet
  facet normal -0 0 1
    outer loop
      vertex 5 57.2 0
      vertex 0 57.8 0
      vertex 4.32 57.092 0
    endloop
  endfacet
  facet normal 0 0 1
    outer loop
      vertex 5.68 57.092 0
      vertex 6.293 56.78 0
      vertex 9.7 57.2 0
    endloop
  endfacet
  facet normal -0 0 1
    outer loop
      vertex 9.7 57.2 0
      vertex 0 57.8 0
      vertex 5 57.2 0
    endloop
  endfacet
  facet normal 0 0 1
    outer loop
      vertex 6.78 56.293 0
      vertex 7.092 55.68 0
      vertex 9.7 55 0
    endloop
  endfacet
  facet normal 0 0 1
    outer loop
      vertex 9.7 57.2 0
      vertex 6.293 56.78 0
      vertex 9.7 55 0
    endloop
  endfacet
  facet normal 0 0 1
    outer loop
      vertex 6.293 56.78 0
      vertex 6.78 56.293 0
      vertex 9.7 55 0
    endloop
  endfacet
  facet normal -0 0 1
    outer loop
      vertex 9.7 55 0
      vertex 7.092 55.68 0
      vertex 9.47 53.548 0
    endloop
  endfacet
  facet normal 0 0 1
    outer loop
      vertex 5 57.2 0
      vertex 5.68 57.092 0
      vertex 9.7 57.2 0
    endloop
  endfacet
  facet normal 0 0 1
    outer loop
      vertex 7.092 55.68 0
      vertex 7.2 55 0
      vertex 9.47 53.548 0
    endloop
  endfacet
  facet normal 0 -0 1
    outer loop
      vertex 7.2 55 0
      vertex 7.092 54.32 0
      vertex 9.47 53.548 0
    endloop
  endfacet
  facet normal -0 0 1
    outer loop
      vertex 9.47 53.548 0
      vertex 7.092 54.32 0
      vertex 8.802 52.237 0
    endloop
  endfacet
  facet normal 0 -0 1
    outer loop
      vertex 7.092 54.32 0
      vertex 6.78 53.707 0
      vertex 8.802 52.237 0
    endloop
  endfacet
  facet normal -0 0 1
    outer loop
      vertex 8.802 52.237 0
      vertex 6.293 53.22 0
      vertex 7.763 51.198 0
    endloop
  endfacet
  facet normal 0 0 1
    outer loop
      vertex 2.908 55.68 0
      vertex 3.22 56.293 0
      vertex 0 57.8 0
    endloop
  endfacet
  facet normal -0 -0 1
    outer loop
      vertex 3.707 53.22 0
      vertex 3.22 53.707 0
      vertex 5 50.3 0
    endloop
  endfacet
  facet normal 0 0 1
    outer loop
      vertex 2.8 55 0
      vertex 2.908 55.68 0
      vertex 0 57.8 0
    endloop
  endfacet
  facet normal -0 0 1
    outer loop
      vertex 6.452 50.53 0
      vertex 3.707 53.22 0
      vertex 5 50.3 0
    endloop
  endfacet
  facet normal 0 0 1
    outer loop
      vertex 53.707 3.22 0
      vertex 53.22 3.707 0
      vertex 50.3 5 0
    endloop
  endfacet
  facet normal -0 -0 1
    outer loop
      vertex 2.908 54.32 0
      vertex 0 57.8 0
      vertex 3.22 53.707 0
    endloop
  endfacet
  facet normal 0 0 1
    outer loop
      vertex 53.22 3.707 0
      vertex 52.908 4.32 0
      vertex 50.3 5 0
    endloop
  endfacet
  facet normal 0 0 1
    outer loop
      vertex 52.8 5 0
      vertex 52.908 5.68 0
      vertex 51.198 7.763 0
    endloop
  endfacet
  facet normal 0 -0 1
    outer loop
      vertex 50.3 2.8 0
      vertex 9.7 2.8 0
      vertex 57.8 0 0
    endloop
  endfacet
  facet normal -0 -0 1
    outer loop
      vertex 55 2.8 0
      vertex 54.32 2.908 0
      vertex 57.8 0 0
    endloop
  endfacet
  facet normal 0 -0 1
    outer loop
      vertex 50.3 57.2 0
      vertex 50.3 55 0
      vertex 53.22 56.293 0
    endloop
  endfacet
  facet normal 0 -0 1
    outer loop
      vertex 56.78 3.707 0
      vertex 56.293 3.22 0
      vertex 59.58 0.907 0
    endloop
  endfacet
  facet normal 0 0 1
    outer loop
      vertex 55.68 57.092 0
      vertex 56.293 56.78 0
      vertex 60 57.8 0
    endloop
  endfacet
  facet normal 0 -0 1
    outer loop
      vertex 57.2 5 0
      vertex 57.092 4.32 0
      vertex 60 2.2 0
    endloop
  endfacet
  facet normal 0 0 1
    outer loop
      vertex 56.78 6.293 0
      vertex 57.092 5.68 0
      vertex 60 2.2 0
    endloop
  endfacet
  facet normal 0 0 1
    outer loop
      vertex 57.092 4.32 0
      vertex 59.58 0.907 0
      vertex 59.892 1.52 0
    endloop
  endfacet
  facet normal 0 -0 1
    outer loop
      vertex 55 9.7 0
      vertex 53.548 9.47 0
      vertex 55.68 7.092 0
    endloop
  endfacet
  facet normal 0 0 1
    outer loop
      vertex 55 9.7 0
      vertex 55.68 7.092 0
      vertex 56.293 6.78 0
    endloop
  endfacet
  facet normal 0 0 1
    outer loop
      vertex 55 9.7 0
      vertex 56.78 6.293 0
      vertex 60 2.2 0
    endloop
  endfacet
  facet normal 0 0 1
    outer loop
      vertex 55 9.7 0
      vertex 56.293 6.78 0
      vertex 56.78 6.293 0
    endloop
  endfacet
  facet normal 0 0 1
    outer loop
      vertex 52.237 8.802 0
      vertex 53.22 6.293 0
      vertex 53.707 6.78 0
    endloop
  endfacet
  facet normal -0 0 1
    outer loop
      vertex 60 2.2 0
      vertex 57.092 4.32 0
      vertex 59.892 1.52 0
    endloop
  endfacet
  facet normal 0 0 1
    outer loop
      vertex 55 7.2 0
      vertex 55.68 7.092 0
      vertex 53.548 9.47 0
    endloop
  endfacet
  facet normal 0 0 1
    outer loop
      vertex 50.3 57.2 0
      vertex 53.707 56.78 0
      vertex 54.32 57.092 0
    endloop
  endfacet
  facet normal -0 0 1
    outer loop
      vertex 59.58 0.907 0
      vertex 56.293 3.22 0
      vertex 59.093 0.42 0
    endloop
  endfacet
  facet normal 0 -0 1
    outer loop
      vertex 56.293 3.22 0
      vertex 55.68 2.908 0
      vertex 58.48 0.108 0
    endloop
  endfacet
  facet normal 0 0 1
    outer loop
      vertex 53.707 6.78 0
      vertex 54.32 7.092 0
      vertex 52.237 8.802 0
    endloop
  endfacet
  facet normal -0 0 1
    outer loop
      vertex 58.48 0.108 0
      vertex 55 2.8 0
      vertex 57.8 0 0
    endloop
  endfacet
  facet normal 0 0 1
    outer loop
      vertex 57.8 0 0
      vertex 53.707 3.22 0
      vertex 50.3 5 0
    endloop
  endfacet
  facet normal 0 0 1
    outer loop
      vertex 57.8 0 0
      vertex 54.32 2.908 0
      vertex 53.707 3.22 0
    endloop
  endfacet
  facet normal -0 0 1
    outer loop
      vertex 53.22 53.707 0
      vertex 52.908 54.32 0
      vertex 51.198 52.237 0
    endloop
  endfacet
  facet normal 0 -0 1
    outer loop
      vertex 52.8 55 0
      vertex 50.3 55 0
      vertex 52.908 54.32 0
    endloop
  endfacet
  facet normal 0 0 1
    outer loop
      vertex 52.908 55.68 0
      vertex 50.3 55 0
      vertex 52.8 55 0
    endloop
  endfacet
  facet normal 0 0 1
    outer loop
      vertex 55 57.2 0
      vertex 55.68 57.092 0
      vertex 60 57.8 0
    endloop
  endfacet
  facet normal 0 0 1
    outer loop
      vertex 50.53 53.548 0
      vertex 51.198 52.237 0
      vertex 50.3 55 0
    endloop
  endfacet
  facet normal 0 -0 1
    outer loop
      vertex 57.2 50.3 0
      vertex 57.2 9.7 0
      vertex 60 2.2 0
    endloop
  endfacet
  facet normal 0 0 1
    outer loop
      vertex 56.293 56.78 0
      vertex 56.78 56.293 0
      vertex 60 57.8 0
    endloop
  endfacet
  facet normal 0 -0 1
    outer loop
      vertex 57.2 55 0
      vertex 57.092 54.32 0
      vertex 60 57.8 0
    endloop
  endfacet
  facet normal -0 0 1
    outer loop
      vertex 53.707 53.22 0
      vertex 53.22 53.707 0
      vertex 51.198 52.237 0
    endloop
  endfacet
  facet normal 0 0 1
    outer loop
      vertex 56.293 53.22 0
      vertex 55.68 52.908 0
      vertex 53.548 50.53 0
    endloop
  endfacet
  facet normal 0 0 1
    outer loop
      vertex 60 57.8 0
      vertex 56.78 53.707 0
      vertex 55 50.3 0
    endloop
  endfacet
  facet normal 0 0 1
    outer loop
      vertex 60 57.8 0
      vertex 57.092 54.32 0
      vertex 56.78 53.707 0
    endloop
  endfacet
  facet normal 0 0 1
    outer loop
      vertex 55.68 52.908 0
      vertex 55 52.8 0
      vertex 53.548 50.53 0
    endloop
  endfacet
  facet normal 0 0 1
    outer loop
      vertex 56.78 53.707 0
      vertex 56.293 53.22 0
      vertex 55 50.3 0
    endloop
  endfacet
  facet normal -0 0 1
    outer loop
      vertex 54.32 52.908 0
      vertex 53.707 53.22 0
      vertex 52.237 51.198 0
    endloop
  endfacet
  facet normal -0 0 1
    outer loop
      vertex 55 52.8 0
      vertex 54.32 52.908 0
      vertex 52.237 51.198 0
    endloop
  endfacet
  facet normal 0 0 1
    outer loop
      vertex 57.092 55.68 0
      vertex 57.2 55 0
      vertex 60 57.8 0
    endloop
  endfacet
  facet normal 0 0 1
    outer loop
      vertex 2.8 5 0
      vertex 2.908 5.68 0
      vertex 0 57.8 0
    endloop
  endfacet
  facet normal 0 0 1
    outer loop
      vertex 5.68 7.092 0
      vertex 6.293 6.78 0
      vertex 9.47 6.452 0
    endloop
  endfacet
  facet normal 0 0 1
    outer loop
      vertex 5 9.7 0
      vertex 3.707 6.78 0
      vertex 4.32 7.092 0
    endloop
  endfacet
  facet normal 0 0 1
    outer loop
      vertex 5 9.7 0
      vertex 3.22 6.293 0
      vertex 3.707 6.78 0
    endloop
  endfacet
  facet normal 0 0 1
    outer loop
      vertex 5 9.7 0
      vertex 2.8 9.7 0
      vertex 3.22 6.293 0
    endloop
  endfacet
  facet normal 0 0 1
    outer loop
      vertex 2.908 54.32 0
      vertex 2.8 55 0
      vertex 0 57.8 0
    endloop
  endfacet
  facet normal 0 0 1
    outer loop
      vertex 9.7 5 0
      vertex 9.47 6.452 0
      vertex 6.293 6.78 0
    endloop
  endfacet
  facet normal -0 0 1
    outer loop
      vertex 52.908 55.68 0
      vertex 53.22 56.293 0
      vertex 50.3 55 0
    endloop
  endfacet
  facet normal 0 0 1
    outer loop
      vertex 9.7 5 0
      vertex 6.293 6.78 0
      vertex 6.78 6.293 0
    endloop
  endfacet
  facet normal 0 0 1
    outer loop
      vertex 9.7 5 0
      vertex 6.78 6.293 0
      vertex 7.092 5.68 0
    endloop
  endfacet
  facet normal 0 -0 1
    outer loop
      vertex 6.78 53.707 0
      vertex 6.293 53.22 0
      vertex 8.802 52.237 0
    endloop
  endfacet
  facet normal 0 0 1
    outer loop
      vertex 6.452 50.53 0
      vertex 5.68 52.908 0
      vertex 5 52.8 0
    endloop
  endfacet
  facet normal 0 0 1
    outer loop
      vertex 6.452 50.53 0
      vertex 7.763 51.198 0
      vertex 5.68 52.908 0
    endloop
  endfacet
  facet normal -0.891206 -0.453599 -0
    outer loop
      vertex 0.108 1.52 -29
      vertex 0.42 0.907 -29
      vertex 0.108 1.52 0
    endloop
  endfacet
  facet normal -0.891206 -0.453599 1.54567e-018
    outer loop
      vertex 0.108 1.52 0
      vertex 0.42 0.907 -29
      vertex 0.42 0.907 0
    endloop
  endfacet
  facet normal -0.707107 -0.707107 0
    outer loop
      vertex 0.42 0.907 0
      vertex 0.42 0.907 -29
      vertex 0.907 0.42 -29
    endloop
  endfacet
  facet normal -0.707107 -0.707107 0
    outer loop
      vertex 0.907 0.42 0
      vertex 0.42 0.907 0
      vertex 0.907 0.42 -29
    endloop
  endfacet
  facet normal -0.453599 -0.891206 0
    outer loop
      vertex 0.907 0.42 0
      vertex 0.907 0.42 -29
      vertex 1.52 0.108 -29
    endloop
  endfacet
  facet normal -0.453599 -0.891206 0
    outer loop
      vertex 1.52 0.108 0
      vertex 0.907 0.42 0
      vertex 1.52 0.108 -29
    endloop
  endfacet
  facet normal -0.156857 -0.987621 0
    outer loop
      vertex 1.52 0.108 0
      vertex 1.52 0.108 -29
      vertex 2.2 0 -29
    endloop
  endfacet
  facet normal -0.156857 -0.987621 0
    outer loop
      vertex 2.2 0 0
      vertex 1.52 0.108 0
      vertex 2.2 0 -29
    endloop
  endfacet
  facet normal 0 -1 0
    outer loop
      vertex 2.2 0 0
      vertex 2.2 0 -29
      vertex 57.8 0 -29
    endloop
  endfacet
  facet normal 0 -1 0
    outer loop
      vertex 57.8 0 0
      vertex 2.2 0 0
      vertex 57.8 0 -29
    endloop
  endfacet
  facet normal 6.66134e-015 -4.19418e-014 -1.17839e-017
    outer loop
      vertex 58 0.0317647 -29
      vertex 57.8 0 -29
      vertex 58.48 0.108 -29
    endloop
  endfacet
  facet normal 0.156857 -0.987621 0
    outer loop
      vertex 57.8 0 0
      vertex 57.8 0 -29
      vertex 58 0.0317647 -29
    endloop
  endfacet
  facet normal 0.156857 -0.987621 1.77092e-019
    outer loop
      vertex 58 0.0317647 -14.5
      vertex 58.48 0.108 -14.5
      vertex 57.8 0 0
    endloop
  endfacet
  facet normal 0.156857 -0.987621 0
    outer loop
      vertex 57.8 0 0
      vertex 58 0.0317647 -29
      vertex 58 0.0317647 -14.5
    endloop
  endfacet
  facet normal 0.156857 -0.987621 0
    outer loop
      vertex 58.48 0.108 0
      vertex 57.8 0 0
      vertex 58.48 0.108 -14.5
    endloop
  endfacet
  facet normal 0.156857 0.987621 0
    outer loop
      vertex 58.48 59.892 -14.5
      vertex 57.8 60 0
      vertex 58.48 59.892 0
    endloop
  endfacet
  facet normal 0.156857 0.987621 0
    outer loop
      vertex 57.8 60 -29
      vertex 57.8 60 0
      vertex 58 59.9682 -14.5
    endloop
  endfacet
  facet normal 0.156857 0.987621 0
    outer loop
      vertex 57.8 60 -29
      vertex 58 59.9682 -14.5
      vertex 58 59.9682 -29
    endloop
  endfacet
  facet normal 8.29786e-016 5.22458e-015 7.3042e-015
    outer loop
      vertex 57.8 60 -29
      vertex 58 59.9682 -29
      vertex 58.48 59.892 -29
    endloop
  endfacet
  facet normal 0.156857 0.987621 -4.79052e-016
    outer loop
      vertex 58 59.9682 -14.5
      vertex 57.8 60 0
      vertex 58.48 59.892 -14.5
    endloop
  endfacet
  facet normal 0 1 0
    outer loop
      vertex 2.2 60 -29
      vertex 2.2 60 0
      vertex 57.8 60 -29
    endloop
  endfacet
  facet normal 0 1 0
    outer loop
      vertex 57.8 60 -29
      vertex 2.2 60 0
      vertex 57.8 60 0
    endloop
  endfacet
  facet normal -0.156857 0.987621 0
    outer loop
      vertex 1.52 59.892 -29
      vertex 1.52 59.892 0
      vertex 2.2 60 -29
    endloop
  endfacet
  facet normal -0.156857 0.987621 0
    outer loop
      vertex 2.2 60 -29
      vertex 1.52 59.892 0
      vertex 2.2 60 0
    endloop
  endfacet
  facet normal -0.453599 0.891206 0
    outer loop
      vertex 0.907 59.58 -29
      vertex 0.907 59.58 0
      vertex 1.52 59.892 -29
    endloop
  endfacet
  facet normal -0.453599 0.891206 0
    outer loop
      vertex 1.52 59.892 -29
      vertex 0.907 59.58 0
      vertex 1.52 59.892 0
    endloop
  endfacet
  facet normal -0.707107 0.707107 0
    outer loop
      vertex 0.42 59.093 -29
      vertex 0.42 59.093 0
      vertex 0.907 59.58 -29
    endloop
  endfacet
  facet normal -0.707107 0.707107 0
    outer loop
      vertex 0.907 59.58 -29
      vertex 0.42 59.093 0
      vertex 0.907 59.58 0
    endloop
  endfacet
  facet normal -0.891206 0.453599 0
    outer loop
      vertex 0.108 58.48 -29
      vertex 0.108 58.48 0
      vertex 0.42 59.093 -29
    endloop
  endfacet
  facet normal -0.891206 0.453599 0
    outer loop
      vertex 0.42 59.093 -29
      vertex 0.108 58.48 0
      vertex 0.42 59.093 0
    endloop
  endfacet
  facet normal -0.987621 0.156857 0
    outer loop
      vertex 0 57.8 -29
      vertex 0 57.8 0
      vertex 0.108 58.48 -29
    endloop
  endfacet
  facet normal -0.987621 0.156857 0
    outer loop
      vertex 0.108 58.48 -29
      vertex 0 57.8 0
      vertex 0.108 58.48 0
    endloop
  endfacet
  facet normal 0.453599 0.891206 0
    outer loop
      vertex 58.48 59.892 -14.5
      vertex 58.48 59.892 0
      vertex 59.093 59.58 -14.5
    endloop
  endfacet
  facet normal 0.453599 0.891206 0
    outer loop
      vertex 59.093 59.58 -14.5
      vertex 58.48 59.892 0
      vertex 59.093 59.58 0
    endloop
  endfacet
  facet normal 0.707107 0.707107 0
    outer loop
      vertex 59.093 59.58 -14.5
      vertex 59.093 59.58 0
      vertex 59.58 59.093 -14.5
    endloop
  endfacet
  facet normal 0.707107 0.707107 0
    outer loop
      vertex 59.58 59.093 -14.5
      vertex 59.093 59.58 0
      vertex 59.58 59.093 0
    endloop
  endfacet
  facet normal 0.891206 0.453599 0
    outer loop
      vertex 59.892 58.48 -14.5
      vertex 59.58 59.093 -14.5
      vertex 59.58 59.093 0
    endloop
  endfacet
  facet normal 0.891206 0.453599 -0
    outer loop
      vertex 59.892 58.48 0
      vertex 59.892 58.48 -14.5
      vertex 59.58 59.093 0
    endloop
  endfacet
  facet normal 0.987621 0.156857 0
    outer loop
      vertex 60 57.8 -14.5
      vertex 59.892 58.48 -14.5
      vertex 59.892 58.48 0
    endloop
  endfacet
  facet normal 0.987621 0.156857 -0
    outer loop
      vertex 60 57.8 0
      vertex 60 57.8 -14.5
      vertex 59.892 58.48 0
    endloop
  endfacet
  facet normal 1 0 -0
    outer loop
      vertex 60 2.2 0
      vertex 60 2.2 -14.5
      vertex 60 57.8 -14.5
    endloop
  endfacet
  facet normal 1 0 0
    outer loop
      vertex 60 57.8 0
      vertex 60 2.2 0
      vertex 60 57.8 -14.5
    endloop
  endfacet
  facet normal 0.987621 -0.156857 0
    outer loop
      vertex 59.892 1.52 0
      vertex 59.892 1.52 -14.5
      vertex 60 2.2 -14.5
    endloop
  endfacet
  facet normal 0.987621 -0.156857 0
    outer loop
      vertex 60 2.2 0
      vertex 59.892 1.52 0
      vertex 60 2.2 -14.5
    endloop
  endfacet
  facet normal 0.891206 -0.453599 0
    outer loop
      vertex 59.58 0.907 0
      vertex 59.58 0.907 -14.5
      vertex 59.892 1.52 -14.5
    endloop
  endfacet
  facet normal 0.891206 -0.453599 0
    outer loop
      vertex 59.892 1.52 0
      vertex 59.58 0.907 0
      vertex 59.892 1.52 -14.5
    endloop
  endfacet
  facet normal 0.707107 -0.707107 0
    outer loop
      vertex 59.093 0.42 0
      vertex 59.093 0.42 -14.5
      vertex 59.58 0.907 -14.5
    endloop
  endfacet
  facet normal 0.707107 -0.707107 0
    outer loop
      vertex 59.58 0.907 0
      vertex 59.093 0.42 0
      vertex 59.58 0.907 -14.5
    endloop
  endfacet
  facet normal 0.453599 -0.891206 0
    outer loop
      vertex 58.48 0.108 0
      vertex 58.48 0.108 -14.5
      vertex 59.093 0.42 -14.5
    endloop
  endfacet
  facet normal 0.453599 -0.891206 0
    outer loop
      vertex 59.093 0.42 0
      vertex 58.48 0.108 0
      vertex 59.093 0.42 -14.5
    endloop
  endfacet
  facet normal 0.987621 0.156857 0
    outer loop
      vertex 2.908 4.32 -26.2
      vertex 2.8 5 -26.2
      vertex 2.8 5 0
    endloop
  endfacet
  facet normal 0.987621 0.156857 -0
    outer loop
      vertex 2.908 4.32 0
      vertex 2.908 4.32 -26.2
      vertex 2.8 5 0
    endloop
  endfacet
  facet normal 0.891206 0.453599 0
    outer loop
      vertex 3.22 3.707 -26.2
      vertex 2.908 4.32 -26.2
      vertex 2.908 4.32 0
    endloop
  endfacet
  facet normal 0.891206 0.453599 -0
    outer loop
      vertex 3.22 3.707 0
      vertex 3.22 3.707 -26.2
      vertex 2.908 4.32 0
    endloop
  endfacet
  facet normal 0.707107 0.707107 0
    outer loop
      vertex 3.22 3.707 -26.2
      vertex 3.22 3.707 0
      vertex 3.707 3.22 -26.2
    endloop
  endfacet
  facet normal 0.707107 0.707107 0
    outer loop
      vertex 3.707 3.22 -26.2
      vertex 3.22 3.707 0
      vertex 3.707 3.22 0
    endloop
  endfacet
  facet normal 0.453599 0.891206 0
    outer loop
      vertex 3.707 3.22 -26.2
      vertex 3.707 3.22 0
      vertex 4.32 2.908 -26.2
    endloop
  endfacet
  facet normal 0.453599 0.891206 0
    outer loop
      vertex 4.32 2.908 -26.2
      vertex 3.707 3.22 0
      vertex 4.32 2.908 0
    endloop
  endfacet
  facet normal 0.156857 0.987621 0
    outer loop
      vertex 4.32 2.908 -26.2
      vertex 4.32 2.908 0
      vertex 5 2.8 -26.2
    endloop
  endfacet
  facet normal 0.156857 0.987621 0
    outer loop
      vertex 5 2.8 -26.2
      vertex 4.32 2.908 0
      vertex 5 2.8 0
    endloop
  endfacet
  facet normal -0.156857 0.987621 0
    outer loop
      vertex 5 2.8 -26.2
      vertex 5 2.8 0
      vertex 5.68 2.908 -26.2
    endloop
  endfacet
  facet normal -0.156857 0.987621 0
    outer loop
      vertex 5.68 2.908 -26.2
      vertex 5 2.8 0
      vertex 5.68 2.908 0
    endloop
  endfacet
  facet normal -0.453599 0.891206 0
    outer loop
      vertex 5.68 2.908 -26.2
      vertex 5.68 2.908 0
      vertex 6.293 3.22 -26.2
    endloop
  endfacet
  facet normal -0.453599 0.891206 0
    outer loop
      vertex 6.293 3.22 -26.2
      vertex 5.68 2.908 0
      vertex 6.293 3.22 0
    endloop
  endfacet
  facet normal -0.707107 0.707107 0
    outer loop
      vertex 6.293 3.22 -26.2
      vertex 6.293 3.22 0
      vertex 6.78 3.707 -26.2
    endloop
  endfacet
  facet normal -0.707107 0.707107 0
    outer loop
      vertex 6.78 3.707 -26.2
      vertex 6.293 3.22 0
      vertex 6.78 3.707 0
    endloop
  endfacet
  facet normal -0.891206 0.453599 0
    outer loop
      vertex 6.78 3.707 -26.2
      vertex 6.78 3.707 0
      vertex 7.092 4.32 -26.2
    endloop
  endfacet
  facet normal -0.891206 0.453599 0
    outer loop
      vertex 7.092 4.32 -26.2
      vertex 6.78 3.707 0
      vertex 7.092 4.32 0
    endloop
  endfacet
  facet normal -0.987621 0.156857 0
    outer loop
      vertex 7.092 4.32 -26.2
      vertex 7.092 4.32 0
      vertex 7.2 5 -26.2
    endloop
  endfacet
  facet normal -0.987621 0.156857 0
    outer loop
      vertex 7.2 5 -26.2
      vertex 7.092 4.32 0
      vertex 7.2 5 0
    endloop
  endfacet
  facet normal -0.987621 -0.156857 -0
    outer loop
      vertex 7.092 5.68 -26.2
      vertex 7.2 5 -26.2
      vertex 7.092 5.68 0
    endloop
  endfacet
  facet normal -0.987621 -0.156857 0
    outer loop
      vertex 7.092 5.68 0
      vertex 7.2 5 -26.2
      vertex 7.2 5 0
    endloop
  endfacet
  facet normal -0.891206 -0.453599 -0
    outer loop
      vertex 6.78 6.293 -26.2
      vertex 7.092 5.68 -26.2
      vertex 6.78 6.293 0
    endloop
  endfacet
  facet normal -0.891206 -0.453599 0
    outer loop
      vertex 6.78 6.293 0
      vertex 7.092 5.68 -26.2
      vertex 7.092 5.68 0
    endloop
  endfacet
  facet normal -0.707107 -0.707107 0
    outer loop
      vertex 6.293 6.78 0
      vertex 6.293 6.78 -26.2
      vertex 6.78 6.293 -26.2
    endloop
  endfacet
  facet normal -0.707107 -0.707107 0
    outer loop
      vertex 6.78 6.293 0
      vertex 6.293 6.78 0
      vertex 6.78 6.293 -26.2
    endloop
  endfacet
  facet normal -0.453599 -0.891206 0
    outer loop
      vertex 5.68 7.092 0
      vertex 5.68 7.092 -26.2
      vertex 6.293 6.78 -26.2
    endloop
  endfacet
  facet normal -0.453599 -0.891206 0
    outer loop
      vertex 6.293 6.78 0
      vertex 5.68 7.092 0
      vertex 6.293 6.78 -26.2
    endloop
  endfacet
  facet normal -0.156857 -0.987621 0
    outer loop
      vertex 5 7.2 0
      vertex 5 7.2 -26.2
      vertex 5.68 7.092 -26.2
    endloop
  endfacet
  facet normal -0.156857 -0.987621 0
    outer loop
      vertex 5.68 7.092 0
      vertex 5 7.2 0
      vertex 5.68 7.092 -26.2
    endloop
  endfacet
  facet normal 0.156857 -0.987621 0
    outer loop
      vertex 4.32 7.092 0
      vertex 4.32 7.092 -26.2
      vertex 5 7.2 -26.2
    endloop
  endfacet
  facet normal 0.156857 -0.987621 0
    outer loop
      vertex 5 7.2 0
      vertex 4.32 7.092 0
      vertex 5 7.2 -26.2
    endloop
  endfacet
  facet normal 0.453599 -0.891206 0
    outer loop
      vertex 3.707 6.78 0
      vertex 3.707 6.78 -26.2
      vertex 4.32 7.092 -26.2
    endloop
  endfacet
  facet normal 0.453599 -0.891206 0
    outer loop
      vertex 4.32 7.092 0
      vertex 3.707 6.78 0
      vertex 4.32 7.092 -26.2
    endloop
  endfacet
  facet normal 0.707107 -0.707107 0
    outer loop
      vertex 3.22 6.293 0
      vertex 3.22 6.293 -26.2
      vertex 3.707 6.78 -26.2
    endloop
  endfacet
  facet normal 0.707107 -0.707107 0
    outer loop
      vertex 3.707 6.78 0
      vertex 3.22 6.293 0
      vertex 3.707 6.78 -26.2
    endloop
  endfacet
  facet normal 0.891206 -0.453599 0
    outer loop
      vertex 2.908 5.68 0
      vertex 2.908 5.68 -26.2
      vertex 3.22 6.293 -26.2
    endloop
  endfacet
  facet normal 0.891206 -0.453599 0
    outer loop
      vertex 3.22 6.293 0
      vertex 2.908 5.68 0
      vertex 3.22 6.293 -26.2
    endloop
  endfacet
  facet normal 0.987621 -0.156857 0
    outer loop
      vertex 2.8 5 0
      vertex 2.8 5 -26.2
      vertex 2.908 5.68 -26.2
    endloop
  endfacet
  facet normal 0.987621 -0.156857 0
    outer loop
      vertex 2.908 5.68 0
      vertex 2.8 5 0
      vertex 2.908 5.68 -26.2
    endloop
  endfacet
  facet normal 0 1 0
    outer loop
      vertex 2.8 9.7 -26.2
      vertex 2.8 9.7 0
      vertex 5 9.7 -26.2
    endloop
  endfacet
  facet normal 0 1 0
    outer loop
      vertex 5 9.7 -26.2
      vertex 2.8 9.7 0
      vertex 5 9.7 0
    endloop
  endfacet
  facet normal 1 0 -0
    outer loop
      vertex 2.8 9.7 0
      vertex 2.8 9.7 -26.2
      vertex 2.8 50.3 -26.2
    endloop
  endfacet
  facet normal 1 0 0
    outer loop
      vertex 2.8 50.3 0
      vertex 2.8 9.7 0
      vertex 2.8 50.3 -26.2
    endloop
  endfacet
  facet normal 0.156452 0.987686 0
    outer loop
      vertex 5 9.7 -26.2
      vertex 5 9.7 0
      vertex 6.452 9.47 -26.2
    endloop
  endfacet
  facet normal 0.156452 0.987686 0
    outer loop
      vertex 6.452 9.47 -26.2
      vertex 5 9.7 0
      vertex 6.452 9.47 0
    endloop
  endfacet
  facet normal 0.453997 0.891003 0
    outer loop
      vertex 6.452 9.47 -26.2
      vertex 6.452 9.47 0
      vertex 7.763 8.802 -26.2
    endloop
  endfacet
  facet normal 0.453997 0.891003 0
    outer loop
      vertex 7.763 8.802 -26.2
      vertex 6.452 9.47 0
      vertex 7.763 8.802 0
    endloop
  endfacet
  facet normal 0.707107 0.707107 0
    outer loop
      vertex 7.763 8.802 -26.2
      vertex 7.763 8.802 0
      vertex 8.802 7.763 -26.2
    endloop
  endfacet
  facet normal 0.707107 0.707107 0
    outer loop
      vertex 8.802 7.763 -26.2
      vertex 7.763 8.802 0
      vertex 8.802 7.763 0
    endloop
  endfacet
  facet normal 0.891003 0.453997 0
    outer loop
      vertex 9.47 6.452 -26.2
      vertex 8.802 7.763 -26.2
      vertex 8.802 7.763 0
    endloop
  endfacet
  facet normal 0.891003 0.453997 -0
    outer loop
      vertex 9.47 6.452 0
      vertex 9.47 6.452 -26.2
      vertex 8.802 7.763 0
    endloop
  endfacet
  facet normal 0.987686 0.156452 0
    outer loop
      vertex 9.7 5 -26.2
      vertex 9.47 6.452 -26.2
      vertex 9.47 6.452 0
    endloop
  endfacet
  facet normal 0.987686 0.156452 -0
    outer loop
      vertex 9.7 5 0
      vertex 9.7 5 -26.2
      vertex 9.47 6.452 0
    endloop
  endfacet
  facet normal 1 0 -0
    outer loop
      vertex 9.7 2.8 0
      vertex 9.7 2.8 -26.2
      vertex 9.7 5 -26.2
    endloop
  endfacet
  facet normal 1 0 0
    outer loop
      vertex 9.7 5 0
      vertex 9.7 2.8 0
      vertex 9.7 5 -26.2
    endloop
  endfacet
  facet normal 0 1 0
    outer loop
      vertex 9.7 2.8 -26.2
      vertex 9.7 2.8 0
      vertex 30 2.8 -26.2
    endloop
  endfacet
  facet normal 0 1 0
    outer loop
      vertex 30 2.8 -20.1
      vertex 9.7 2.8 0
      vertex 50.3 2.8 0
    endloop
  endfacet
  facet normal 0 1 0
    outer loop
      vertex 30 2.8 -26.2
      vertex 9.7 2.8 0
      vertex 30 2.8 -20.1
    endloop
  endfacet
  facet normal 0 1 0
    outer loop
      vertex 30 2.8 -20.1
      vertex 50.3 2.8 0
      vertex 50.3 2.8 -20.1
    endloop
  endfacet
  facet normal -1 -0 -0
    outer loop
      vertex 50.3 2.8 -20.1
      vertex 50.3 2.8 0
      vertex 50.3 5 -20.1
    endloop
  endfacet
  facet normal -1 0 0
    outer loop
      vertex 50.3 5 -20.1
      vertex 50.3 2.8 0
      vertex 50.3 5 0
    endloop
  endfacet
  facet normal -0.987686 0.156452 0
    outer loop
      vertex 50.3 5 -20.1
      vertex 50.3 5 0
      vertex 50.53 6.452 -20.1
    endloop
  endfacet
  facet normal -0.987686 0.156452 0
    outer loop
      vertex 50.53 6.452 -20.1
      vertex 50.3 5 0
      vertex 50.53 6.452 0
    endloop
  endfacet
  facet normal -0.891003 0.453997 0
    outer loop
      vertex 50.53 6.452 -20.1
      vertex 50.53 6.452 0
      vertex 51.198 7.763 -20.1
    endloop
  endfacet
  facet normal -0.891003 0.453997 0
    outer loop
      vertex 51.198 7.763 -20.1
      vertex 50.53 6.452 0
      vertex 51.198 7.763 0
    endloop
  endfacet
  facet normal -0.707107 0.707107 0
    outer loop
      vertex 51.198 7.763 -20.1
      vertex 51.198 7.763 0
      vertex 52.237 8.802 -20.1
    endloop
  endfacet
  facet normal -0.707107 0.707107 0
    outer loop
      vertex 52.237 8.802 -20.1
      vertex 51.198 7.763 0
      vertex 52.237 8.802 0
    endloop
  endfacet
  facet normal -0.453997 0.891003 0
    outer loop
      vertex 52.237 8.802 -20.1
      vertex 52.237 8.802 0
      vertex 53.548 9.47 -20.1
    endloop
  endfacet
  facet normal -0.453997 0.891003 0
    outer loop
      vertex 53.548 9.47 -20.1
      vertex 52.237 8.802 0
      vertex 53.548 9.47 0
    endloop
  endfacet
  facet normal -0.156452 0.987686 0
    outer loop
      vertex 53.548 9.47 -20.1
      vertex 53.548 9.47 0
      vertex 55 9.7 -20.1
    endloop
  endfacet
  facet normal -0.156452 0.987686 0
    outer loop
      vertex 55 9.7 -20.1
      vertex 53.548 9.47 0
      vertex 55 9.7 0
    endloop
  endfacet
  facet normal 0 1 0
    outer loop
      vertex 55 9.7 -20.1
      vertex 55 9.7 0
      vertex 57.2 9.7 -20.1
    endloop
  endfacet
  facet normal 0 1 0
    outer loop
      vertex 57.2 9.7 -20.1
      vertex 55 9.7 0
      vertex 57.2 9.7 0
    endloop
  endfacet
  facet normal -1 -0 -0
    outer loop
      vertex 57.2 9.7 -20.1
      vertex 57.2 9.7 0
      vertex 57.2 19.0667 -20.1
    endloop
  endfacet
  facet normal -1 0 -0
    outer loop
      vertex 57.2 19.0667 -20.1
      vertex 57.2 9.7 0
      vertex 57.2 50.3 0
    endloop
  endfacet
  facet normal -1 -0 0
    outer loop
      vertex 57.2 40.9333 -20.1
      vertex 57.2 50.3 0
      vertex 57.2 50.3 -20.1
    endloop
  endfacet
  facet normal -1 -0 0
    outer loop
      vertex 57.2 19.0667 -20.1
      vertex 57.2 50.3 0
      vertex 57.2 21.8667 -20.1
    endloop
  endfacet
  facet normal -1 0 0
    outer loop
      vertex 57.2 38.1333 -20.1
      vertex 57.2 40.9333 -26.2
      vertex 57.2 38.1333 -26.2
    endloop
  endfacet
  facet normal -1 0 0
    outer loop
      vertex 57.2 40.9333 -20.1
      vertex 57.2 40.9333 -26.2
      vertex 57.2 38.1333 -20.1
    endloop
  endfacet
  facet normal -1 0 -0
    outer loop
      vertex 57.2 40.9333 -20.1
      vertex 57.2 38.1333 -20.1
      vertex 57.2 50.3 0
    endloop
  endfacet
  facet normal -1 0 0
    outer loop
      vertex 57.2 21.8667 -26.2
      vertex 57.2 19.0667 -20.1
      vertex 57.2 21.8667 -20.1
    endloop
  endfacet
  facet normal -1 0 -0
    outer loop
      vertex 57.2 38.1333 -20.1
      vertex 57.2 21.8667 -20.1
      vertex 57.2 50.3 0
    endloop
  endfacet
  facet normal -1 0 0
    outer loop
      vertex 57.2 19.0667 -20.1
      vertex 57.2 21.8667 -26.2
      vertex 57.2 19.0667 -26.2
    endloop
  endfacet
  facet normal 0 -1 0
    outer loop
      vertex 55 50.3 0
      vertex 55 50.3 -20.1
      vertex 57.2 50.3 -20.1
    endloop
  endfacet
  facet normal 0 -1 0
    outer loop
      vertex 57.2 50.3 0
      vertex 55 50.3 0
      vertex 57.2 50.3 -20.1
    endloop
  endfacet
  facet normal -0.156452 -0.987686 0
    outer loop
      vertex 53.548 50.53 0
      vertex 53.548 50.53 -20.1
      vertex 55 50.3 -20.1
    endloop
  endfacet
  facet normal -0.156452 -0.987686 0
    outer loop
      vertex 55 50.3 0
      vertex 53.548 50.53 0
      vertex 55 50.3 -20.1
    endloop
  endfacet
  facet normal -0.453997 -0.891003 0
    outer loop
      vertex 52.237 51.198 0
      vertex 52.237 51.198 -20.1
      vertex 53.548 50.53 -20.1
    endloop
  endfacet
  facet normal -0.453997 -0.891003 0
    outer loop
      vertex 53.548 50.53 0
      vertex 52.237 51.198 0
      vertex 53.548 50.53 -20.1
    endloop
  endfacet
  facet normal -0.707107 -0.707107 0
    outer loop
      vertex 51.198 52.237 0
      vertex 51.198 52.237 -20.1
      vertex 52.237 51.198 -20.1
    endloop
  endfacet
  facet normal -0.707107 -0.707107 0
    outer loop
      vertex 52.237 51.198 0
      vertex 51.198 52.237 0
      vertex 52.237 51.198 -20.1
    endloop
  endfacet
  facet normal -0.891003 -0.453997 -0
    outer loop
      vertex 50.53 53.548 -20.1
      vertex 51.198 52.237 -20.1
      vertex 50.53 53.548 0
    endloop
  endfacet
  facet normal -0.891003 -0.453997 0
    outer loop
      vertex 50.53 53.548 0
      vertex 51.198 52.237 -20.1
      vertex 51.198 52.237 0
    endloop
  endfacet
  facet normal -0.987686 -0.156452 -0
    outer loop
      vertex 50.3 55 -20.1
      vertex 50.53 53.548 -20.1
      vertex 50.3 55 0
    endloop
  endfacet
  facet normal -0.987686 -0.156452 0
    outer loop
      vertex 50.3 55 0
      vertex 50.53 53.548 -20.1
      vertex 50.53 53.548 0
    endloop
  endfacet
  facet normal -1 -0 -0
    outer loop
      vertex 50.3 55 -20.1
      vertex 50.3 55 0
      vertex 50.3 57.2 -20.1
    endloop
  endfacet
  facet normal -1 0 0
    outer loop
      vertex 50.3 57.2 -20.1
      vertex 50.3 55 0
      vertex 50.3 57.2 0
    endloop
  endfacet
  facet normal 0 -1 0
    outer loop
      vertex 9.7 57.2 0
      vertex 9.7 57.2 -26.2
      vertex 30 57.2 -26.2
    endloop
  endfacet
  facet normal 0 -1 0
    outer loop
      vertex 50.3 57.2 -20.1
      vertex 9.7 57.2 0
      vertex 30 57.2 -20.1
    endloop
  endfacet
  facet normal 0 -1 0
    outer loop
      vertex 30 57.2 -20.1
      vertex 9.7 57.2 0
      vertex 30 57.2 -26.2
    endloop
  endfacet
  facet normal 0 -1 0
    outer loop
      vertex 50.3 57.2 0
      vertex 9.7 57.2 0
      vertex 50.3 57.2 -20.1
    endloop
  endfacet
  facet normal 1 0 -0
    outer loop
      vertex 9.7 55 0
      vertex 9.7 55 -26.2
      vertex 9.7 57.2 -26.2
    endloop
  endfacet
  facet normal 1 0 0
    outer loop
      vertex 9.7 57.2 0
      vertex 9.7 55 0
      vertex 9.7 57.2 -26.2
    endloop
  endfacet
  facet normal 0.987686 -0.156452 0
    outer loop
      vertex 9.47 53.548 0
      vertex 9.47 53.548 -26.2
      vertex 9.7 55 -26.2
    endloop
  endfacet
  facet normal 0.987686 -0.156452 0
    outer loop
      vertex 9.7 55 0
      vertex 9.47 53.548 0
      vertex 9.7 55 -26.2
    endloop
  endfacet
  facet normal 0.891003 -0.453997 0
    outer loop
      vertex 8.802 52.237 0
      vertex 8.802 52.237 -26.2
      vertex 9.47 53.548 -26.2
    endloop
  endfacet
  facet normal 0.891003 -0.453997 0
    outer loop
      vertex 9.47 53.548 0
      vertex 8.802 52.237 0
      vertex 9.47 53.548 -26.2
    endloop
  endfacet
  facet normal 0.707107 -0.707107 0
    outer loop
      vertex 7.763 51.198 0
      vertex 7.763 51.198 -26.2
      vertex 8.802 52.237 -26.2
    endloop
  endfacet
  facet normal 0.707107 -0.707107 0
    outer loop
      vertex 8.802 52.237 0
      vertex 7.763 51.198 0
      vertex 8.802 52.237 -26.2
    endloop
  endfacet
  facet normal 0.453997 -0.891003 0
    outer loop
      vertex 6.452 50.53 0
      vertex 6.452 50.53 -26.2
      vertex 7.763 51.198 -26.2
    endloop
  endfacet
  facet normal 0.453997 -0.891003 0
    outer loop
      vertex 7.763 51.198 0
      vertex 6.452 50.53 0
      vertex 7.763 51.198 -26.2
    endloop
  endfacet
  facet normal 0.156452 -0.987686 0
    outer loop
      vertex 5 50.3 0
      vertex 5 50.3 -26.2
      vertex 6.452 50.53 -26.2
    endloop
  endfacet
  facet normal 0.156452 -0.987686 0
    outer loop
      vertex 6.452 50.53 0
      vertex 5 50.3 0
      vertex 6.452 50.53 -26.2
    endloop
  endfacet
  facet normal 0 -1 0
    outer loop
      vertex 2.8 50.3 0
      vertex 2.8 50.3 -26.2
      vertex 5 50.3 -26.2
    endloop
  endfacet
  facet normal 0 -1 0
    outer loop
      vertex 5 50.3 0
      vertex 2.8 50.3 0
      vertex 5 50.3 -26.2
    endloop
  endfacet
  facet normal 0.987621 0.156857 0
    outer loop
      vertex 2.908 54.32 -26.2
      vertex 2.8 55 -26.2
      vertex 2.8 55 0
    endloop
  endfacet
  facet normal 0.987621 0.156857 -0
    outer loop
      vertex 2.908 54.32 0
      vertex 2.908 54.32 -26.2
      vertex 2.8 55 0
    endloop
  endfacet
  facet normal 0.891206 0.453599 0
    outer loop
      vertex 3.22 53.707 -26.2
      vertex 2.908 54.32 -26.2
      vertex 2.908 54.32 0
    endloop
  endfacet
  facet normal 0.891206 0.453599 -0
    outer loop
      vertex 3.22 53.707 0
      vertex 3.22 53.707 -26.2
      vertex 2.908 54.32 0
    endloop
  endfacet
  facet normal 0.707107 0.707107 0
    outer loop
      vertex 3.707 53.22 -26.2
      vertex 3.22 53.707 -26.2
      vertex 3.22 53.707 0
    endloop
  endfacet
  facet normal 0.707107 0.707107 -0
    outer loop
      vertex 3.707 53.22 0
      vertex 3.707 53.22 -26.2
      vertex 3.22 53.707 0
    endloop
  endfacet
  facet normal 0.453599 0.891206 0
    outer loop
      vertex 3.707 53.22 -26.2
      vertex 3.707 53.22 0
      vertex 4.32 52.908 -26.2
    endloop
  endfacet
  facet normal 0.453599 0.891206 0
    outer loop
      vertex 4.32 52.908 -26.2
      vertex 3.707 53.22 0
      vertex 4.32 52.908 0
    endloop
  endfacet
  facet normal 0.156857 0.987621 0
    outer loop
      vertex 4.32 52.908 -26.2
      vertex 4.32 52.908 0
      vertex 5 52.8 -26.2
    endloop
  endfacet
  facet normal 0.156857 0.987621 0
    outer loop
      vertex 5 52.8 -26.2
      vertex 4.32 52.908 0
      vertex 5 52.8 0
    endloop
  endfacet
  facet normal -0.156857 0.987621 0
    outer loop
      vertex 5 52.8 -26.2
      vertex 5 52.8 0
      vertex 5.68 52.908 -26.2
    endloop
  endfacet
  facet normal -0.156857 0.987621 0
    outer loop
      vertex 5.68 52.908 -26.2
      vertex 5 52.8 0
      vertex 5.68 52.908 0
    endloop
  endfacet
  facet normal -0.453599 0.891206 0
    outer loop
      vertex 5.68 52.908 -26.2
      vertex 5.68 52.908 0
      vertex 6.293 53.22 -26.2
    endloop
  endfacet
  facet normal -0.453599 0.891206 0
    outer loop
      vertex 6.293 53.22 -26.2
      vertex 5.68 52.908 0
      vertex 6.293 53.22 0
    endloop
  endfacet
  facet normal -0.707107 0.707107 0
    outer loop
      vertex 6.293 53.22 -26.2
      vertex 6.293 53.22 0
      vertex 6.78 53.707 -26.2
    endloop
  endfacet
  facet normal -0.707107 0.707107 0
    outer loop
      vertex 6.78 53.707 -26.2
      vertex 6.293 53.22 0
      vertex 6.78 53.707 0
    endloop
  endfacet
  facet normal -0.891206 0.453599 0
    outer loop
      vertex 6.78 53.707 -26.2
      vertex 6.78 53.707 0
      vertex 7.092 54.32 -26.2
    endloop
  endfacet
  facet normal -0.891206 0.453599 0
    outer loop
      vertex 7.092 54.32 -26.2
      vertex 6.78 53.707 0
      vertex 7.092 54.32 0
    endloop
  endfacet
  facet normal -0.987621 0.156857 0
    outer loop
      vertex 7.092 54.32 -26.2
      vertex 7.092 54.32 0
      vertex 7.2 55 -26.2
    endloop
  endfacet
  facet normal -0.987621 0.156857 0
    outer loop
      vertex 7.2 55 -26.2
      vertex 7.092 54.32 0
      vertex 7.2 55 0
    endloop
  endfacet
  facet normal -0.987621 -0.156857 -0
    outer loop
      vertex 7.092 55.68 -26.2
      vertex 7.2 55 -26.2
      vertex 7.092 55.68 0
    endloop
  endfacet
  facet normal -0.987621 -0.156857 0
    outer loop
      vertex 7.092 55.68 0
      vertex 7.2 55 -26.2
      vertex 7.2 55 0
    endloop
  endfacet
  facet normal -0.891206 -0.453599 -0
    outer loop
      vertex 6.78 56.293 -26.2
      vertex 7.092 55.68 -26.2
      vertex 6.78 56.293 0
    endloop
  endfacet
  facet normal -0.891206 -0.453599 0
    outer loop
      vertex 6.78 56.293 0
      vertex 7.092 55.68 -26.2
      vertex 7.092 55.68 0
    endloop
  endfacet
  facet normal -0.707107 -0.707107 0
    outer loop
      vertex 6.293 56.78 0
      vertex 6.293 56.78 -26.2
      vertex 6.78 56.293 -26.2
    endloop
  endfacet
  facet normal -0.707107 -0.707107 0
    outer loop
      vertex 6.78 56.293 0
      vertex 6.293 56.78 0
      vertex 6.78 56.293 -26.2
    endloop
  endfacet
  facet normal -0.453599 -0.891206 0
    outer loop
      vertex 5.68 57.092 0
      vertex 5.68 57.092 -26.2
      vertex 6.293 56.78 -26.2
    endloop
  endfacet
  facet normal -0.453599 -0.891206 0
    outer loop
      vertex 6.293 56.78 0
      vertex 5.68 57.092 0
      vertex 6.293 56.78 -26.2
    endloop
  endfacet
  facet normal -0.156857 -0.987621 0
    outer loop
      vertex 5 57.2 0
      vertex 5 57.2 -26.2
      vertex 5.68 57.092 -26.2
    endloop
  endfacet
  facet normal -0.156857 -0.987621 0
    outer loop
      vertex 5.68 57.092 0
      vertex 5 57.2 0
      vertex 5.68 57.092 -26.2
    endloop
  endfacet
  facet normal 0.156857 -0.987621 0
    outer loop
      vertex 4.32 57.092 0
      vertex 4.32 57.092 -26.2
      vertex 5 57.2 -26.2
    endloop
  endfacet
  facet normal 0.156857 -0.987621 0
    outer loop
      vertex 5 57.2 0
      vertex 4.32 57.092 0
      vertex 5 57.2 -26.2
    endloop
  endfacet
  facet normal 0.453599 -0.891206 0
    outer loop
      vertex 3.707 56.78 0
      vertex 3.707 56.78 -26.2
      vertex 4.32 57.092 -26.2
    endloop
  endfacet
  facet normal 0.453599 -0.891206 0
    outer loop
      vertex 4.32 57.092 0
      vertex 3.707 56.78 0
      vertex 4.32 57.092 -26.2
    endloop
  endfacet
  facet normal 0.707107 -0.707107 0
    outer loop
      vertex 3.22 56.293 0
      vertex 3.22 56.293 -26.2
      vertex 3.707 56.78 -26.2
    endloop
  endfacet
  facet normal 0.707107 -0.707107 0
    outer loop
      vertex 3.707 56.78 0
      vertex 3.22 56.293 0
      vertex 3.707 56.78 -26.2
    endloop
  endfacet
  facet normal 0.891206 -0.453599 0
    outer loop
      vertex 2.908 55.68 0
      vertex 2.908 55.68 -26.2
      vertex 3.22 56.293 -26.2
    endloop
  endfacet
  facet normal 0.891206 -0.453599 0
    outer loop
      vertex 3.22 56.293 0
      vertex 2.908 55.68 0
      vertex 3.22 56.293 -26.2
    endloop
  endfacet
  facet normal 0.987621 -0.156857 0
    outer loop
      vertex 2.8 55 0
      vertex 2.8 55 -26.2
      vertex 2.908 55.68 -26.2
    endloop
  endfacet
  facet normal 0.987621 -0.156857 0
    outer loop
      vertex 2.908 55.68 0
      vertex 2.8 55 0
      vertex 2.908 55.68 -26.2
    endloop
  endfacet
  facet normal 0.987621 0.156857 0
    outer loop
      vertex 52.908 4.32 -20.1
      vertex 52.8 5 -20.1
      vertex 52.8 5 0
    endloop
  endfacet
  facet normal 0.987621 0.156857 -0
    outer loop
      vertex 52.908 4.32 0
      vertex 52.908 4.32 -20.1
      vertex 52.8 5 0
    endloop
  endfacet
  facet normal 0.891206 0.453599 0
    outer loop
      vertex 53.22 3.707 -20.1
      vertex 52.908 4.32 -20.1
      vertex 52.908 4.32 0
    endloop
  endfacet
  facet normal 0.891206 0.453599 -0
    outer loop
      vertex 53.22 3.707 0
      vertex 53.22 3.707 -20.1
      vertex 52.908 4.32 0
    endloop
  endfacet
  facet normal 0.707107 0.707107 0
    outer loop
      vertex 53.22 3.707 -20.1
      vertex 53.22 3.707 0
      vertex 53.707 3.22 -20.1
    endloop
  endfacet
  facet normal 0.707107 0.707107 0
    outer loop
      vertex 53.707 3.22 -20.1
      vertex 53.22 3.707 0
      vertex 53.707 3.22 0
    endloop
  endfacet
  facet normal 0.453599 0.891206 0
    outer loop
      vertex 53.707 3.22 -20.1
      vertex 53.707 3.22 0
      vertex 54.32 2.908 -20.1
    endloop
  endfacet
  facet normal 0.453599 0.891206 0
    outer loop
      vertex 54.32 2.908 -20.1
      vertex 53.707 3.22 0
      vertex 54.32 2.908 0
    endloop
  endfacet
  facet normal 0.156857 0.987621 0
    outer loop
      vertex 54.32 2.908 -20.1
      vertex 54.32 2.908 0
      vertex 55 2.8 -20.1
    endloop
  endfacet
  facet normal 0.156857 0.987621 0
    outer loop
      vertex 55 2.8 -20.1
      vertex 54.32 2.908 0
      vertex 55 2.8 0
    endloop
  endfacet
  facet normal -0.156857 0.987621 0
    outer loop
      vertex 55 2.8 -20.1
      vertex 55 2.8 0
      vertex 55.68 2.908 -20.1
    endloop
  endfacet
  facet normal -0.156857 0.987621 0
    outer loop
      vertex 55.68 2.908 -20.1
      vertex 55 2.8 0
      vertex 55.68 2.908 0
    endloop
  endfacet
  facet normal -0.453599 0.891206 0
    outer loop
      vertex 55.68 2.908 -20.1
      vertex 55.68 2.908 0
      vertex 56.293 3.22 -20.1
    endloop
  endfacet
  facet normal -0.453599 0.891206 0
    outer loop
      vertex 56.293 3.22 -20.1
      vertex 55.68 2.908 0
      vertex 56.293 3.22 0
    endloop
  endfacet
  facet normal -0.707107 0.707107 0
    outer loop
      vertex 56.293 3.22 -20.1
      vertex 56.293 3.22 0
      vertex 56.78 3.707 -20.1
    endloop
  endfacet
  facet normal -0.707107 0.707107 0
    outer loop
      vertex 56.78 3.707 -20.1
      vertex 56.293 3.22 0
      vertex 56.78 3.707 0
    endloop
  endfacet
  facet normal -0.891206 0.453599 0
    outer loop
      vertex 56.78 3.707 -20.1
      vertex 56.78 3.707 0
      vertex 57.092 4.32 -20.1
    endloop
  endfacet
  facet normal -0.891206 0.453599 0
    outer loop
      vertex 57.092 4.32 -20.1
      vertex 56.78 3.707 0
      vertex 57.092 4.32 0
    endloop
  endfacet
  facet normal -0.987621 0.156857 0
    outer loop
      vertex 57.092 4.32 -20.1
      vertex 57.092 4.32 0
      vertex 57.2 5 -20.1
    endloop
  endfacet
  facet normal -0.987621 0.156857 0
    outer loop
      vertex 57.2 5 -20.1
      vertex 57.092 4.32 0
      vertex 57.2 5 0
    endloop
  endfacet
  facet normal -0.987621 -0.156857 -0
    outer loop
      vertex 57.092 5.68 -20.1
      vertex 57.2 5 -20.1
      vertex 57.092 5.68 0
    endloop
  endfacet
  facet normal -0.987621 -0.156857 0
    outer loop
      vertex 57.092 5.68 0
      vertex 57.2 5 -20.1
      vertex 57.2 5 0
    endloop
  endfacet
  facet normal -0.891206 -0.453599 -0
    outer loop
      vertex 56.78 6.293 -20.1
      vertex 57.092 5.68 -20.1
      vertex 56.78 6.293 0
    endloop
  endfacet
  facet normal -0.891206 -0.453599 0
    outer loop
      vertex 56.78 6.293 0
      vertex 57.092 5.68 -20.1
      vertex 57.092 5.68 0
    endloop
  endfacet
  facet normal -0.707107 -0.707107 -0
    outer loop
      vertex 56.293 6.78 -20.1
      vertex 56.78 6.293 -20.1
      vertex 56.293 6.78 0
    endloop
  endfacet
  facet normal -0.707107 -0.707107 0
    outer loop
      vertex 56.293 6.78 0
      vertex 56.78 6.293 -20.1
      vertex 56.78 6.293 0
    endloop
  endfacet
  facet normal -0.453599 -0.891206 0
    outer loop
      vertex 55.68 7.092 0
      vertex 55.68 7.092 -20.1
      vertex 56.293 6.78 -20.1
    endloop
  endfacet
  facet normal -0.453599 -0.891206 0
    outer loop
      vertex 56.293 6.78 0
      vertex 55.68 7.092 0
      vertex 56.293 6.78 -20.1
    endloop
  endfacet
  facet normal -0.156857 -0.987621 0
    outer loop
      vertex 55 7.2 0
      vertex 55 7.2 -20.1
      vertex 55.68 7.092 -20.1
    endloop
  endfacet
  facet normal -0.156857 -0.987621 0
    outer loop
      vertex 55.68 7.092 0
      vertex 55 7.2 0
      vertex 55.68 7.092 -20.1
    endloop
  endfacet
  facet normal 0.156857 -0.987621 0
    outer loop
      vertex 54.32 7.092 0
      vertex 54.32 7.092 -20.1
      vertex 55 7.2 -20.1
    endloop
  endfacet
  facet normal 0.156857 -0.987621 0
    outer loop
      vertex 55 7.2 0
      vertex 54.32 7.092 0
      vertex 55 7.2 -20.1
    endloop
  endfacet
  facet normal 0.453599 -0.891206 0
    outer loop
      vertex 53.707 6.78 0
      vertex 53.707 6.78 -20.1
      vertex 54.32 7.092 -20.1
    endloop
  endfacet
  facet normal 0.453599 -0.891206 0
    outer loop
      vertex 54.32 7.092 0
      vertex 53.707 6.78 0
      vertex 54.32 7.092 -20.1
    endloop
  endfacet
  facet normal 0.707107 -0.707107 0
    outer loop
      vertex 53.22 6.293 0
      vertex 53.22 6.293 -20.1
      vertex 53.707 6.78 -20.1
    endloop
  endfacet
  facet normal 0.707107 -0.707107 0
    outer loop
      vertex 53.707 6.78 0
      vertex 53.22 6.293 0
      vertex 53.707 6.78 -20.1
    endloop
  endfacet
  facet normal 0.891206 -0.453599 0
    outer loop
      vertex 52.908 5.68 0
      vertex 52.908 5.68 -20.1
      vertex 53.22 6.293 -20.1
    endloop
  endfacet
  facet normal 0.891206 -0.453599 0
    outer loop
      vertex 53.22 6.293 0
      vertex 52.908 5.68 0
      vertex 53.22 6.293 -20.1
    endloop
  endfacet
  facet normal 0.987621 -0.156857 0
    outer loop
      vertex 52.8 5 0
      vertex 52.8 5 -20.1
      vertex 52.908 5.68 -20.1
    endloop
  endfacet
  facet normal 0.987621 -0.156857 0
    outer loop
      vertex 52.908 5.68 0
      vertex 52.8 5 0
      vertex 52.908 5.68 -20.1
    endloop
  endfacet
  facet normal 0.987621 0.156857 0
    outer loop
      vertex 52.908 54.32 -20.1
      vertex 52.8 55 -20.1
      vertex 52.8 55 0
    endloop
  endfacet
  facet normal 0.987621 0.156857 -0
    outer loop
      vertex 52.908 54.32 0
      vertex 52.908 54.32 -20.1
      vertex 52.8 55 0
    endloop
  endfacet
  facet normal 0.891206 0.453599 0
    outer loop
      vertex 53.22 53.707 -20.1
      vertex 52.908 54.32 -20.1
      vertex 52.908 54.32 0
    endloop
  endfacet
  facet normal 0.891206 0.453599 -0
    outer loop
      vertex 53.22 53.707 0
      vertex 53.22 53.707 -20.1
      vertex 52.908 54.32 0
    endloop
  endfacet
  facet normal 0.707107 0.707107 0
    outer loop
      vertex 53.22 53.707 -20.1
      vertex 53.22 53.707 0
      vertex 53.707 53.22 -20.1
    endloop
  endfacet
  facet normal 0.707107 0.707107 0
    outer loop
      vertex 53.707 53.22 -20.1
      vertex 53.22 53.707 0
      vertex 53.707 53.22 0
    endloop
  endfacet
  facet normal 0.453599 0.891206 0
    outer loop
      vertex 53.707 53.22 -20.1
      vertex 53.707 53.22 0
      vertex 54.32 52.908 -20.1
    endloop
  endfacet
  facet normal 0.453599 0.891206 0
    outer loop
      vertex 54.32 52.908 -20.1
      vertex 53.707 53.22 0
      vertex 54.32 52.908 0
    endloop
  endfacet
  facet normal 0.156857 0.987621 0
    outer loop
      vertex 54.32 52.908 -20.1
      vertex 54.32 52.908 0
      vertex 55 52.8 -20.1
    endloop
  endfacet
  facet normal 0.156857 0.987621 0
    outer loop
      vertex 55 52.8 -20.1
      vertex 54.32 52.908 0
      vertex 55 52.8 0
    endloop
  endfacet
  facet normal -0.156857 0.987621 0
    outer loop
      vertex 55 52.8 -20.1
      vertex 55 52.8 0
      vertex 55.68 52.908 -20.1
    endloop
  endfacet
  facet normal -0.156857 0.987621 0
    outer loop
      vertex 55.68 52.908 -20.1
      vertex 55 52.8 0
      vertex 55.68 52.908 0
    endloop
  endfacet
  facet normal -0.453599 0.891206 0
    outer loop
      vertex 55.68 52.908 -20.1
      vertex 55.68 52.908 0
      vertex 56.293 53.22 -20.1
    endloop
  endfacet
  facet normal -0.453599 0.891206 0
    outer loop
      vertex 56.293 53.22 -20.1
      vertex 55.68 52.908 0
      vertex 56.293 53.22 0
    endloop
  endfacet
  facet normal -0.707107 0.707107 0
    outer loop
      vertex 56.293 53.22 -20.1
      vertex 56.293 53.22 0
      vertex 56.78 53.707 -20.1
    endloop
  endfacet
  facet normal -0.707107 0.707107 0
    outer loop
      vertex 56.78 53.707 -20.1
      vertex 56.293 53.22 0
      vertex 56.78 53.707 0
    endloop
  endfacet
  facet normal -0.891206 0.453599 0
    outer loop
      vertex 56.78 53.707 -20.1
      vertex 56.78 53.707 0
      vertex 57.092 54.32 -20.1
    endloop
  endfacet
  facet normal -0.891206 0.453599 0
    outer loop
      vertex 57.092 54.32 -20.1
      vertex 56.78 53.707 0
      vertex 57.092 54.32 0
    endloop
  endfacet
  facet normal -0.987621 0.156857 0
    outer loop
      vertex 57.092 54.32 -20.1
      vertex 57.092 54.32 0
      vertex 57.2 55 -20.1
    endloop
  endfacet
  facet normal -0.987621 0.156857 0
    outer loop
      vertex 57.2 55 -20.1
      vertex 57.092 54.32 0
      vertex 57.2 55 0
    endloop
  endfacet
  facet normal -0.987621 -0.156857 -0
    outer loop
      vertex 57.092 55.68 -20.1
      vertex 57.2 55 -20.1
      vertex 57.092 55.68 0
    endloop
  endfacet
  facet normal -0.987621 -0.156857 0
    outer loop
      vertex 57.092 55.68 0
      vertex 57.2 55 -20.1
      vertex 57.2 55 0
    endloop
  endfacet
  facet normal -0.891206 -0.453599 -0
    outer loop
      vertex 56.78 56.293 -20.1
      vertex 57.092 55.68 -20.1
      vertex 56.78 56.293 0
    endloop
  endfacet
  facet normal -0.891206 -0.453599 0
    outer loop
      vertex 56.78 56.293 0
      vertex 57.092 55.68 -20.1
      vertex 57.092 55.68 0
    endloop
  endfacet
  facet normal -0.707107 -0.707107 0
    outer loop
      vertex 56.293 56.78 0
      vertex 56.293 56.78 -20.1
      vertex 56.78 56.293 -20.1
    endloop
  endfacet
  facet normal -0.707107 -0.707107 0
    outer loop
      vertex 56.78 56.293 0
      vertex 56.293 56.78 0
      vertex 56.78 56.293 -20.1
    endloop
  endfacet
  facet normal -0.453599 -0.891206 0
    outer loop
      vertex 55.68 57.092 0
      vertex 55.68 57.092 -20.1
      vertex 56.293 56.78 -20.1
    endloop
  endfacet
  facet normal -0.453599 -0.891206 0
    outer loop
      vertex 56.293 56.78 0
      vertex 55.68 57.092 0
      vertex 56.293 56.78 -20.1
    endloop
  endfacet
  facet normal -0.156857 -0.987621 0
    outer loop
      vertex 55 57.2 0
      vertex 55 57.2 -20.1
      vertex 55.68 57.092 -20.1
    endloop
  endfacet
  facet normal -0.156857 -0.987621 0
    outer loop
      vertex 55.68 57.092 0
      vertex 55 57.2 0
      vertex 55.68 57.092 -20.1
    endloop
  endfacet
  facet normal 0.156857 -0.987621 0
    outer loop
      vertex 54.32 57.092 0
      vertex 54.32 57.092 -20.1
      vertex 55 57.2 -20.1
    endloop
  endfacet
  facet normal 0.156857 -0.987621 0
    outer loop
      vertex 55 57.2 0
      vertex 54.32 57.092 0
      vertex 55 57.2 -20.1
    endloop
  endfacet
  facet normal 0.453599 -0.891206 0
    outer loop
      vertex 53.707 56.78 0
      vertex 53.707 56.78 -20.1
      vertex 54.32 57.092 -20.1
    endloop
  endfacet
  facet normal 0.453599 -0.891206 0
    outer loop
      vertex 54.32 57.092 0
      vertex 53.707 56.78 0
      vertex 54.32 57.092 -20.1
    endloop
  endfacet
  facet normal 0.707107 -0.707107 0
    outer loop
      vertex 53.22 56.293 0
      vertex 53.22 56.293 -20.1
      vertex 53.707 56.78 -20.1
    endloop
  endfacet
  facet normal 0.707107 -0.707107 0
    outer loop
      vertex 53.707 56.78 0
      vertex 53.22 56.293 0
      vertex 53.707 56.78 -20.1
    endloop
  endfacet
  facet normal 0.891206 -0.453599 0
    outer loop
      vertex 52.908 55.68 0
      vertex 52.908 55.68 -20.1
      vertex 53.22 56.293 -20.1
    endloop
  endfacet
  facet normal 0.891206 -0.453599 0
    outer loop
      vertex 53.22 56.293 0
      vertex 52.908 55.68 0
      vertex 53.22 56.293 -20.1
    endloop
  endfacet
  facet normal 0.987621 -0.156857 0
    outer loop
      vertex 52.8 55 0
      vertex 52.8 55 -20.1
      vertex 52.908 55.68 -20.1
    endloop
  endfacet
  facet normal 0.987621 -0.156857 0
    outer loop
      vertex 52.908 55.68 0
      vertex 52.8 55 0
      vertex 52.908 55.68 -20.1
    endloop
  endfacet
  facet normal 0 -0 1
    outer loop
      vertex 58 0.0317647 -14.5
      vertex 58 3.21965e-015 -14.5
      vertex 60 3.21965e-015 -14.5
    endloop
  endfacet
  facet normal 0 -0 1
    outer loop
      vertex 58.48 0.108 -14.5
      vertex 58 0.0317647 -14.5
      vertex 60 3.21965e-015 -14.5
    endloop
  endfacet
  facet normal 0 0 1
    outer loop
      vertex 60 2.2 -14.5
      vertex 59.892 1.52 -14.5
      vertex 60 3.21965e-015 -14.5
    endloop
  endfacet
  facet normal 0 -0 1
    outer loop
      vertex 59.892 1.52 -14.5
      vertex 59.58 0.907 -14.5
      vertex 60 3.21965e-015 -14.5
    endloop
  endfacet
  facet normal 0 -0 1
    outer loop
      vertex 59.58 0.907 -14.5
      vertex 59.093 0.42 -14.5
      vertex 60 3.21965e-015 -14.5
    endloop
  endfacet
  facet normal 0 -0 1
    outer loop
      vertex 59.093 0.42 -14.5
      vertex 58.48 0.108 -14.5
      vertex 60 3.21965e-015 -14.5
    endloop
  endfacet
  facet normal -1 -0 0
    outer loop
      vertex 58 0 -29
      vertex 58 3.21965e-015 -14.5
      vertex 58 0.0317647 -29
    endloop
  endfacet
  facet normal -1 0 0
    outer loop
      vertex 58 0.0317647 -29
      vertex 58 3.21965e-015 -14.5
      vertex 58 0.0317647 -14.5
    endloop
  endfacet
  facet normal -0 -0 -1
    outer loop
      vertex 58 0 -29
      vertex 58 0.0317647 -29
      vertex 74.5 0 -29
    endloop
  endfacet
  facet normal 0 0 -1
    outer loop
      vertex 74.5 0 -29
      vertex 58 0.0317647 -29
      vertex 58.48 0.108 -29
    endloop
  endfacet
  facet normal 0 0 -1
    outer loop
      vertex 74.5 0 -29
      vertex 58.48 0.108 -29
      vertex 59.093 0.42 -29
    endloop
  endfacet
  facet normal -0 0 -1
    outer loop
      vertex 59.093 0.42 -29
      vertex 59.58 0.907 -29
      vertex 74.5 0 -29
    endloop
  endfacet
  facet normal -0 0 -1
    outer loop
      vertex 59.58 0.907 -29
      vertex 59.892 1.52 -29
      vertex 74.5 0 -29
    endloop
  endfacet
  facet normal -0 0 -1
    outer loop
      vertex 59.892 1.52 -29
      vertex 60 2.2 -29
      vertex 74.5 0 -29
    endloop
  endfacet
  facet normal -2.90845e-017 -1.91693e-016 -1
    outer loop
      vertex 60 2.2 -29
      vertex 60 57.8 -29
      vertex 74.5 0 -29
    endloop
  endfacet
  facet normal 2.00341e-015 3.18189e-016 -1
    outer loop
      vertex 60 57.8 -29
      vertex 59.892 58.48 -29
      vertex 74.5 0 -29
    endloop
  endfacet
  facet normal -2.18559e-016 -2.36848e-016 -1
    outer loop
      vertex 59.892 58.48 -29
      vertex 74.5 60 -29
      vertex 74.5 0 -29
    endloop
  endfacet
  facet normal -2.30971e-016 -1.17558e-016 -1
    outer loop
      vertex 59.58 59.093 -29
      vertex 74.5 60 -29
      vertex 59.892 58.48 -29
    endloop
  endfacet
  facet normal -2.24472e-016 -2.24472e-016 -1
    outer loop
      vertex 59.093 59.58 -29
      vertex 74.5 60 -29
      vertex 59.58 59.093 -29
    endloop
  endfacet
  facet normal -1.77636e-014 -1.11845e-013 -1
    outer loop
      vertex 58.48 59.892 -29
      vertex 58 59.9682 -29
      vertex 58 60 -29
    endloop
  endfacet
  facet normal -3.85987e-033 -3.28955e-014 -1
    outer loop
      vertex 58.48 59.892 -29
      vertex 58 60 -29
      vertex 74.5 60 -29
    endloop
  endfacet
  facet normal -2.18868e-016 -4.3002e-016 -1
    outer loop
      vertex 58.48 59.892 -29
      vertex 74.5 60 -29
      vertex 59.093 59.58 -29
    endloop
  endfacet
  facet normal -1 -0 -0
    outer loop
      vertex 58 59.9682 -29
      vertex 58 59.9682 -14.5
      vertex 58 60 -29
    endloop
  endfacet
  facet normal -1 0 0
    outer loop
      vertex 58 60 -29
      vertex 58 59.9682 -14.5
      vertex 58 60 -14.5
    endloop
  endfacet
  facet normal 1.0255e-015 2.01484e-015 1
    outer loop
      vertex 59.093 59.58 -14.5
      vertex 60 60 -14.5
      vertex 58.48 59.892 -14.5
    endloop
  endfacet
  facet normal 8.88178e-015 5.59223e-014 1
    outer loop
      vertex 58 60 -14.5
      vertex 58 59.9682 -14.5
      vertex 58.48 59.892 -14.5
    endloop
  endfacet
  facet normal 1.33863e-015 1.33863e-015 1
    outer loop
      vertex 59.58 59.093 -14.5
      vertex 60 60 -14.5
      vertex 59.093 59.58 -14.5
    endloop
  endfacet
  facet normal -0 1.64477e-014 1
    outer loop
      vertex 60 60 -14.5
      vertex 58 60 -14.5
      vertex 58.48 59.892 -14.5
    endloop
  endfacet
  facet normal 2.01484e-015 1.0255e-015 1
    outer loop
      vertex 59.892 58.48 -14.5
      vertex 60 60 -14.5
      vertex 59.58 59.093 -14.5
    endloop
  endfacet
  facet normal 5.08385e-015 8.07435e-016 1
    outer loop
      vertex 60 57.8 -14.5
      vertex 60 60 -14.5
      vertex 59.892 58.48 -14.5
    endloop
  endfacet
  facet normal 0.707107 -0 0.707107
    outer loop
      vertex 60 2.2 -14.5
      vertex 60 3.21965e-015 -14.5
      vertex 74.5 0 -29
    endloop
  endfacet
  facet normal 0.707107 6.17741e-016 0.707107
    outer loop
      vertex 71.7 57.2 -26.2
      vertex 71.7 40.9333 -26.2
      vertex 74.5 60 -29
    endloop
  endfacet
  facet normal 0.707107 1.92795e-015 0.707107
    outer loop
      vertex 65.6 2.8 -20.1
      vertex 60 2.2 -14.5
      vertex 74.5 0 -29
    endloop
  endfacet
  facet normal 0.707107 5.70943e-016 0.707107
    outer loop
      vertex 60 60 -14.5
      vertex 60 57.8 -14.5
      vertex 74.5 60 -29
    endloop
  endfacet
  facet normal 0.707107 1.58139e-016 0.707107
    outer loop
      vertex 60 57.8 -14.5
      vertex 60 2.2 -14.5
      vertex 65.6 40.9333 -20.1
    endloop
  endfacet
  facet normal 0.707107 -2.44504e-015 0.707107
    outer loop
      vertex 60 57.8 -14.5
      vertex 65.6 57.2 -20.1
      vertex 74.5 60 -29
    endloop
  endfacet
  facet normal 0.707107 0 0.707107
    outer loop
      vertex 60 57.8 -14.5
      vertex 65.6 40.9333 -20.1
      vertex 65.6 57.2 -20.1
    endloop
  endfacet
  facet normal 0.707107 -3.54668e-015 0.707107
    outer loop
      vertex 65.6 57.2 -20.1
      vertex 71.7 57.2 -26.2
      vertex 74.5 60 -29
    endloop
  endfacet
  facet normal 0.707107 1.67477e-016 0.707107
    outer loop
      vertex 74.5 60 -29
      vertex 71.7 40.9333 -26.2
      vertex 74.5 0 -29
    endloop
  endfacet
  facet normal 0.707107 0 0.707107
    outer loop
      vertex 71.7 21.8667 -26.2
      vertex 65.6 21.8667 -20.1
      vertex 65.6 19.0667 -20.1
    endloop
  endfacet
  facet normal 0.707107 0 0.707107
    outer loop
      vertex 65.6 19.0667 -20.1
      vertex 65.6 21.8667 -20.1
      vertex 60 2.2 -14.5
    endloop
  endfacet
  facet normal 0.707107 -0 0.707107
    outer loop
      vertex 65.6 40.9333 -20.1
      vertex 60 2.2 -14.5
      vertex 65.6 38.1333 -20.1
    endloop
  endfacet
  facet normal 0.707107 -0 0.707107
    outer loop
      vertex 71.7 40.9333 -26.2
      vertex 71.7 38.1333 -26.2
      vertex 74.5 0 -29
    endloop
  endfacet
  facet normal 0.707107 0 0.707107
    outer loop
      vertex 65.6 38.1333 -20.1
      vertex 71.7 38.1333 -26.2
      vertex 71.7 40.9333 -26.2
    endloop
  endfacet
  facet normal 0.707107 -0 0.707107
    outer loop
      vertex 71.7 38.1333 -26.2
      vertex 71.7 21.8667 -26.2
      vertex 74.5 0 -29
    endloop
  endfacet
  facet normal 0.707107 3.43597e-015 0.707107
    outer loop
      vertex 71.7 2.8 -26.2
      vertex 65.6 2.8 -20.1
      vertex 74.5 0 -29
    endloop
  endfacet
  facet normal 0.707107 0 0.707107
    outer loop
      vertex 65.6 19.0667 -20.1
      vertex 71.7 19.0667 -26.2
      vertex 71.7 21.8667 -26.2
    endloop
  endfacet
  facet normal 0.707107 -0 0.707107
    outer loop
      vertex 71.7 21.8667 -26.2
      vertex 71.7 19.0667 -26.2
      vertex 74.5 0 -29
    endloop
  endfacet
  facet normal 0.707107 -0 0.707107
    outer loop
      vertex 71.7 19.0667 -26.2
      vertex 71.7 2.8 -26.2
      vertex 74.5 0 -29
    endloop
  endfacet
  facet normal 0.707107 6.17741e-016 0.707107
    outer loop
      vertex 65.6 21.8667 -20.1
      vertex 65.6 38.1333 -20.1
      vertex 60 2.2 -14.5
    endloop
  endfacet
  facet normal 0.707107 0 0.707107
    outer loop
      vertex 65.6 2.8 -20.1
      vertex 65.6 19.0667 -20.1
      vertex 60 2.2 -14.5
    endloop
  endfacet
  facet normal 0.707107 0 0.707107
    outer loop
      vertex 71.7 40.9333 -26.2
      vertex 65.6 40.9333 -20.1
      vertex 65.6 38.1333 -20.1
    endloop
  endfacet
  facet normal 0 0 1
    outer loop
      vertex 2.908 5.68 -26.2
      vertex 2.8 5 -26.2
      vertex 2.908 4.32 -26.2
    endloop
  endfacet
  facet normal 0 0 1
    outer loop
      vertex 3.707 3.22 -26.2
      vertex 2.908 5.68 -26.2
      vertex 3.22 3.707 -26.2
    endloop
  endfacet
  facet normal 0 0 1
    outer loop
      vertex 3.22 3.707 -26.2
      vertex 2.908 5.68 -26.2
      vertex 2.908 4.32 -26.2
    endloop
  endfacet
  facet normal 0 0 1
    outer loop
      vertex 4.32 2.908 -26.2
      vertex 2.908 5.68 -26.2
      vertex 3.707 3.22 -26.2
    endloop
  endfacet
  facet normal 0 0 1
    outer loop
      vertex 5 2.8 -26.2
      vertex 2.908 5.68 -26.2
      vertex 4.32 2.908 -26.2
    endloop
  endfacet
  facet normal -0 0 1
    outer loop
      vertex 5.68 2.908 -26.2
      vertex 2.908 5.68 -26.2
      vertex 5 2.8 -26.2
    endloop
  endfacet
  facet normal -0 0 1
    outer loop
      vertex 6.293 3.22 -26.2
      vertex 2.908 5.68 -26.2
      vertex 5.68 2.908 -26.2
    endloop
  endfacet
  facet normal -0 0 1
    outer loop
      vertex 6.78 3.707 -26.2
      vertex 2.908 5.68 -26.2
      vertex 6.293 3.22 -26.2
    endloop
  endfacet
  facet normal -0 0 1
    outer loop
      vertex 7.092 4.32 -26.2
      vertex 2.908 5.68 -26.2
      vertex 6.78 3.707 -26.2
    endloop
  endfacet
  facet normal -0 0 1
    outer loop
      vertex 7.2 5 -26.2
      vertex 2.908 5.68 -26.2
      vertex 7.092 4.32 -26.2
    endloop
  endfacet
  facet normal 0 -0 1
    outer loop
      vertex 7.092 5.68 -26.2
      vertex 2.908 5.68 -26.2
      vertex 7.2 5 -26.2
    endloop
  endfacet
  facet normal 0 -0 1
    outer loop
      vertex 6.78 6.293 -26.2
      vertex 2.908 5.68 -26.2
      vertex 7.092 5.68 -26.2
    endloop
  endfacet
  facet normal 0 -0 1
    outer loop
      vertex 6.293 6.78 -26.2
      vertex 2.908 5.68 -26.2
      vertex 6.78 6.293 -26.2
    endloop
  endfacet
  facet normal 0 -0 1
    outer loop
      vertex 5.68 7.092 -26.2
      vertex 2.908 5.68 -26.2
      vertex 6.293 6.78 -26.2
    endloop
  endfacet
  facet normal 0 -0 1
    outer loop
      vertex 5 7.2 -26.2
      vertex 2.908 5.68 -26.2
      vertex 5.68 7.092 -26.2
    endloop
  endfacet
  facet normal 0 -0 1
    outer loop
      vertex 4.32 7.092 -26.2
      vertex 2.908 5.68 -26.2
      vertex 5 7.2 -26.2
    endloop
  endfacet
  facet normal 0 -0 1
    outer loop
      vertex 3.707 6.78 -26.2
      vertex 2.908 5.68 -26.2
      vertex 4.32 7.092 -26.2
    endloop
  endfacet
  facet normal 0 -0 1
    outer loop
      vertex 3.22 6.293 -26.2
      vertex 2.908 5.68 -26.2
      vertex 3.707 6.78 -26.2
    endloop
  endfacet
  facet normal 0 0 1
    outer loop
      vertex 7.763 8.802 -26.2
      vertex 8.802 7.763 -26.2
      vertex 2.8 50.3 -26.2
    endloop
  endfacet
  facet normal 0 -0 1
    outer loop
      vertex 2.8 50.3 -26.2
      vertex 2.8 9.7 -26.2
      vertex 5 9.7 -26.2
    endloop
  endfacet
  facet normal 0 0 1
    outer loop
      vertex 8.802 7.763 -26.2
      vertex 9.47 6.452 -26.2
      vertex 2.8 50.3 -26.2
    endloop
  endfacet
  facet normal 0 0 1
    outer loop
      vertex 6.452 9.47 -26.2
      vertex 2.8 50.3 -26.2
      vertex 5 9.7 -26.2
    endloop
  endfacet
  facet normal 0 0 1
    outer loop
      vertex 6.452 9.47 -26.2
      vertex 7.763 8.802 -26.2
      vertex 2.8 50.3 -26.2
    endloop
  endfacet
  facet normal 0 0 1
    outer loop
      vertex 9.47 6.452 -26.2
      vertex 9.7 5 -26.2
      vertex 2.8 50.3 -26.2
    endloop
  endfacet
  facet normal 0 0 1
    outer loop
      vertex 9.7 5 -26.2
      vertex 30 2.8 -26.2
      vertex 2.8 50.3 -26.2
    endloop
  endfacet
  facet normal 0 0 1
    outer loop
      vertex 9.7 2.8 -26.2
      vertex 30 2.8 -26.2
      vertex 9.7 5 -26.2
    endloop
  endfacet
  facet normal 0 0 1
    outer loop
      vertex 30 2.8 -26.2
      vertex 30 19.0667 -26.2
      vertex 2.8 50.3 -26.2
    endloop
  endfacet
  facet normal 0 0 1
    outer loop
      vertex 30 21.8667 -26.2
      vertex 30 38.1333 -26.2
      vertex 2.8 50.3 -26.2
    endloop
  endfacet
  facet normal 0 0 1
    outer loop
      vertex 30 19.0667 -26.2
      vertex 30 21.8667 -26.2
      vertex 2.8 50.3 -26.2
    endloop
  endfacet
  facet normal 0 0 1
    outer loop
      vertex 30 19.0667 -26.2
      vertex 57.2 19.0667 -26.2
      vertex 30 21.8667 -26.2
    endloop
  endfacet
  facet normal 0 0 1
    outer loop
      vertex 30 40.9333 -26.2
      vertex 5 50.3 -26.2
      vertex 2.8 50.3 -26.2
    endloop
  endfacet
  facet normal 0 0 1
    outer loop
      vertex 30 38.1333 -26.2
      vertex 30 40.9333 -26.2
      vertex 2.8 50.3 -26.2
    endloop
  endfacet
  facet normal 0 0 1
    outer loop
      vertex 30 38.1333 -26.2
      vertex 57.2 38.1333 -26.2
      vertex 30 40.9333 -26.2
    endloop
  endfacet
  facet normal 0 0 1
    outer loop
      vertex 30 57.2 -26.2
      vertex 9.7 57.2 -26.2
      vertex 9.7 55 -26.2
    endloop
  endfacet
  facet normal 0 0 1
    outer loop
      vertex 30 57.2 -26.2
      vertex 9.7 55 -26.2
      vertex 9.47 53.548 -26.2
    endloop
  endfacet
  facet normal 0 0 1
    outer loop
      vertex 30 57.2 -26.2
      vertex 9.47 53.548 -26.2
      vertex 8.802 52.237 -26.2
    endloop
  endfacet
  facet normal 0 -0 1
    outer loop
      vertex 8.802 52.237 -26.2
      vertex 7.763 51.198 -26.2
      vertex 30 57.2 -26.2
    endloop
  endfacet
  facet normal 0 0 1
    outer loop
      vertex 57.2 40.9333 -26.2
      vertex 30 40.9333 -26.2
      vertex 57.2 38.1333 -26.2
    endloop
  endfacet
  facet normal 0 0 1
    outer loop
      vertex 57.2 21.8667 -26.2
      vertex 30 21.8667 -26.2
      vertex 57.2 19.0667 -26.2
    endloop
  endfacet
  facet normal 0 0 1
    outer loop
      vertex 30 40.9333 -26.2
      vertex 6.452 50.53 -26.2
      vertex 5 50.3 -26.2
    endloop
  endfacet
  facet normal 0 0 1
    outer loop
      vertex 30 40.9333 -26.2
      vertex 7.763 51.198 -26.2
      vertex 6.452 50.53 -26.2
    endloop
  endfacet
  facet normal 0 0 1
    outer loop
      vertex 30 40.9333 -26.2
      vertex 30 57.2 -26.2
      vertex 7.763 51.198 -26.2
    endloop
  endfacet
  facet normal 0 -0 1
    outer loop
      vertex 30 19.0667 -26.2
      vertex 30 2.8 -26.2
      vertex 71.7 2.8 -26.2
    endloop
  endfacet
  facet normal 0 -0 1
    outer loop
      vertex 57.2 19.0667 -26.2
      vertex 30 19.0667 -26.2
      vertex 71.7 2.8 -26.2
    endloop
  endfacet
  facet normal 0 0 1
    outer loop
      vertex 71.7 19.0667 -26.2
      vertex 57.2 19.0667 -26.2
      vertex 71.7 2.8 -26.2
    endloop
  endfacet
  facet normal 0 1 0
    outer loop
      vertex 30 2.8 -26.2
      vertex 30 2.8 -20.1
      vertex 71.7 2.8 -26.2
    endloop
  endfacet
  facet normal 0 1 0
    outer loop
      vertex 71.7 2.8 -26.2
      vertex 30 2.8 -20.1
      vertex 50.3 2.8 -20.1
    endloop
  endfacet
  facet normal 0 1 0
    outer loop
      vertex 71.7 2.8 -26.2
      vertex 50.3 2.8 -20.1
      vertex 55 2.8 -20.1
    endloop
  endfacet
  facet normal 0 1 0
    outer loop
      vertex 71.7 2.8 -26.2
      vertex 55 2.8 -20.1
      vertex 65.6 2.8 -20.1
    endloop
  endfacet
  facet normal -0 0 -1
    outer loop
      vertex 50.53 6.452 -20.1
      vertex 51.198 7.763 -20.1
      vertex 50.3 5 -20.1
    endloop
  endfacet
  facet normal 0 0 -1
    outer loop
      vertex 50.3 5 -20.1
      vertex 51.198 7.763 -20.1
      vertex 52.237 8.802 -20.1
    endloop
  endfacet
  facet normal 0 0 -1
    outer loop
      vertex 50.3 5 -20.1
      vertex 52.237 8.802 -20.1
      vertex 53.548 9.47 -20.1
    endloop
  endfacet
  facet normal 0 0 -1
    outer loop
      vertex 50.3 5 -20.1
      vertex 53.548 9.47 -20.1
      vertex 55 9.7 -20.1
    endloop
  endfacet
  facet normal 0 0 -1
    outer loop
      vertex 50.3 5 -20.1
      vertex 55 9.7 -20.1
      vertex 57.2 9.7 -20.1
    endloop
  endfacet
  facet normal 0 -0 -1
    outer loop
      vertex 57.2 9.7 -20.1
      vertex 57.2 19.0667 -20.1
      vertex 65.6 19.0667 -20.1
    endloop
  endfacet
  facet normal -0 0 -1
    outer loop
      vertex 57.2 9.7 -20.1
      vertex 65.6 19.0667 -20.1
      vertex 65.6 2.8 -20.1
    endloop
  endfacet
  facet normal -0 0 -1
    outer loop
      vertex 57.092 5.68 -20.1
      vertex 57.2 9.7 -20.1
      vertex 57.2 5 -20.1
    endloop
  endfacet
  facet normal 0 0 -1
    outer loop
      vertex 55.68 2.908 -20.1
      vertex 65.6 2.8 -20.1
      vertex 55 2.8 -20.1
    endloop
  endfacet
  facet normal 0 0 -1
    outer loop
      vertex 54.32 2.908 -20.1
      vertex 55 2.8 -20.1
      vertex 50.3 2.8 -20.1
    endloop
  endfacet
  facet normal 0 0 -1
    outer loop
      vertex 56.293 3.22 -20.1
      vertex 65.6 2.8 -20.1
      vertex 55.68 2.908 -20.1
    endloop
  endfacet
  facet normal 0 0 -1
    outer loop
      vertex 56.78 3.707 -20.1
      vertex 65.6 2.8 -20.1
      vertex 56.293 3.22 -20.1
    endloop
  endfacet
  facet normal 0 0 -1
    outer loop
      vertex 57.2 5 -20.1
      vertex 65.6 2.8 -20.1
      vertex 57.092 4.32 -20.1
    endloop
  endfacet
  facet normal 0 0 -1
    outer loop
      vertex 57.2 9.7 -20.1
      vertex 65.6 2.8 -20.1
      vertex 57.2 5 -20.1
    endloop
  endfacet
  facet normal 0 -0 -1
    outer loop
      vertex 53.22 6.293 -20.1
      vertex 50.3 5 -20.1
      vertex 53.707 6.78 -20.1
    endloop
  endfacet
  facet normal 0 0 -1
    outer loop
      vertex 57.2 9.7 -20.1
      vertex 57.092 5.68 -20.1
      vertex 56.78 6.293 -20.1
    endloop
  endfacet
  facet normal 0 0 -1
    outer loop
      vertex 57.2 9.7 -20.1
      vertex 56.78 6.293 -20.1
      vertex 56.293 6.78 -20.1
    endloop
  endfacet
  facet normal 0 0 -1
    outer loop
      vertex 57.2 9.7 -20.1
      vertex 56.293 6.78 -20.1
      vertex 55.68 7.092 -20.1
    endloop
  endfacet
  facet normal 0 0 -1
    outer loop
      vertex 57.2 9.7 -20.1
      vertex 55.68 7.092 -20.1
      vertex 55 7.2 -20.1
    endloop
  endfacet
  facet normal 0 0 -1
    outer loop
      vertex 57.2 9.7 -20.1
      vertex 55 7.2 -20.1
      vertex 54.32 7.092 -20.1
    endloop
  endfacet
  facet normal 0 0 -1
    outer loop
      vertex 57.2 9.7 -20.1
      vertex 54.32 7.092 -20.1
      vertex 53.707 6.78 -20.1
    endloop
  endfacet
  facet normal 0 0 -1
    outer loop
      vertex 57.2 9.7 -20.1
      vertex 53.707 6.78 -20.1
      vertex 50.3 5 -20.1
    endloop
  endfacet
  facet normal 0 -0 -1
    outer loop
      vertex 52.908 5.68 -20.1
      vertex 50.3 5 -20.1
      vertex 53.22 6.293 -20.1
    endloop
  endfacet
  facet normal 0 -0 -1
    outer loop
      vertex 52.8 5 -20.1
      vertex 50.3 5 -20.1
      vertex 52.908 5.68 -20.1
    endloop
  endfacet
  facet normal 0 0 -1
    outer loop
      vertex 52.908 4.32 -20.1
      vertex 50.3 5 -20.1
      vertex 52.8 5 -20.1
    endloop
  endfacet
  facet normal 0 0 -1
    outer loop
      vertex 53.22 3.707 -20.1
      vertex 50.3 5 -20.1
      vertex 52.908 4.32 -20.1
    endloop
  endfacet
  facet normal 0 0 -1
    outer loop
      vertex 53.707 3.22 -20.1
      vertex 50.3 5 -20.1
      vertex 53.22 3.707 -20.1
    endloop
  endfacet
  facet normal 0 0 -1
    outer loop
      vertex 53.707 3.22 -20.1
      vertex 54.32 2.908 -20.1
      vertex 50.3 2.8 -20.1
    endloop
  endfacet
  facet normal 0 0 -1
    outer loop
      vertex 53.707 3.22 -20.1
      vertex 50.3 2.8 -20.1
      vertex 50.3 5 -20.1
    endloop
  endfacet
  facet normal 0 0 -1
    outer loop
      vertex 57.092 4.32 -20.1
      vertex 65.6 2.8 -20.1
      vertex 56.78 3.707 -20.1
    endloop
  endfacet
  facet normal 0 -1 0
    outer loop
      vertex 71.7 19.0667 -26.2
      vertex 65.6 19.0667 -20.1
      vertex 57.2 19.0667 -20.1
    endloop
  endfacet
  facet normal -0 -1 -0
    outer loop
      vertex 57.2 19.0667 -26.2
      vertex 71.7 19.0667 -26.2
      vertex 57.2 19.0667 -20.1
    endloop
  endfacet
  facet normal 0 -0 1
    outer loop
      vertex 30 38.1333 -26.2
      vertex 30 21.8667 -26.2
      vertex 57.2 21.8667 -26.2
    endloop
  endfacet
  facet normal 0 -0 1
    outer loop
      vertex 57.2 38.1333 -26.2
      vertex 30 38.1333 -26.2
      vertex 71.7 21.8667 -26.2
    endloop
  endfacet
  facet normal -0 0 1
    outer loop
      vertex 71.7 21.8667 -26.2
      vertex 30 38.1333 -26.2
      vertex 57.2 21.8667 -26.2
    endloop
  endfacet
  facet normal 0 0 1
    outer loop
      vertex 71.7 38.1333 -26.2
      vertex 57.2 38.1333 -26.2
      vertex 71.7 21.8667 -26.2
    endloop
  endfacet
  facet normal 0 1 -0
    outer loop
      vertex 65.6 21.8667 -20.1
      vertex 71.7 21.8667 -26.2
      vertex 57.2 21.8667 -20.1
    endloop
  endfacet
  facet normal 0 1 -0
    outer loop
      vertex 57.2 21.8667 -20.1
      vertex 71.7 21.8667 -26.2
      vertex 57.2 21.8667 -26.2
    endloop
  endfacet
  facet normal 0 0 -1
    outer loop
      vertex 65.6 38.1333 -20.1
      vertex 65.6 21.8667 -20.1
      vertex 57.2 38.1333 -20.1
    endloop
  endfacet
  facet normal 0 0 -1
    outer loop
      vertex 57.2 38.1333 -20.1
      vertex 65.6 21.8667 -20.1
      vertex 57.2 21.8667 -20.1
    endloop
  endfacet
  facet normal 0 -1 0
    outer loop
      vertex 71.7 38.1333 -26.2
      vertex 65.6 38.1333 -20.1
      vertex 57.2 38.1333 -20.1
    endloop
  endfacet
  facet normal -0 -1 -0
    outer loop
      vertex 57.2 38.1333 -26.2
      vertex 71.7 38.1333 -26.2
      vertex 57.2 38.1333 -20.1
    endloop
  endfacet
  facet normal 0 -0 1
    outer loop
      vertex 30 57.2 -26.2
      vertex 30 40.9333 -26.2
      vertex 57.2 40.9333 -26.2
    endloop
  endfacet
  facet normal 0 -0 1
    outer loop
      vertex 71.7 57.2 -26.2
      vertex 30 57.2 -26.2
      vertex 71.7 40.9333 -26.2
    endloop
  endfacet
  facet normal -0 0 1
    outer loop
      vertex 71.7 40.9333 -26.2
      vertex 30 57.2 -26.2
      vertex 57.2 40.9333 -26.2
    endloop
  endfacet
  facet normal 0 1 -0
    outer loop
      vertex 65.6 40.9333 -20.1
      vertex 71.7 40.9333 -26.2
      vertex 57.2 40.9333 -20.1
    endloop
  endfacet
  facet normal 0 1 -0
    outer loop
      vertex 57.2 40.9333 -20.1
      vertex 71.7 40.9333 -26.2
      vertex 57.2 40.9333 -26.2
    endloop
  endfacet
  facet normal 0 0 -1
    outer loop
      vertex 65.6 57.2 -20.1
      vertex 65.6 40.9333 -20.1
      vertex 57.2 50.3 -20.1
    endloop
  endfacet
  facet normal 0 0 -1
    outer loop
      vertex 52.237 51.198 -20.1
      vertex 55 50.3 -20.1
      vertex 53.548 50.53 -20.1
    endloop
  endfacet
  facet normal 0 0 -1
    outer loop
      vertex 51.198 52.237 -20.1
      vertex 57.2 50.3 -20.1
      vertex 52.237 51.198 -20.1
    endloop
  endfacet
  facet normal 0 0 -1
    outer loop
      vertex 57.2 50.3 -20.1
      vertex 55 50.3 -20.1
      vertex 52.237 51.198 -20.1
    endloop
  endfacet
  facet normal 0 0 -1
    outer loop
      vertex 54.32 52.908 -20.1
      vertex 57.2 50.3 -20.1
      vertex 51.198 52.237 -20.1
    endloop
  endfacet
  facet normal 0 0 -1
    outer loop
      vertex 53.22 53.707 -20.1
      vertex 51.198 52.237 -20.1
      vertex 50.53 53.548 -20.1
    endloop
  endfacet
  facet normal 0 0 -1
    outer loop
      vertex 52.908 54.32 -20.1
      vertex 50.53 53.548 -20.1
      vertex 50.3 55 -20.1
    endloop
  endfacet
  facet normal 0 0 -1
    outer loop
      vertex 53.22 56.293 -20.1
      vertex 50.3 55 -20.1
      vertex 50.3 57.2 -20.1
    endloop
  endfacet
  facet normal 0 0 -9.3633e-009
    outer loop
      vertex 65.6 57.2 -20.1
      vertex 50.3 57.2 -20.1
      vertex 30 57.2 -20.1
    endloop
  endfacet
  facet normal 0 0 -1
    outer loop
      vertex 53.22 53.707 -20.1
      vertex 50.53 53.548 -20.1
      vertex 52.908 54.32 -20.1
    endloop
  endfacet
  facet normal 0 0 -1
    outer loop
      vertex 52.8 55 -20.1
      vertex 52.908 54.32 -20.1
      vertex 50.3 55 -20.1
    endloop
  endfacet
  facet normal 0 0 -1
    outer loop
      vertex 53.707 53.22 -20.1
      vertex 51.198 52.237 -20.1
      vertex 53.22 53.707 -20.1
    endloop
  endfacet
  facet normal 0 0 -1
    outer loop
      vertex 54.32 52.908 -20.1
      vertex 51.198 52.237 -20.1
      vertex 53.707 53.22 -20.1
    endloop
  endfacet
  facet normal 0 0 -1
    outer loop
      vertex 55 52.8 -20.1
      vertex 57.2 50.3 -20.1
      vertex 54.32 52.908 -20.1
    endloop
  endfacet
  facet normal -0 0 -1
    outer loop
      vertex 56.78 53.707 -20.1
      vertex 65.6 57.2 -20.1
      vertex 56.293 53.22 -20.1
    endloop
  endfacet
  facet normal 0 0 -1
    outer loop
      vertex 55.68 52.908 -20.1
      vertex 57.2 50.3 -20.1
      vertex 55 52.8 -20.1
    endloop
  endfacet
  facet normal 0 0 -1
    outer loop
      vertex 65.6 57.2 -20.1
      vertex 57.2 50.3 -20.1
      vertex 55.68 52.908 -20.1
    endloop
  endfacet
  facet normal 0 0 -1
    outer loop
      vertex 65.6 57.2 -20.1
      vertex 55.68 52.908 -20.1
      vertex 56.293 53.22 -20.1
    endloop
  endfacet
  facet normal -0 0 -1
    outer loop
      vertex 57.092 54.32 -20.1
      vertex 65.6 57.2 -20.1
      vertex 56.78 53.707 -20.1
    endloop
  endfacet
  facet normal -0 0 -1
    outer loop
      vertex 57.092 55.68 -20.1
      vertex 65.6 57.2 -20.1
      vertex 57.2 55 -20.1
    endloop
  endfacet
  facet normal -0 0 -1
    outer loop
      vertex 57.2 55 -20.1
      vertex 65.6 57.2 -20.1
      vertex 57.092 54.32 -20.1
    endloop
  endfacet
  facet normal -0 0 -1
    outer loop
      vertex 56.78 56.293 -20.1
      vertex 65.6 57.2 -20.1
      vertex 57.092 55.68 -20.1
    endloop
  endfacet
  facet normal 0 -0 -1
    outer loop
      vertex 54.32 57.092 -20.1
      vertex 50.3 57.2 -20.1
      vertex 55 57.2 -20.1
    endloop
  endfacet
  facet normal 0 0 -1
    outer loop
      vertex 65.6 57.2 -20.1
      vertex 56.78 56.293 -20.1
      vertex 56.293 56.78 -20.1
    endloop
  endfacet
  facet normal 0 0 -1
    outer loop
      vertex 65.6 57.2 -20.1
      vertex 56.293 56.78 -20.1
      vertex 55.68 57.092 -20.1
    endloop
  endfacet
  facet normal 0 0 -1
    outer loop
      vertex 65.6 57.2 -20.1
      vertex 55.68 57.092 -20.1
      vertex 55 57.2 -20.1
    endloop
  endfacet
  facet normal 0 0 -6.69258e-009
    outer loop
      vertex 65.6 57.2 -20.1
      vertex 55 57.2 -20.1
      vertex 50.3 57.2 -20.1
    endloop
  endfacet
  facet normal 0 -0 -1
    outer loop
      vertex 53.707 56.78 -20.1
      vertex 50.3 57.2 -20.1
      vertex 54.32 57.092 -20.1
    endloop
  endfacet
  facet normal 0 -0 -1
    outer loop
      vertex 53.22 56.293 -20.1
      vertex 50.3 57.2 -20.1
      vertex 53.707 56.78 -20.1
    endloop
  endfacet
  facet normal 0 -0 -1
    outer loop
      vertex 52.908 55.68 -20.1
      vertex 50.3 55 -20.1
      vertex 53.22 56.293 -20.1
    endloop
  endfacet
  facet normal 0 -0 -1
    outer loop
      vertex 52.8 55 -20.1
      vertex 50.3 55 -20.1
      vertex 52.908 55.68 -20.1
    endloop
  endfacet
  facet normal 0 0 -1
    outer loop
      vertex 57.2 50.3 -20.1
      vertex 65.6 40.9333 -20.1
      vertex 57.2 40.9333 -20.1
    endloop
  endfacet
  facet normal 0 0 1
    outer loop
      vertex 2.908 55.68 -26.2
      vertex 2.8 55 -26.2
      vertex 2.908 54.32 -26.2
    endloop
  endfacet
  facet normal 0 0 1
    outer loop
      vertex 3.707 53.22 -26.2
      vertex 2.908 55.68 -26.2
      vertex 3.22 53.707 -26.2
    endloop
  endfacet
  facet normal 0 0 1
    outer loop
      vertex 3.22 53.707 -26.2
      vertex 2.908 55.68 -26.2
      vertex 2.908 54.32 -26.2
    endloop
  endfacet
  facet normal 0 0 1
    outer loop
      vertex 4.32 52.908 -26.2
      vertex 2.908 55.68 -26.2
      vertex 3.707 53.22 -26.2
    endloop
  endfacet
  facet normal 0 0 1
    outer loop
      vertex 5 52.8 -26.2
      vertex 2.908 55.68 -26.2
      vertex 4.32 52.908 -26.2
    endloop
  endfacet
  facet normal -0 0 1
    outer loop
      vertex 5.68 52.908 -26.2
      vertex 2.908 55.68 -26.2
      vertex 5 52.8 -26.2
    endloop
  endfacet
  facet normal -0 0 1
    outer loop
      vertex 6.293 53.22 -26.2
      vertex 2.908 55.68 -26.2
      vertex 5.68 52.908 -26.2
    endloop
  endfacet
  facet normal -0 0 1
    outer loop
      vertex 6.78 53.707 -26.2
      vertex 2.908 55.68 -26.2
      vertex 6.293 53.22 -26.2
    endloop
  endfacet
  facet normal -0 0 1
    outer loop
      vertex 7.092 54.32 -26.2
      vertex 2.908 55.68 -26.2
      vertex 6.78 53.707 -26.2
    endloop
  endfacet
  facet normal -0 0 1
    outer loop
      vertex 7.2 55 -26.2
      vertex 2.908 55.68 -26.2
      vertex 7.092 54.32 -26.2
    endloop
  endfacet
  facet normal 0 -0 1
    outer loop
      vertex 7.092 55.68 -26.2
      vertex 2.908 55.68 -26.2
      vertex 7.2 55 -26.2
    endloop
  endfacet
  facet normal 0 -0 1
    outer loop
      vertex 6.78 56.293 -26.2
      vertex 2.908 55.68 -26.2
      vertex 7.092 55.68 -26.2
    endloop
  endfacet
  facet normal 0 -0 1
    outer loop
      vertex 6.293 56.78 -26.2
      vertex 2.908 55.68 -26.2
      vertex 6.78 56.293 -26.2
    endloop
  endfacet
  facet normal 0 -0 1
    outer loop
      vertex 5.68 57.092 -26.2
      vertex 2.908 55.68 -26.2
      vertex 6.293 56.78 -26.2
    endloop
  endfacet
  facet normal 0 -0 1
    outer loop
      vertex 5 57.2 -26.2
      vertex 2.908 55.68 -26.2
      vertex 5.68 57.092 -26.2
    endloop
  endfacet
  facet normal 0 -0 1
    outer loop
      vertex 4.32 57.092 -26.2
      vertex 2.908 55.68 -26.2
      vertex 5 57.2 -26.2
    endloop
  endfacet
  facet normal 0 -0 1
    outer loop
      vertex 3.707 56.78 -26.2
      vertex 2.908 55.68 -26.2
      vertex 4.32 57.092 -26.2
    endloop
  endfacet
  facet normal 0 -0 1
    outer loop
      vertex 3.22 56.293 -26.2
      vertex 2.908 55.68 -26.2
      vertex 3.707 56.78 -26.2
    endloop
  endfacet
  facet normal -9.45117e-033 -1 2.22045e-016
    outer loop
      vertex 58 3.21965e-015 -14.5
      vertex 58 0 -29
      vertex 74.5 0 -29
    endloop
  endfacet
  facet normal 0 -1 2.22045e-016
    outer loop
      vertex 60 3.21965e-015 -14.5
      vertex 58 3.21965e-015 -14.5
      vertex 74.5 0 -29
    endloop
  endfacet
  facet normal 0 1 0
    outer loop
      vertex 58 60 -29
      vertex 58 60 -14.5
      vertex 74.5 60 -29
    endloop
  endfacet
  facet normal 0 1 0
    outer loop
      vertex 74.5 60 -29
      vertex 58 60 -14.5
      vertex 60 60 -14.5
    endloop
  endfacet
  facet normal 0 -1 0
    outer loop
      vertex 71.7 57.2 -26.2
      vertex 65.6 57.2 -20.1
      vertex 30 57.2 -20.1
    endloop
  endfacet
  facet normal -0 -1 -0
    outer loop
      vertex 30 57.2 -26.2
      vertex 71.7 57.2 -26.2
      vertex 30 57.2 -20.1
    endloop
  endfacet
endsolid OpenSCAD_Model
