solid ascii
  facet normal 0.000000e+000 8.944272e-001 -4.472136e-001
    outer loop
      vertex   2.050000e+001 -6.500000e+000 1.000000e+001
      vertex   -2.050000e+001 -6.500000e+000 1.000000e+001
      vertex   1.800000e+001 -4.000000e+000 1.500000e+001
    endloop
  endfacet
  facet normal -1.241267e-016 8.944272e-001 -4.472136e-001
    outer loop
      vertex   1.800000e+001 -4.000000e+000 1.500000e+001
      vertex   -2.050000e+001 -6.500000e+000 1.000000e+001
      vertex   -1.800000e+001 -4.000000e+000 1.500000e+001
    endloop
  endfacet
  facet normal -8.944272e-001 -0.000000e+000 -4.472136e-001
    outer loop
      vertex   2.050000e+001 6.500000e+000 1.000000e+001
      vertex   2.050000e+001 -6.500000e+000 1.000000e+001
      vertex   1.800000e+001 4.000000e+000 1.500000e+001
    endloop
  endfacet
  facet normal -8.944272e-001 0.000000e+000 -4.472136e-001
    outer loop
      vertex   1.800000e+001 4.000000e+000 1.500000e+001
      vertex   2.050000e+001 -6.500000e+000 1.000000e+001
      vertex   1.800000e+001 -4.000000e+000 1.500000e+001
    endloop
  endfacet
  facet normal 0.000000e+000 -8.944272e-001 -4.472136e-001
    outer loop
      vertex   2.050000e+001 6.500000e+000 1.000000e+001
      vertex   1.800000e+001 4.000000e+000 1.500000e+001
      vertex   -2.050000e+001 6.500000e+000 1.000000e+001
    endloop
  endfacet
  facet normal 1.379186e-017 -8.944272e-001 -4.472136e-001
    outer loop
      vertex   -2.050000e+001 6.500000e+000 1.000000e+001
      vertex   1.800000e+001 4.000000e+000 1.500000e+001
      vertex   -1.800000e+001 4.000000e+000 1.500000e+001
    endloop
  endfacet
  facet normal 8.944272e-001 0.000000e+000 -4.472136e-001
    outer loop
      vertex   -2.050000e+001 6.500000e+000 1.000000e+001
      vertex   -1.800000e+001 4.000000e+000 1.500000e+001
      vertex   -2.050000e+001 -6.500000e+000 1.000000e+001
    endloop
  endfacet
  facet normal 8.944272e-001 0.000000e+000 -4.472136e-001
    outer loop
      vertex   -2.050000e+001 -6.500000e+000 1.000000e+001
      vertex   -1.800000e+001 4.000000e+000 1.500000e+001
      vertex   -1.800000e+001 -4.000000e+000 1.500000e+001
    endloop
  endfacet
  facet normal -2.025550e-017 8.574929e-001 5.144958e-001
    outer loop
      vertex   2.350000e+001 9.500000e+000 1.000000e+001
      vertex   -2.350000e+001 9.500000e+000 1.000000e+001
      vertex   2.050000e+001 6.500000e+000 1.500000e+001
    endloop
  endfacet
  facet normal 0.000000e+000 8.574929e-001 5.144958e-001
    outer loop
      vertex   2.050000e+001 6.500000e+000 1.500000e+001
      vertex   -2.350000e+001 9.500000e+000 1.000000e+001
      vertex   -2.050000e+001 6.500000e+000 1.500000e+001
    endloop
  endfacet
  facet normal 8.574929e-001 2.004228e-016 5.144958e-001
    outer loop
      vertex   2.350000e+001 9.500000e+000 1.000000e+001
      vertex   2.050000e+001 6.500000e+000 1.500000e+001
      vertex   2.350000e+001 -9.500000e+000 1.000000e+001
    endloop
  endfacet
  facet normal 8.574929e-001 0.000000e+000 5.144958e-001
    outer loop
      vertex   2.350000e+001 -9.500000e+000 1.000000e+001
      vertex   2.050000e+001 6.500000e+000 1.500000e+001
      vertex   2.050000e+001 -6.500000e+000 1.500000e+001
    endloop
  endfacet
  facet normal 1.012775e-016 -8.574929e-001 5.144958e-001
    outer loop
      vertex   -2.350000e+001 -9.500000e+000 1.000000e+001
      vertex   2.350000e+001 -9.500000e+000 1.000000e+001
      vertex   -2.050000e+001 -6.500000e+000 1.500000e+001
    endloop
  endfacet
  facet normal 0.000000e+000 -8.574929e-001 5.144958e-001
    outer loop
      vertex   -2.050000e+001 -6.500000e+000 1.500000e+001
      vertex   2.350000e+001 -9.500000e+000 1.000000e+001
      vertex   2.050000e+001 -6.500000e+000 1.500000e+001
    endloop
  endfacet
  facet normal -8.574929e-001 0.000000e+000 5.144958e-001
    outer loop
      vertex   -2.350000e+001 9.500000e+000 1.000000e+001
      vertex   -2.350000e+001 -9.500000e+000 1.000000e+001
      vertex   -2.050000e+001 6.500000e+000 1.500000e+001
    endloop
  endfacet
  facet normal -8.574929e-001 0.000000e+000 5.144958e-001
    outer loop
      vertex   -2.050000e+001 6.500000e+000 1.500000e+001
      vertex   -2.350000e+001 -9.500000e+000 1.000000e+001
      vertex   -2.050000e+001 -6.500000e+000 1.500000e+001
    endloop
  endfacet
  facet normal -2.362177e-017 1.000000e+000 0.000000e+000
    outer loop
      vertex   -2.350000e+001 9.500000e+000 1.000000e+001
      vertex   2.350000e+001 9.500000e+000 1.000000e+001
      vertex   -2.350000e+001 9.500000e+000 0.000000e+000
    endloop
  endfacet
  facet normal -2.362177e-017 1.000000e+000 0.000000e+000
    outer loop
      vertex   -2.350000e+001 9.500000e+000 0.000000e+000
      vertex   2.350000e+001 9.500000e+000 1.000000e+001
      vertex   2.350000e+001 9.500000e+000 0.000000e+000
    endloop
  endfacet
  facet normal 1.000000e+000 2.337312e-016 0.000000e+000
    outer loop
      vertex   2.350000e+001 9.500000e+000 1.000000e+001
      vertex   2.350000e+001 -9.500000e+000 1.000000e+001
      vertex   2.350000e+001 9.500000e+000 0.000000e+000
    endloop
  endfacet
  facet normal 1.000000e+000 2.337312e-016 0.000000e+000
    outer loop
      vertex   2.350000e+001 9.500000e+000 0.000000e+000
      vertex   2.350000e+001 -9.500000e+000 1.000000e+001
      vertex   2.350000e+001 -9.500000e+000 0.000000e+000
    endloop
  endfacet
  facet normal 1.181088e-016 -1.000000e+000 0.000000e+000
    outer loop
      vertex   2.350000e+001 -9.500000e+000 1.000000e+001
      vertex   -2.350000e+001 -9.500000e+000 1.000000e+001
      vertex   2.350000e+001 -9.500000e+000 0.000000e+000
    endloop
  endfacet
  facet normal 1.181088e-016 -1.000000e+000 0.000000e+000
    outer loop
      vertex   2.350000e+001 -9.500000e+000 0.000000e+000
      vertex   -2.350000e+001 -9.500000e+000 1.000000e+001
      vertex   -2.350000e+001 -9.500000e+000 0.000000e+000
    endloop
  endfacet
  facet normal -1.000000e+000 0.000000e+000 -0.000000e+000
    outer loop
      vertex   -2.350000e+001 -9.500000e+000 1.000000e+001
      vertex   -2.350000e+001 9.500000e+000 1.000000e+001
      vertex   -2.350000e+001 -9.500000e+000 0.000000e+000
    endloop
  endfacet
  facet normal -1.000000e+000 0.000000e+000 0.000000e+000
    outer loop
      vertex   -2.350000e+001 -9.500000e+000 0.000000e+000
      vertex   -2.350000e+001 9.500000e+000 1.000000e+001
      vertex   -2.350000e+001 9.500000e+000 0.000000e+000
    endloop
  endfacet
  facet normal -0.000000e+000 1.000000e+000 0.000000e+000
    outer loop
      vertex   -2.050000e+001 -6.500000e+000 1.000000e+001
      vertex   2.050000e+001 -6.500000e+000 1.000000e+001
      vertex   -2.050000e+001 -6.500000e+000 0.000000e+000
    endloop
  endfacet
  facet normal -0.000000e+000 1.000000e+000 0.000000e+000
    outer loop
      vertex   -2.050000e+001 -6.500000e+000 0.000000e+000
      vertex   2.050000e+001 -6.500000e+000 1.000000e+001
      vertex   2.050000e+001 -6.500000e+000 0.000000e+000
    endloop
  endfacet
  facet normal -1.000000e+000 0.000000e+000 -0.000000e+000
    outer loop
      vertex   2.050000e+001 -6.500000e+000 1.000000e+001
      vertex   2.050000e+001 6.500000e+000 1.000000e+001
      vertex   2.050000e+001 -6.500000e+000 0.000000e+000
    endloop
  endfacet
  facet normal -1.000000e+000 0.000000e+000 0.000000e+000
    outer loop
      vertex   2.050000e+001 -6.500000e+000 0.000000e+000
      vertex   2.050000e+001 6.500000e+000 1.000000e+001
      vertex   2.050000e+001 6.500000e+000 0.000000e+000
    endloop
  endfacet
  facet normal -0.000000e+000 -1.000000e+000 -0.000000e+000
    outer loop
      vertex   2.050000e+001 6.500000e+000 1.000000e+001
      vertex   -2.050000e+001 6.500000e+000 1.000000e+001
      vertex   2.050000e+001 6.500000e+000 0.000000e+000
    endloop
  endfacet
  facet normal -0.000000e+000 -1.000000e+000 -0.000000e+000
    outer loop
      vertex   2.050000e+001 6.500000e+000 0.000000e+000
      vertex   -2.050000e+001 6.500000e+000 1.000000e+001
      vertex   -2.050000e+001 6.500000e+000 0.000000e+000
    endloop
  endfacet
  facet normal 1.000000e+000 0.000000e+000 0.000000e+000
    outer loop
      vertex   -2.050000e+001 6.500000e+000 1.000000e+001
      vertex   -2.050000e+001 -6.500000e+000 1.000000e+001
      vertex   -2.050000e+001 6.500000e+000 0.000000e+000
    endloop
  endfacet
  facet normal 1.000000e+000 0.000000e+000 0.000000e+000
    outer loop
      vertex   -2.050000e+001 6.500000e+000 0.000000e+000
      vertex   -2.050000e+001 -6.500000e+000 1.000000e+001
      vertex   -2.050000e+001 -6.500000e+000 0.000000e+000
    endloop
  endfacet
  facet normal -0.000000e+000 0.000000e+000 -1.000000e+000
    outer loop
      vertex   -2.050000e+001 -6.500000e+000 0.000000e+000
      vertex   -2.350000e+001 -9.500000e+000 0.000000e+000
      vertex   -2.050000e+001 6.500000e+000 0.000000e+000
    endloop
  endfacet
  facet normal 0.000000e+000 -0.000000e+000 -1.000000e+000
    outer loop
      vertex   -2.050000e+001 -6.500000e+000 0.000000e+000
      vertex   2.050000e+001 -6.500000e+000 0.000000e+000
      vertex   -2.350000e+001 -9.500000e+000 0.000000e+000
    endloop
  endfacet
  facet normal 0.000000e+000 0.000000e+000 -1.000000e+000
    outer loop
      vertex   -2.350000e+001 -9.500000e+000 0.000000e+000
      vertex   2.050000e+001 -6.500000e+000 0.000000e+000
      vertex   2.350000e+001 -9.500000e+000 0.000000e+000
    endloop
  endfacet
  facet normal 0.000000e+000 0.000000e+000 -1.000000e+000
    outer loop
      vertex   2.350000e+001 -9.500000e+000 0.000000e+000
      vertex   2.050000e+001 -6.500000e+000 0.000000e+000
      vertex   2.050000e+001 6.500000e+000 0.000000e+000
    endloop
  endfacet
  facet normal -0.000000e+000 0.000000e+000 -1.000000e+000
    outer loop
      vertex   2.350000e+001 9.500000e+000 0.000000e+000
      vertex   2.050000e+001 6.500000e+000 0.000000e+000
      vertex   -2.050000e+001 6.500000e+000 0.000000e+000
    endloop
  endfacet
  facet normal 0.000000e+000 -0.000000e+000 -1.000000e+000
    outer loop
      vertex   -2.350000e+001 9.500000e+000 0.000000e+000
      vertex   -2.050000e+001 6.500000e+000 0.000000e+000
      vertex   -2.350000e+001 -9.500000e+000 0.000000e+000
    endloop
  endfacet
  facet normal 0.000000e+000 -0.000000e+000 -1.000000e+000
    outer loop
      vertex   -2.350000e+001 9.500000e+000 0.000000e+000
      vertex   2.350000e+001 9.500000e+000 0.000000e+000
      vertex   -2.050000e+001 6.500000e+000 0.000000e+000
    endloop
  endfacet
  facet normal -0.000000e+000 -0.000000e+000 -1.000000e+000
    outer loop
      vertex   2.350000e+001 9.500000e+000 0.000000e+000
      vertex   2.350000e+001 -9.500000e+000 0.000000e+000
      vertex   2.050000e+001 6.500000e+000 0.000000e+000
    endloop
  endfacet
  facet normal 1.000000e+000 0.000000e+000 0.000000e+000
    outer loop
      vertex   2.050000e+001 6.500000e+000 2.500000e+001
      vertex   2.050000e+001 -6.500000e+000 2.500000e+001
      vertex   2.050000e+001 6.500000e+000 1.500000e+001
    endloop
  endfacet
  facet normal 1.000000e+000 0.000000e+000 0.000000e+000
    outer loop
      vertex   2.050000e+001 6.500000e+000 1.500000e+001
      vertex   2.050000e+001 -6.500000e+000 2.500000e+001
      vertex   2.050000e+001 -6.500000e+000 1.500000e+001
    endloop
  endfacet
  facet normal -0.000000e+000 -1.000000e+000 -0.000000e+000
    outer loop
      vertex   2.050000e+001 -6.500000e+000 2.500000e+001
      vertex   -2.050000e+001 -6.500000e+000 2.500000e+001
      vertex   2.050000e+001 -6.500000e+000 1.500000e+001
    endloop
  endfacet
  facet normal -0.000000e+000 -1.000000e+000 -0.000000e+000
    outer loop
      vertex   2.050000e+001 -6.500000e+000 1.500000e+001
      vertex   -2.050000e+001 -6.500000e+000 2.500000e+001
      vertex   -2.050000e+001 -6.500000e+000 1.500000e+001
    endloop
  endfacet
  facet normal -1.000000e+000 0.000000e+000 -0.000000e+000
    outer loop
      vertex   -2.050000e+001 -6.500000e+000 2.500000e+001
      vertex   -2.050000e+001 6.500000e+000 2.500000e+001
      vertex   -2.050000e+001 -6.500000e+000 1.500000e+001
    endloop
  endfacet
  facet normal -1.000000e+000 0.000000e+000 0.000000e+000
    outer loop
      vertex   -2.050000e+001 -6.500000e+000 1.500000e+001
      vertex   -2.050000e+001 6.500000e+000 2.500000e+001
      vertex   -2.050000e+001 6.500000e+000 1.500000e+001
    endloop
  endfacet
  facet normal -0.000000e+000 1.000000e+000 0.000000e+000
    outer loop
      vertex   -2.050000e+001 6.500000e+000 2.500000e+001
      vertex   2.050000e+001 6.500000e+000 2.500000e+001
      vertex   -2.050000e+001 6.500000e+000 1.500000e+001
    endloop
  endfacet
  facet normal -0.000000e+000 1.000000e+000 0.000000e+000
    outer loop
      vertex   -2.050000e+001 6.500000e+000 1.500000e+001
      vertex   2.050000e+001 6.500000e+000 2.500000e+001
      vertex   2.050000e+001 6.500000e+000 1.500000e+001
    endloop
  endfacet
  facet normal -1.387779e-016 1.000000e+000 0.000000e+000
    outer loop
      vertex   -1.800000e+001 -4.000000e+000 2.500000e+001
      vertex   1.800000e+001 -4.000000e+000 2.500000e+001
      vertex   -1.800000e+001 -4.000000e+000 1.500000e+001
    endloop
  endfacet
  facet normal -1.387779e-016 1.000000e+000 0.000000e+000
    outer loop
      vertex   -1.800000e+001 -4.000000e+000 1.500000e+001
      vertex   1.800000e+001 -4.000000e+000 2.500000e+001
      vertex   1.800000e+001 -4.000000e+000 1.500000e+001
    endloop
  endfacet
  facet normal -1.000000e+000 0.000000e+000 -0.000000e+000
    outer loop
      vertex   1.800000e+001 -4.000000e+000 2.500000e+001
      vertex   1.800000e+001 4.000000e+000 2.500000e+001
      vertex   1.800000e+001 -4.000000e+000 1.500000e+001
    endloop
  endfacet
  facet normal -1.000000e+000 0.000000e+000 0.000000e+000
    outer loop
      vertex   1.800000e+001 -4.000000e+000 1.500000e+001
      vertex   1.800000e+001 4.000000e+000 2.500000e+001
      vertex   1.800000e+001 4.000000e+000 1.500000e+001
    endloop
  endfacet
  facet normal 1.541976e-017 -1.000000e+000 0.000000e+000
    outer loop
      vertex   1.800000e+001 4.000000e+000 2.500000e+001
      vertex   -1.800000e+001 4.000000e+000 2.500000e+001
      vertex   1.800000e+001 4.000000e+000 1.500000e+001
    endloop
  endfacet
  facet normal 1.541976e-017 -1.000000e+000 0.000000e+000
    outer loop
      vertex   1.800000e+001 4.000000e+000 1.500000e+001
      vertex   -1.800000e+001 4.000000e+000 2.500000e+001
      vertex   -1.800000e+001 4.000000e+000 1.500000e+001
    endloop
  endfacet
  facet normal 1.000000e+000 0.000000e+000 0.000000e+000
    outer loop
      vertex   -1.800000e+001 4.000000e+000 2.500000e+001
      vertex   -1.800000e+001 -4.000000e+000 2.500000e+001
      vertex   -1.800000e+001 4.000000e+000 1.500000e+001
    endloop
  endfacet
  facet normal 1.000000e+000 0.000000e+000 0.000000e+000
    outer loop
      vertex   -1.800000e+001 4.000000e+000 1.500000e+001
      vertex   -1.800000e+001 -4.000000e+000 2.500000e+001
      vertex   -1.800000e+001 -4.000000e+000 1.500000e+001
    endloop
  endfacet
  facet normal 0.000000e+000 0.000000e+000 1.000000e+000
    outer loop
      vertex   1.800000e+001 4.000000e+000 2.500000e+001
      vertex   1.800000e+001 -4.000000e+000 2.500000e+001
      vertex   2.050000e+001 -6.500000e+000 2.500000e+001
    endloop
  endfacet
  facet normal 0.000000e+000 0.000000e+000 1.000000e+000
    outer loop
      vertex   2.050000e+001 6.500000e+000 2.500000e+001
      vertex   1.800000e+001 4.000000e+000 2.500000e+001
      vertex   2.050000e+001 -6.500000e+000 2.500000e+001
    endloop
  endfacet
  facet normal 0.000000e+000 0.000000e+000 1.000000e+000
    outer loop
      vertex   2.050000e+001 6.500000e+000 2.500000e+001
      vertex   -2.050000e+001 6.500000e+000 2.500000e+001
      vertex   1.800000e+001 4.000000e+000 2.500000e+001
    endloop
  endfacet
  facet normal 0.000000e+000 0.000000e+000 1.000000e+000
    outer loop
      vertex   1.800000e+001 4.000000e+000 2.500000e+001
      vertex   -2.050000e+001 6.500000e+000 2.500000e+001
      vertex   -1.800000e+001 4.000000e+000 2.500000e+001
    endloop
  endfacet
  facet normal 0.000000e+000 0.000000e+000 1.000000e+000
    outer loop
      vertex   -1.800000e+001 4.000000e+000 2.500000e+001
      vertex   -2.050000e+001 6.500000e+000 2.500000e+001
      vertex   -2.050000e+001 -6.500000e+000 2.500000e+001
    endloop
  endfacet
  facet normal -0.000000e+000 0.000000e+000 1.000000e+000
    outer loop
      vertex   -1.800000e+001 -4.000000e+000 2.500000e+001
      vertex   -2.050000e+001 -6.500000e+000 2.500000e+001
      vertex   2.050000e+001 -6.500000e+000 2.500000e+001
    endloop
  endfacet
  facet normal 0.000000e+000 0.000000e+000 1.000000e+000
    outer loop
      vertex   1.800000e+001 -4.000000e+000 2.500000e+001
      vertex   -1.800000e+001 -4.000000e+000 2.500000e+001
      vertex   2.050000e+001 -6.500000e+000 2.500000e+001
    endloop
  endfacet
  facet normal 0.000000e+000 -0.000000e+000 1.000000e+000
    outer loop
      vertex   -1.800000e+001 -4.000000e+000 2.500000e+001
      vertex   -1.800000e+001 4.000000e+000 2.500000e+001
      vertex   -2.050000e+001 -6.500000e+000 2.500000e+001
    endloop
  endfacet
endsolid
