solid OpenSCAD_Model
  facet normal -1 -0 -0
    outer loop
      vertex 0 0 0
      vertex 0 0 5
      vertex 0 25 0
    endloop
  endfacet
  facet normal -1 0 0
    outer loop
      vertex 0 25 0
      vertex 0 0 5
      vertex 0 25 5
    endloop
  endfacet
  facet normal 0 -1 0
    outer loop
      vertex 0 0 5
      vertex 0 0 0
      vertex 1.5 0 0
    endloop
  endfacet
  facet normal 0 -1 0
    outer loop
      vertex 1.5 0 5
      vertex 0 0 5
      vertex 1.5 0 0
    endloop
  endfacet
  facet normal -0 -0 -1
    outer loop
      vertex 0 0 0
      vertex 0 25 0
      vertex 1.5 0 0
    endloop
  endfacet
  facet normal 0 0 -1
    outer loop
      vertex 1.5 16 0
      vertex 0 25 0
      vertex 1.5 25 0
    endloop
  endfacet
  facet normal 0 0 -1
    outer loop
      vertex 1.5 0 0
      vertex 0 25 0
      vertex 1.5 12 0
    endloop
  endfacet
  facet normal 0 -0 -1
    outer loop
      vertex 5.5 16 0
      vertex 5.5 25 0
      vertex 7 25 0
    endloop
  endfacet
  facet normal -0 0 -1
    outer loop
      vertex 5.5 16 0
      vertex 7 25 0
      vertex 7 0 0
    endloop
  endfacet
  facet normal 0 0 -1
    outer loop
      vertex 5.5 16 0
      vertex 7 0 0
      vertex 3.7 0 0
    endloop
  endfacet
  facet normal 0 0 -1
    outer loop
      vertex 1.5 16 0
      vertex 5.5 16 0
      vertex 3.7 12 0
    endloop
  endfacet
  facet normal 0 0 -1
    outer loop
      vertex 1.5 16 0
      vertex 3.7 12 0
      vertex 1.5 12 0
    endloop
  endfacet
  facet normal 0 0 -1
    outer loop
      vertex 1.5 16 0
      vertex 1.5 12 0
      vertex 0 25 0
    endloop
  endfacet
  facet normal -0 0 -1
    outer loop
      vertex 3.7 12 0
      vertex 5.5 16 0
      vertex 3.7 0 0
    endloop
  endfacet
  facet normal 0 1 0
    outer loop
      vertex 0 25 0
      vertex 0 25 5
      vertex 1.5 25 0
    endloop
  endfacet
  facet normal 0 1 0
    outer loop
      vertex 1.5 25 0
      vertex 0 25 5
      vertex 1.5 25 5
    endloop
  endfacet
  facet normal 0 -0 1
    outer loop
      vertex 0 25 5
      vertex 0 0 5
      vertex 1.5 0 5
    endloop
  endfacet
  facet normal -0 0 1
    outer loop
      vertex 1.5 16 5
      vertex 0 25 5
      vertex 1.5 12 5
    endloop
  endfacet
  facet normal -0 0 1
    outer loop
      vertex 1.5 12 5
      vertex 0 25 5
      vertex 1.5 0 5
    endloop
  endfacet
  facet normal -0 0 1
    outer loop
      vertex 7 0 5
      vertex 3.7 12 5
      vertex 3.7 0 5
    endloop
  endfacet
  facet normal 0 -0 1
    outer loop
      vertex 5.5 16 5
      vertex 3.7 12 5
      vertex 7 0 5
    endloop
  endfacet
  facet normal 0 0 1
    outer loop
      vertex 7 25 5
      vertex 5.5 16 5
      vertex 7 0 5
    endloop
  endfacet
  facet normal 0 0 1
    outer loop
      vertex 1.5 16 5
      vertex 1.5 25 5
      vertex 0 25 5
    endloop
  endfacet
  facet normal -0 0 1
    outer loop
      vertex 3.7 12 5
      vertex 1.5 16 5
      vertex 1.5 12 5
    endloop
  endfacet
  facet normal 0 -0 1
    outer loop
      vertex 5.5 25 5
      vertex 5.5 16 5
      vertex 7 25 5
    endloop
  endfacet
  facet normal 0 0 1
    outer loop
      vertex 5.5 16 5
      vertex 1.5 16 5
      vertex 3.7 12 5
    endloop
  endfacet
  facet normal 1 0 0
    outer loop
      vertex 1.5 12 0
      vertex 1.5 12 5
      vertex 1.5 0 5
    endloop
  endfacet
  facet normal 1 0 0
    outer loop
      vertex 1.5 0 0
      vertex 1.5 12 0
      vertex 1.5 0 5
    endloop
  endfacet
  facet normal 0 -1 0
    outer loop
      vertex 3.7 12 0
      vertex 3.7 12 5
      vertex 1.5 12 5
    endloop
  endfacet
  facet normal -0 -1 -0
    outer loop
      vertex 1.5 12 0
      vertex 3.7 12 0
      vertex 1.5 12 5
    endloop
  endfacet
  facet normal -1 0 0
    outer loop
      vertex 3.7 12 5
      vertex 3.7 12 0
      vertex 3.7 0 5
    endloop
  endfacet
  facet normal -1 0 0
    outer loop
      vertex 3.7 0 5
      vertex 3.7 12 0
      vertex 3.7 0 0
    endloop
  endfacet
  facet normal 0 -1 0
    outer loop
      vertex 3.7 0 5
      vertex 3.7 0 0
      vertex 7 0 0
    endloop
  endfacet
  facet normal 0 -1 0
    outer loop
      vertex 7 0 5
      vertex 3.7 0 5
      vertex 7 0 0
    endloop
  endfacet
  facet normal 1 0 -0
    outer loop
      vertex 7 0 5
      vertex 7 0 0
      vertex 7 25 0
    endloop
  endfacet
  facet normal 1 0 0
    outer loop
      vertex 7 25 5
      vertex 7 0 5
      vertex 7 25 0
    endloop
  endfacet
  facet normal 0 1 0
    outer loop
      vertex 5.5 25 0
      vertex 5.5 25 5
      vertex 7 25 0
    endloop
  endfacet
  facet normal 0 1 0
    outer loop
      vertex 7 25 0
      vertex 5.5 25 5
      vertex 7 25 5
    endloop
  endfacet
  facet normal -1 0 0
    outer loop
      vertex 5.5 25 5
      vertex 5.5 25 0
      vertex 5.5 16 5
    endloop
  endfacet
  facet normal -1 0 0
    outer loop
      vertex 5.5 16 5
      vertex 5.5 25 0
      vertex 5.5 16 0
    endloop
  endfacet
  facet normal 0 1 0
    outer loop
      vertex 5.5 16 5
      vertex 5.5 16 0
      vertex 1.5 16 5
    endloop
  endfacet
  facet normal 0 1 -0
    outer loop
      vertex 1.5 16 5
      vertex 5.5 16 0
      vertex 1.5 16 0
    endloop
  endfacet
  facet normal 1 0 0
    outer loop
      vertex 1.5 25 0
      vertex 1.5 25 5
      vertex 1.5 16 5
    endloop
  endfacet
  facet normal 1 0 0
    outer loop
      vertex 1.5 16 0
      vertex 1.5 25 0
      vertex 1.5 16 5
    endloop
  endfacet
endsolid OpenSCAD_Model
