solid M8_Hall-O holder
facet normal -0.258819045102515 1.93229861477271e-015 -0.96592582628907
outer loop
vertex 21.414110472164 2.54929584448382 6.04548132206251
vertex 21.0 -2.8199664825479e-015 6.1
vertex 21.0 2.54929584448382 6.1
endloop
endfacet
facet normal -7.14671013630882e-015 1.93229861477271e-015 -1.0
outer loop
vertex 21.0 -2.8199664825479e-015 6.1
vertex 21.414110472164 2.54929584448382 6.04548132206251
vertex 21.4141104721641 -2.8199664825479e-015 6.04548132206251
endloop
endfacet
facet normal -0.499999999999994 1.8006156574504e-015 -0.866025403784442
outer loop
vertex 21.8 2.54929584448382 5.8856406460551
vertex 21.4141104721641 -2.8199664825479e-015 6.04548132206251
vertex 21.414110472164 2.54929584448382 6.04548132206251
endloop
endfacet
facet normal -0.258819045102515 1.93229861477271e-015 -0.96592582628907
outer loop
vertex 21.4141104721641 -2.8199664825479e-015 6.04548132206251
vertex 21.8 2.54929584448382 5.8856406460551
vertex 21.8 -2.8199664825479e-015 5.8856406460551
endloop
endfacet
facet normal -0.707106781186557 1.54622371873089e-015 -0.707106781186538
outer loop
vertex 22.1313708498985 2.54929584448382 5.63137084989848
vertex 21.8 -2.8199664825479e-015 5.8856406460551
vertex 21.8 2.54929584448382 5.8856406460551
endloop
endfacet
facet normal -0.499999999999994 1.8006156574504e-015 -0.866025403784442
outer loop
vertex 21.8 -2.8199664825479e-015 5.8856406460551
vertex 22.1313708498985 2.54929584448382 5.63137084989848
vertex 22.1313708498985 -2.8199664825479e-015 5.63137084989848
endloop
endfacet
facet normal -0.707106781186557 1.54622371873089e-015 -0.707106781186538
outer loop
vertex 22.1313708498985 2.54929584448382 5.63137084989848
vertex 22.3856406460551 -2.8199664825479e-015 5.3
vertex 22.1313708498985 -2.8199664825479e-015 5.63137084989848
endloop
endfacet
facet normal -0.866025403784451 1.18645918883537e-015 -0.499999999999979
outer loop
vertex 22.3856406460551 -2.8199664825479e-015 5.3
vertex 22.1313708498985 2.54929584448382 5.63137084989848
vertex 22.3856406460551 2.54929584448382 5.3
endloop
endfacet
facet normal -0.866025403784451 1.18645918883537e-015 -0.499999999999978
outer loop
vertex 22.3856406460551 2.54929584448382 5.3
vertex 22.5454813220625 0.0 4.91411047216403
vertex 22.3856406460551 -2.8199664825479e-015 5.3
endloop
endfacet
facet normal -0.965925826289064 7.45839425937334e-016 -0.258819045102538
outer loop
vertex 22.5454813220625 0.0 4.91411047216403
vertex 22.3856406460551 2.54929584448382 5.3
vertex 22.5454813220625 2.54929584448382 4.91411047216403
endloop
endfacet
facet normal 0.707106781186527 -1.54622371873094e-015 0.707106781186568
outer loop
vertex 19.8686291501016 2.54929584448382 3.36862915010152
vertex 19.6143593539449 2.8199664825479e-015 3.7
vertex 19.8686291501016 2.8199664825479e-015 3.36862915010152
endloop
endfacet
facet normal 0.86602540378443 -1.18645918883544e-015 0.500000000000016
outer loop
vertex 19.6143593539449 2.8199664825479e-015 3.7
vertex 19.8686291501016 2.54929584448382 3.36862915010152
vertex 19.6143593539449 2.54929584448382 3.7
endloop
endfacet
facet normal 0.86602540378443 -1.18645918883544e-015 0.500000000000016
outer loop
vertex 19.6143593539449 2.8199664825479e-015 3.7
vertex 19.4545186779375 2.54929584448382 4.08588952783597
vertex 19.4545186779375 0.0 4.08588952783597
endloop
endfacet
facet normal 0.965925826289077 -7.45839425937238e-016 0.258819045102487
outer loop
vertex 19.4545186779375 2.54929584448382 4.08588952783597
vertex 19.6143593539449 2.8199664825479e-015 3.7
vertex 19.6143593539449 2.54929584448382 3.7
endloop
endfacet
facet normal 0.965925826289077 -7.45839425937238e-016 0.258819045102487
outer loop
vertex 19.4545186779375 2.54929584448382 4.08588952783597
vertex 19.4 0.0 4.5
vertex 19.4545186779375 0.0 4.08588952783597
endloop
endfacet
facet normal 1.0 -2.54391938719493e-016 -3.20799956243287e-016
outer loop
vertex 19.4 0.0 4.5
vertex 19.4545186779375 2.54929584448382 4.08588952783597
vertex 19.4 2.54929584448382 4.5
endloop
endfacet
facet normal 1.0 -2.54391938719493e-016 -3.65355505721521e-016
outer loop
vertex 19.4 2.54929584448382 4.5
vertex 19.4545186779375 0.0 4.91411047216403
vertex 19.4 0.0 4.5
endloop
endfacet
facet normal 0.965925826289078 2.54391938719423e-016 -0.258819045102487
outer loop
vertex 19.4545186779375 0.0 4.91411047216403
vertex 19.4 2.54929584448382 4.5
vertex 19.4545186779375 2.54929584448382 4.91411047216403
endloop
endfacet
facet normal 0.965925826289077 2.54391938719423e-016 -0.258819045102487
outer loop
vertex 19.4545186779375 2.54929584448382 4.91411047216403
vertex 19.6143593539449 0.0 5.3
vertex 19.4545186779375 0.0 4.91411047216403
endloop
endfacet
facet normal 0.86602540378443 7.45839425937331e-016 -0.500000000000016
outer loop
vertex 19.6143593539449 0.0 5.3
vertex 19.4545186779375 2.54929584448382 4.91411047216403
vertex 19.6143593539449 2.54929584448382 5.3
endloop
endfacet
facet normal 0.86602540378443 7.45839425937331e-016 -0.500000000000016
outer loop
vertex 19.6143593539449 0.0 5.3
vertex 19.8686291501016 2.54929584448382 5.63137084989848
vertex 19.8686291501016 -2.8199664825479e-015 5.63137084989848
endloop
endfacet
facet normal 0.707106781186528 1.18645918883545e-015 -0.707106781186567
outer loop
vertex 19.8686291501016 2.54929584448382 5.63137084989848
vertex 19.6143593539449 0.0 5.3
vertex 19.6143593539449 2.54929584448382 5.3
endloop
endfacet
facet normal 0.500000000000012 1.54622371873088e-015 -0.866025403784432
outer loop
vertex 20.2 2.54929584448382 5.8856406460551
vertex 19.8686291501016 -2.8199664825479e-015 5.63137084989848
vertex 19.8686291501016 2.54929584448382 5.63137084989848
endloop
endfacet
facet normal 0.707106781186528 1.18645918883545e-015 -0.707106781186568
outer loop
vertex 19.8686291501016 -2.8199664825479e-015 5.63137084989848
vertex 20.2 2.54929584448382 5.8856406460551
vertex 20.2 -2.8199664825479e-015 5.8856406460551
endloop
endfacet
facet normal 0.258819045102528 1.80061565745039e-015 -0.965925826289067
outer loop
vertex 20.585889527836 2.54929584448382 6.04548132206251
vertex 20.2 -2.8199664825479e-015 5.8856406460551
vertex 20.2 2.54929584448382 5.8856406460551
endloop
endfacet
facet normal 0.500000000000012 1.54622371873088e-015 -0.866025403784432
outer loop
vertex 20.2 -2.8199664825479e-015 5.8856406460551
vertex 20.585889527836 2.54929584448382 6.04548132206251
vertex 20.585889527836 -2.8199664825479e-015 6.04548132206251
endloop
endfacet
facet normal -6.95957682850023e-015 1.93229861477271e-015 -1.0
outer loop
vertex 21.0 2.54929584448382 6.1
vertex 20.585889527836 -2.8199664825479e-015 6.04548132206251
vertex 20.585889527836 2.54929584448382 6.04548132206251
endloop
endfacet
facet normal 0.258819045102528 1.80061565745039e-015 -0.965925826289066
outer loop
vertex 20.585889527836 -2.8199664825479e-015 6.04548132206251
vertex 21.0 2.54929584448382 6.1
vertex 21.0 -2.8199664825479e-015 6.1
endloop
endfacet
facet normal -0.965925826289064 7.45839425937333e-016 -0.258819045102538
outer loop
vertex 22.5454813220625 2.54929584448382 4.91411047216403
vertex 22.6 0.0 4.5
vertex 22.5454813220625 0.0 4.91411047216403
endloop
endfacet
facet normal -1.0 2.54391938719494e-016 2.67333296869409e-017
outer loop
vertex 22.6 0.0 4.5
vertex 22.5454813220625 2.54929584448382 4.91411047216403
vertex 22.6 2.54929584448382 4.5
endloop
endfacet
facet normal -1.0 2.54391938719494e-016 -1.7822219791294e-017
outer loop
vertex 22.6 2.54929584448382 4.5
vertex 22.5454813220625 0.0 4.08588952783597
vertex 22.6 0.0 4.5
endloop
endfacet
facet normal -0.965925826289064 -2.54391938719526e-016 0.258819045102538
outer loop
vertex 22.5454813220625 0.0 4.08588952783597
vertex 22.6 2.54929584448382 4.5
vertex 22.5454813220625 2.54929584448382 4.08588952783597
endloop
endfacet
facet normal -0.965925826289064 -2.54391938719526e-016 0.258819045102538
outer loop
vertex 22.5454813220625 2.54929584448382 4.08588952783597
vertex 22.3856406460551 0.0 3.7
vertex 22.5454813220625 0.0 4.08588952783597
endloop
endfacet
facet normal -0.866025403784451 -7.45839425937254e-016 0.499999999999979
outer loop
vertex 22.3856406460551 0.0 3.7
vertex 22.5454813220625 2.54929584448382 4.08588952783597
vertex 22.3856406460551 2.54929584448382 3.7
endloop
endfacet
facet normal -0.866025403784451 -7.45839425937255e-016 0.499999999999979
outer loop
vertex 22.3856406460551 2.54929584448382 3.7
vertex 22.1313708498985 2.8199664825479e-015 3.36862915010152
vertex 22.3856406460551 0.0 3.7
endloop
endfacet
facet normal -0.707106781186558 -1.18645918883539e-015 0.707106781186538
outer loop
vertex 22.1313708498985 2.8199664825479e-015 3.36862915010152
vertex 22.3856406460551 2.54929584448382 3.7
vertex 22.1313708498985 2.54929584448382 3.36862915010153
endloop
endfacet
facet normal -0.5 0.866025403784439 -6.98682314105684e-016
outer loop
vertex 1.12798659301916e-014 11.0452994616207 9.0
vertex 2.00000000000002 12.2 1.40998324127395e-015
vertex 2.39697151016571e-014 11.0452994616207 1.40998324127395e-015
endloop
endfacet
facet normal -0.5 0.866025403784439 -6.98682314105684e-016
outer loop
vertex 2.00000000000002 12.2 1.40998324127395e-015
vertex 1.12798659301916e-014 11.0452994616207 9.0
vertex 2.00000000000001 12.2 9.0
endloop
endfacet
facet normal -0.499999999999994 -1.54622371873091e-015 0.866025403784442
outer loop
vertex 21.8 2.8199664825479e-015 3.1143593539449
vertex 22.1313708498985 2.54929584448382 3.36862915010153
vertex 21.8 2.54929584448382 3.1143593539449
endloop
endfacet
facet normal -0.707106781186557 -1.18645918883539e-015 0.707106781186538
outer loop
vertex 22.1313708498985 2.54929584448382 3.36862915010153
vertex 21.8 2.8199664825479e-015 3.1143593539449
vertex 22.1313708498985 2.8199664825479e-015 3.36862915010152
endloop
endfacet
facet normal -0.258819045102515 -1.8006156574504e-015 0.96592582628907
outer loop
vertex 21.4141104721641 2.8199664825479e-015 2.95451867793749
vertex 21.8 2.54929584448382 3.1143593539449
vertex 21.414110472164 2.54929584448382 2.9545186779375
endloop
endfacet
facet normal -0.499999999999994 -1.54622371873091e-015 0.866025403784442
outer loop
vertex 21.8 2.54929584448382 3.1143593539449
vertex 21.4141104721641 2.8199664825479e-015 2.95451867793749
vertex 21.8 2.8199664825479e-015 3.1143593539449
endloop
endfacet
facet normal -7.98435446649963e-015 -1.93229861477271e-015 1.0
outer loop
vertex 21.0 2.8199664825479e-015 2.9
vertex 21.414110472164 2.54929584448382 2.9545186779375
vertex 21.0 2.54929584448382 2.90000000000001
endloop
endfacet
facet normal -0.258819045102515 -1.8006156574504e-015 0.96592582628907
outer loop
vertex 21.414110472164 2.54929584448382 2.9545186779375
vertex 21.0 2.8199664825479e-015 2.9
vertex 21.4141104721641 2.8199664825479e-015 2.95451867793749
endloop
endfacet
facet normal 0.258819045102527 -1.93229861477271e-015 0.965925826289067
outer loop
vertex 20.585889527836 2.8199664825479e-015 2.95451867793749
vertex 21.0 2.54929584448382 2.90000000000001
vertex 20.585889527836 2.54929584448382 2.9545186779375
endloop
endfacet
facet normal -7.80613226858669e-015 -1.93229861477271e-015 1.0
outer loop
vertex 21.0 2.54929584448382 2.90000000000001
vertex 20.585889527836 2.8199664825479e-015 2.95451867793749
vertex 21.0 2.8199664825479e-015 2.9
endloop
endfacet
facet normal 0.500000000000011 -1.80061565745038e-015 0.866025403784432
outer loop
vertex 20.2 2.8199664825479e-015 3.1143593539449
vertex 20.585889527836 2.54929584448382 2.9545186779375
vertex 20.2 2.54929584448382 3.1143593539449
endloop
endfacet
facet normal 0.258819045102527 -1.93229861477271e-015 0.965925826289067
outer loop
vertex 20.585889527836 2.54929584448382 2.9545186779375
vertex 20.2 2.8199664825479e-015 3.1143593539449
vertex 20.585889527836 2.8199664825479e-015 2.95451867793749
endloop
endfacet
facet normal 0.707106781186527 -1.54622371873094e-015 0.707106781186568
outer loop
vertex 19.8686291501016 2.8199664825479e-015 3.36862915010152
vertex 20.2 2.54929584448382 3.1143593539449
vertex 19.8686291501016 2.54929584448382 3.36862915010152
endloop
endfacet
facet normal 0.500000000000012 -1.80061565745038e-015 0.866025403784432
outer loop
vertex 20.2 2.54929584448382 3.1143593539449
vertex 19.8686291501016 2.8199664825479e-015 3.36862915010152
vertex 20.2 2.8199664825479e-015 3.1143593539449
endloop
endfacet
facet normal -0.5 -0.866025403784439 7.06020351246689e-016
outer loop
vertex 2.00000000000001 -2.8199664825479e-015 9.0
vertex -1.5862311464332e-015 1.15470053837925 2.11497486191092e-015
vertex 2.0 -2.8199664825479e-015 -7.04991620636974e-016
endloop
endfacet
facet normal -0.5 -0.866025403784439 7.06020351246689e-016
outer loop
vertex -1.5862311464332e-015 1.15470053837925 2.11497486191092e-015
vertex 2.00000000000001 -2.8199664825479e-015 9.0
vertex 1.11036180250323e-014 1.15470053837925 9.0
endloop
endfacet
facet normal 1.0 -1.850192181371e-013 2.86696592392318e-014
outer loop
vertex 25.0000000000009 11.0452994616213 4.65294469620403e-014
vertex 25.0000000000003 9.65070415551619 8.99999999999996
vertex 25.0000000000003 9.65070415551619 -4.51194637207664e-014
endloop
endfacet
facet normal 1.0 -1.850192181371e-013 2.86696592392318e-014
outer loop
vertex 25.0000000000003 9.65070415551619 8.99999999999996
vertex 25.0000000000009 11.0452994616213 4.65294469620403e-014
vertex 25.0000000000003 11.0452994616207 8.99999999999994
endloop
endfacet
facet normal 0.0 -1.0 0.0
outer loop
vertex 25.0000000000003 9.65070415551619 -4.51194637207664e-014
vertex 21.8 9.65070415551622 3.11435935394489
vertex 14.55 9.65070415551619 -4.51194637207664e-014
endloop
endfacet
facet normal 0.0 -1.0 0.0
outer loop
vertex 21.8 9.65070415551622 3.11435935394489
vertex 25.0000000000003 9.65070415551619 -4.51194637207664e-014
vertex 22.1313708498985 9.65070415551622 3.36862915010151
endloop
endfacet
facet normal 0.0 -1.0 0.0
outer loop
vertex 22.1313708498985 9.65070415551622 3.36862915010151
vertex 25.0000000000003 9.65070415551619 -4.51194637207664e-014
vertex 22.3856406460551 9.65070415551621 3.69999999999999
endloop
endfacet
facet normal 0.0 -1.0 0.0
outer loop
vertex 22.3856406460551 9.65070415551621 3.69999999999999
vertex 25.0000000000003 9.65070415551619 -4.51194637207664e-014
vertex 25.0000000000003 9.65070415551619 8.99999999999996
endloop
endfacet
facet normal 0.0 -1.0 0.0
outer loop
vertex 14.55 9.65070415551619 -4.51194637207664e-014
vertex 21.8 9.65070415551622 3.11435935394489
vertex 21.4141104721641 9.65070415551622 2.95451867793748
endloop
endfacet
facet normal 0.0 -1.0 0.0
outer loop
vertex 14.55 9.65070415551619 -4.51194637207664e-014
vertex 21.4141104721641 9.65070415551622 2.95451867793748
vertex 21.0 9.65070415551622 2.89999999999999
endloop
endfacet
facet normal 0.0 -1.0 0.0
outer loop
vertex 22.3856406460551 9.65070415551621 3.69999999999999
vertex 25.0000000000003 9.65070415551619 8.99999999999996
vertex 22.5454813220625 9.65070415551621 4.08588952783596
endloop
endfacet
facet normal 0.0 -1.0 0.0
outer loop
vertex 22.5454813220625 9.65070415551621 4.08588952783596
vertex 25.0000000000003 9.65070415551619 8.99999999999996
vertex 22.6 9.65070415551621 4.49999999999999
endloop
endfacet
facet normal 0.0 -1.0 0.0
outer loop
vertex 22.6 9.65070415551621 4.49999999999999
vertex 25.0000000000003 9.65070415551619 8.99999999999996
vertex 22.5454813220625 9.65070415551621 4.91411047216402
endloop
endfacet
facet normal 0.0 -1.0 0.0
outer loop
vertex 22.5454813220625 9.65070415551621 4.91411047216402
vertex 25.0000000000003 9.65070415551619 8.99999999999996
vertex 22.3856406460551 9.65070415551621 5.29999999999999
endloop
endfacet
facet normal 0.0 -1.0 0.0
outer loop
vertex 22.3856406460551 9.65070415551621 5.29999999999999
vertex 25.0000000000003 9.65070415551619 8.99999999999996
vertex 22.1313708498985 9.65070415551621 5.63137084989847
endloop
endfacet
facet normal 0.0 -1.0 0.0
outer loop
vertex 22.1313708498985 9.65070415551621 5.63137084989847
vertex 25.0000000000003 9.65070415551619 8.99999999999996
vertex 21.8 9.65070415551621 5.88564064605509
endloop
endfacet
facet normal 0.0 -1.0 0.0
outer loop
vertex 21.8 9.65070415551621 5.88564064605509
vertex 25.0000000000003 9.65070415551619 8.99999999999996
vertex 21.4141104721641 9.65070415551621 6.0454813220625
endloop
endfacet
facet normal 0.0 -1.0 0.0
outer loop
vertex 21.4141104721641 9.65070415551621 6.0454813220625
vertex 25.0000000000003 9.65070415551619 8.99999999999996
vertex 21.0 9.65070415551621 6.09999999999999
endloop
endfacet
facet normal 0.0 -1.0 0.0
outer loop
vertex 14.55 9.65070415551619 -4.51194637207664e-014
vertex 19.8686291501016 9.65070415551622 3.36862915010151
vertex 14.55 9.65070415551619 8.99999999999996
endloop
endfacet
facet normal 0.0 -1.0 0.0
outer loop
vertex 19.8686291501016 9.65070415551622 3.36862915010151
vertex 14.55 9.65070415551619 -4.51194637207664e-014
vertex 20.2 9.65070415551622 3.11435935394489
endloop
endfacet
facet normal 0.0 -1.0 0.0
outer loop
vertex 20.2 9.65070415551622 3.11435935394489
vertex 14.55 9.65070415551619 -4.51194637207664e-014
vertex 20.585889527836 9.65070415551622 2.95451867793748
endloop
endfacet
facet normal 0.0 -1.0 0.0
outer loop
vertex 20.585889527836 9.65070415551622 2.95451867793748
vertex 14.55 9.65070415551619 -4.51194637207664e-014
vertex 21.0 9.65070415551622 2.89999999999999
endloop
endfacet
facet normal 0.0 -1.0 0.0
outer loop
vertex 14.55 9.65070415551619 8.99999999999996
vertex 19.8686291501016 9.65070415551622 3.36862915010151
vertex 19.6143593539449 9.65070415551622 3.69999999999999
endloop
endfacet
facet normal 0.0 -1.0 0.0
outer loop
vertex 14.55 9.65070415551619 8.99999999999996
vertex 19.6143593539449 9.65070415551622 3.69999999999999
vertex 19.4545186779375 9.65070415551621 4.08588952783596
endloop
endfacet
facet normal 0.0 -1.0 0.0
outer loop
vertex 14.55 9.65070415551619 8.99999999999996
vertex 19.4545186779375 9.65070415551621 4.08588952783596
vertex 19.4 9.65070415551621 4.49999999999999
endloop
endfacet
facet normal 0.0 -1.0 0.0
outer loop
vertex 14.55 9.65070415551619 8.99999999999996
vertex 19.4 9.65070415551621 4.49999999999999
vertex 19.4545186779375 9.65070415551621 4.91411047216402
endloop
endfacet
facet normal 0.0 -1.0 0.0
outer loop
vertex 14.55 9.65070415551619 8.99999999999996
vertex 19.4545186779375 9.65070415551621 4.91411047216402
vertex 19.6143593539449 9.65070415551621 5.29999999999999
endloop
endfacet
facet normal 0.0 -1.0 0.0
outer loop
vertex 14.55 9.65070415551619 8.99999999999996
vertex 19.6143593539449 9.65070415551621 5.29999999999999
vertex 19.8686291501016 9.65070415551621 5.63137084989846
endloop
endfacet
facet normal 0.0 -1.0 0.0
outer loop
vertex 14.55 9.65070415551619 8.99999999999996
vertex 19.8686291501016 9.65070415551621 5.63137084989846
vertex 20.2 9.65070415551621 5.88564064605509
endloop
endfacet
facet normal 0.0 -1.0 0.0
outer loop
vertex 14.55 9.65070415551619 8.99999999999996
vertex 20.2 9.65070415551621 5.88564064605509
vertex 20.585889527836 9.65070415551621 6.0454813220625
endloop
endfacet
facet normal 0.0 -1.0 0.0
outer loop
vertex 14.55 9.65070415551619 8.99999999999996
vertex 20.585889527836 9.65070415551621 6.0454813220625
vertex 21.0 9.65070415551621 6.09999999999999
endloop
endfacet
facet normal 0.0 -1.0 0.0
outer loop
vertex 14.55 9.65070415551619 8.99999999999996
vertex 21.0 9.65070415551621 6.09999999999999
vertex 25.0000000000003 9.65070415551619 8.99999999999996
endloop
endfacet
facet normal 0.707106781186569 0.707106781186526 0.0
outer loop
vertex 9.6008621971351 3.20086219713516 9.0
vertex 10.4499999999999 2.54929584448381 0.0
vertex 9.6008621971351 3.20086219713516 0.0
endloop
endfacet
facet normal 0.499999999999987 0.866025403784446 0.0
outer loop
vertex 10.4499999999999 2.54929584448381 0.0
vertex 9.6008621971351 3.20086219713516 9.0
vertex 10.4499999999999 2.54929584448381 9.0
endloop
endfacet
facet normal 0.499999999999987 0.866025403784446 0.0
outer loop
vertex 10.4499999999999 2.54929584448381 9.0
vertex 11.4388419150797 2.13970411221482 0.0
vertex 10.4499999999999 2.54929584448381 0.0
endloop
endfacet
facet normal 0.2588190451025 0.965925826289074 0.0
outer loop
vertex 11.4388419150797 2.13970411221482 0.0
vertex 10.4499999999999 2.54929584448381 9.0
vertex 11.4388419150797 2.13970411221482 9.0
endloop
endfacet
facet normal 0.2588190451025 0.965925826289074 0.0
outer loop
vertex 11.4388419150797 2.13970411221482 9.0
vertex 12.5 2.00000000000001 0.0
vertex 11.4388419150797 2.13970411221482 0.0
endloop
endfacet
facet normal 0.130526192220052 0.99144486137381 0.0
outer loop
vertex 12.5 2.00000000000001 0.0
vertex 11.4388419150797 2.13970411221482 9.0
vertex 12.5 2.00000000000001 9.0
endloop
endfacet
facet normal -0.130526192220052 0.99144486137381 1.24831762309106e-019
outer loop
vertex 12.5 2.00000000000001 0.0
vertex 13.5611580849203 2.13970411221482 8.99999999999994
vertex 13.5611580849203 2.13970411221482 -5.78093128922319e-014
endloop
endfacet
facet normal -0.258819045102513 0.96592582628907 6.2954465332612e-020
outer loop
vertex 13.5611580849203 2.13970411221482 8.99999999999994
vertex 12.5 2.00000000000001 0.0
vertex 12.5 2.00000000000001 9.0
endloop
endfacet
facet normal -0.258819045102513 0.96592582628907 6.2954465332612e-020
outer loop
vertex 13.5611580849203 2.13970411221482 8.99999999999994
vertex 14.55 2.54929584448381 -5.78093128922319e-014
vertex 13.5611580849203 2.13970411221482 -5.78093128922319e-014
endloop
endfacet
facet normal -0.382683432365078 0.923879532511291 0.0
outer loop
vertex 14.55 2.54929584448381 -5.78093128922319e-014
vertex 13.5611580849203 2.13970411221482 8.99999999999994
vertex 14.55 2.54929584448381 8.99999999999994
endloop
endfacet
facet normal 0.0 1.0 0.0
outer loop
vertex 14.55 2.54929584448381 -5.78093128922319e-014
vertex 20.2 2.54929584448382 3.1143593539449
vertex 25.0000000000003 2.54929584448381 -5.78093128922319e-014
endloop
endfacet
facet normal 0.0 1.0 0.0
outer loop
vertex 20.2 2.54929584448382 3.1143593539449
vertex 14.55 2.54929584448381 -5.78093128922319e-014
vertex 19.8686291501016 2.54929584448382 3.36862915010152
endloop
endfacet
facet normal 0.0 1.0 0.0
outer loop
vertex 19.8686291501016 2.54929584448382 3.36862915010152
vertex 14.55 2.54929584448381 -5.78093128922319e-014
vertex 14.55 2.54929584448381 8.99999999999994
endloop
endfacet
facet normal 0.0 1.0 0.0
outer loop
vertex 25.0000000000003 2.54929584448381 -5.78093128922319e-014
vertex 20.2 2.54929584448382 3.1143593539449
vertex 20.585889527836 2.54929584448382 2.9545186779375
endloop
endfacet
facet normal 0.0 1.0 0.0
outer loop
vertex 25.0000000000003 2.54929584448381 -5.78093128922319e-014
vertex 20.585889527836 2.54929584448382 2.9545186779375
vertex 21.0 2.54929584448382 2.90000000000001
endloop
endfacet
facet normal 0.0 1.0 0.0
outer loop
vertex 19.8686291501016 2.54929584448382 3.36862915010152
vertex 14.55 2.54929584448381 8.99999999999994
vertex 19.6143593539449 2.54929584448382 3.7
endloop
endfacet
facet normal 0.0 1.0 0.0
outer loop
vertex 19.6143593539449 2.54929584448382 3.7
vertex 14.55 2.54929584448381 8.99999999999994
vertex 19.4545186779375 2.54929584448382 4.08588952783597
endloop
endfacet
facet normal 0.0 1.0 0.0
outer loop
vertex 19.4545186779375 2.54929584448382 4.08588952783597
vertex 14.55 2.54929584448381 8.99999999999994
vertex 19.4 2.54929584448382 4.5
endloop
endfacet
facet normal 0.0 1.0 0.0
outer loop
vertex 19.4 2.54929584448382 4.5
vertex 14.55 2.54929584448381 8.99999999999994
vertex 19.4545186779375 2.54929584448382 4.91411047216403
endloop
endfacet
facet normal 0.0 1.0 0.0
outer loop
vertex 19.4545186779375 2.54929584448382 4.91411047216403
vertex 14.55 2.54929584448381 8.99999999999994
vertex 19.6143593539449 2.54929584448382 5.3
endloop
endfacet
facet normal 0.0 1.0 0.0
outer loop
vertex 19.6143593539449 2.54929584448382 5.3
vertex 14.55 2.54929584448381 8.99999999999994
vertex 19.8686291501016 2.54929584448382 5.63137084989848
endloop
endfacet
facet normal 0.0 1.0 0.0
outer loop
vertex 19.8686291501016 2.54929584448382 5.63137084989848
vertex 14.55 2.54929584448381 8.99999999999994
vertex 20.2 2.54929584448382 5.8856406460551
endloop
endfacet
facet normal 0.0 1.0 0.0
outer loop
vertex 20.2 2.54929584448382 5.8856406460551
vertex 14.55 2.54929584448381 8.99999999999994
vertex 20.585889527836 2.54929584448382 6.04548132206251
endloop
endfacet
facet normal 0.0 1.0 0.0
outer loop
vertex 20.585889527836 2.54929584448382 6.04548132206251
vertex 14.55 2.54929584448381 8.99999999999994
vertex 21.0 2.54929584448382 6.1
endloop
endfacet
facet normal 0.0 1.0 0.0
outer loop
vertex 25.0000000000003 2.54929584448381 -5.78093128922319e-014
vertex 22.3856406460551 2.54929584448382 3.7
vertex 25.0000000000003 2.54929584448381 8.99999999999994
endloop
endfacet
facet normal 0.0 1.0 0.0
outer loop
vertex 22.3856406460551 2.54929584448382 3.7
vertex 25.0000000000003 2.54929584448381 -5.78093128922319e-014
vertex 22.1313708498985 2.54929584448382 3.36862915010153
endloop
endfacet
facet normal 0.0 1.0 0.0
outer loop
vertex 22.1313708498985 2.54929584448382 3.36862915010153
vertex 25.0000000000003 2.54929584448381 -5.78093128922319e-014
vertex 21.8 2.54929584448382 3.1143593539449
endloop
endfacet
facet normal 0.0 1.0 0.0
outer loop
vertex 21.8 2.54929584448382 3.1143593539449
vertex 25.0000000000003 2.54929584448381 -5.78093128922319e-014
vertex 21.414110472164 2.54929584448382 2.9545186779375
endloop
endfacet
facet normal 0.0 1.0 0.0
outer loop
vertex 21.414110472164 2.54929584448382 2.9545186779375
vertex 25.0000000000003 2.54929584448381 -5.78093128922319e-014
vertex 21.0 2.54929584448382 2.90000000000001
endloop
endfacet
facet normal 0.0 1.0 0.0
outer loop
vertex 25.0000000000003 2.54929584448381 8.99999999999994
vertex 22.3856406460551 2.54929584448382 3.7
vertex 22.5454813220625 2.54929584448382 4.08588952783597
endloop
endfacet
facet normal 0.0 1.0 0.0
outer loop
vertex 25.0000000000003 2.54929584448381 8.99999999999994
vertex 22.5454813220625 2.54929584448382 4.08588952783597
vertex 22.6 2.54929584448382 4.5
endloop
endfacet
facet normal 0.0 1.0 0.0
outer loop
vertex 25.0000000000003 2.54929584448381 8.99999999999994
vertex 22.6 2.54929584448382 4.5
vertex 22.5454813220625 2.54929584448382 4.91411047216403
endloop
endfacet
facet normal 0.0 1.0 0.0
outer loop
vertex 25.0000000000003 2.54929584448381 8.99999999999994
vertex 22.5454813220625 2.54929584448382 4.91411047216403
vertex 22.3856406460551 2.54929584448382 5.3
endloop
endfacet
facet normal 0.0 1.0 0.0
outer loop
vertex 25.0000000000003 2.54929584448381 8.99999999999994
vertex 22.3856406460551 2.54929584448382 5.3
vertex 22.1313708498985 2.54929584448382 5.63137084989848
endloop
endfacet
facet normal 0.0 1.0 0.0
outer loop
vertex 25.0000000000003 2.54929584448381 8.99999999999994
vertex 22.1313708498985 2.54929584448382 5.63137084989848
vertex 21.8 2.54929584448382 5.8856406460551
endloop
endfacet
facet normal 0.0 1.0 0.0
outer loop
vertex 25.0000000000003 2.54929584448381 8.99999999999994
vertex 21.8 2.54929584448382 5.8856406460551
vertex 21.414110472164 2.54929584448382 6.04548132206251
endloop
endfacet
facet normal 0.0 1.0 0.0
outer loop
vertex 25.0000000000003 2.54929584448381 8.99999999999994
vertex 21.414110472164 2.54929584448382 6.04548132206251
vertex 21.0 2.54929584448382 6.1
endloop
endfacet
facet normal 0.0 1.0 0.0
outer loop
vertex 25.0000000000003 2.54929584448381 8.99999999999994
vertex 21.0 2.54929584448382 6.1
vertex 14.55 2.54929584448381 8.99999999999994
endloop
endfacet
facet normal 1.0 1.80975082221534e-013 2.80430000208877e-014
outer loop
vertex 25.0000000000003 2.54929584448381 -5.78093128922319e-014
vertex 25.0000000000003 1.15470053837925 8.99999999999993
vertex 25.0000000000009 1.15470053837872 3.94795307556706e-014
endloop
endfacet
facet normal 1.0 1.80975082221534e-013 2.80430000208877e-014
outer loop
vertex 25.0000000000003 1.15470053837925 8.99999999999993
vertex 25.0000000000003 2.54929584448381 -5.78093128922319e-014
vertex 25.0000000000003 2.54929584448381 8.99999999999994
endloop
endfacet
facet normal -1.25596934316362e-014 -1.0 2.93059513404849e-014
outer loop
vertex 20.2 2.8199664825479e-015 3.1143593539449
vertex 4.0 2.8199664825479e-015 3.0
vertex 20.585889527836 2.8199664825479e-015 2.95451867793749
endloop
endfacet
facet normal -1.25596934316362e-014 -1.0 2.93059513404849e-014
outer loop
vertex 4.0 2.8199664825479e-015 3.0
vertex 20.2 2.8199664825479e-015 3.1143593539449
vertex 4.38822856765378 2.8199664825479e-015 3.0511112605664
endloop
endfacet
facet normal -1.25596934316362e-014 -1.0 2.93059513404849e-014
outer loop
vertex 4.38822856765378 2.8199664825479e-015 3.0511112605664
vertex 20.2 2.8199664825479e-015 3.1143593539449
vertex 4.75000000000001 2.8199664825479e-015 3.20096189432334
endloop
endfacet
facet normal -1.25596934316362e-014 -1.0 2.93059513404849e-014
outer loop
vertex 4.75000000000001 2.8199664825479e-015 3.20096189432334
vertex 20.2 2.8199664825479e-015 3.1143593539449
vertex 19.8686291501016 2.8199664825479e-015 3.36862915010152
endloop
endfacet
facet normal -1.25596934316362e-014 -1.0 2.93059513404849e-014
outer loop
vertex 4.75000000000001 2.8199664825479e-015 3.20096189432334
vertex 19.8686291501016 2.8199664825479e-015 3.36862915010152
vertex 5.06066017177982 2.8199664825479e-015 3.43933982822018
endloop
endfacet
facet normal -1.25596934316362e-014 -1.0 2.93059513404849e-014
outer loop
vertex 5.06066017177982 2.8199664825479e-015 3.43933982822018
vertex 19.8686291501016 2.8199664825479e-015 3.36862915010152
vertex 19.6143593539449 2.8199664825479e-015 3.7
endloop
endfacet
facet normal -1.25596934316362e-014 -1.0 2.93059513404849e-014
outer loop
vertex 5.06066017177982 2.8199664825479e-015 3.43933982822018
vertex 19.6143593539449 2.8199664825479e-015 3.7
vertex 5.29903810567667 0.0 3.75
endloop
endfacet
facet normal -1.25596934316362e-014 -1.0 2.93059513404849e-014
outer loop
vertex 5.29903810567667 0.0 3.75
vertex 19.6143593539449 2.8199664825479e-015 3.7
vertex 19.4545186779375 0.0 4.08588952783597
endloop
endfacet
facet normal -1.25596934316362e-014 -1.0 2.93059513404849e-014
outer loop
vertex 5.29903810567667 0.0 3.75
vertex 19.4545186779375 0.0 4.08588952783597
vertex 5.4488887394336 0.0 4.11177143234622
endloop
endfacet
facet normal -1.25596934316362e-014 -1.0 2.93059513404849e-014
outer loop
vertex 5.4488887394336 0.0 4.11177143234622
vertex 19.4545186779375 0.0 4.08588952783597
vertex 19.4 0.0 4.5
endloop
endfacet
facet normal -1.25596934316362e-014 -1.0 2.93059513404849e-014
outer loop
vertex 5.4488887394336 0.0 4.11177143234622
vertex 19.4 0.0 4.5
vertex 5.5 0.0 4.5
endloop
endfacet
facet normal -1.25596934316362e-014 -1.0 2.93059513404849e-014
outer loop
vertex 5.5 0.0 4.5
vertex 19.4 0.0 4.5
vertex 19.4545186779375 0.0 4.91411047216403
endloop
endfacet
facet normal -1.25596934316362e-014 -1.0 2.93059513404849e-014
outer loop
vertex 5.5 0.0 4.5
vertex 19.4545186779375 0.0 4.91411047216403
vertex 5.4488887394336 0.0 4.88822856765378
endloop
endfacet
facet normal -1.25596934316362e-014 -1.0 2.93059513404849e-014
outer loop
vertex 5.4488887394336 0.0 4.88822856765378
vertex 19.4545186779375 0.0 4.91411047216403
vertex 5.29903810567667 -2.8199664825479e-015 5.25
endloop
endfacet
facet normal -1.25596934316362e-014 -1.0 2.93059513404849e-014
outer loop
vertex 5.29903810567667 -2.8199664825479e-015 5.25
vertex 19.4545186779375 0.0 4.91411047216403
vertex 19.6143593539449 0.0 5.3
endloop
endfacet
facet normal -1.25596934316362e-014 -1.0 2.93059513404849e-014
outer loop
vertex 5.29903810567667 -2.8199664825479e-015 5.25
vertex 19.6143593539449 0.0 5.3
vertex 5.06066017177982 -2.8199664825479e-015 5.56066017177982
endloop
endfacet
facet normal -1.25596934316362e-014 -1.0 2.93059513404849e-014
outer loop
vertex 5.06066017177982 -2.8199664825479e-015 5.56066017177982
vertex 19.6143593539449 0.0 5.3
vertex 19.8686291501016 -2.8199664825479e-015 5.63137084989848
endloop
endfacet
facet normal -1.25596934316362e-014 -1.0 2.93059513404849e-014
outer loop
vertex 5.06066017177982 -2.8199664825479e-015 5.56066017177982
vertex 19.8686291501016 -2.8199664825479e-015 5.63137084989848
vertex 4.75000000000001 -2.8199664825479e-015 5.79903810567666
endloop
endfacet
facet normal -1.25596934316362e-014 -1.0 2.93059513404849e-014
outer loop
vertex 4.75000000000001 -2.8199664825479e-015 5.79903810567666
vertex 19.8686291501016 -2.8199664825479e-015 5.63137084989848
vertex 20.2 -2.8199664825479e-015 5.8856406460551
endloop
endfacet
facet normal -1.25596934316362e-014 -1.0 2.93059513404849e-014
outer loop
vertex 4.75000000000001 -2.8199664825479e-015 5.79903810567666
vertex 20.2 -2.8199664825479e-015 5.8856406460551
vertex 4.38822856765378 -2.8199664825479e-015 5.9488887394336
endloop
endfacet
facet normal -1.25596934316362e-014 -1.0 2.93059513404849e-014
outer loop
vertex 4.38822856765378 -2.8199664825479e-015 5.9488887394336
vertex 20.2 -2.8199664825479e-015 5.8856406460551
vertex 20.585889527836 -2.8199664825479e-015 6.04548132206251
endloop
endfacet
facet normal -1.25596934316362e-014 -1.0 2.93059513404849e-014
outer loop
vertex 4.38822856765378 -2.8199664825479e-015 5.9488887394336
vertex 20.585889527836 -2.8199664825479e-015 6.04548132206251
vertex 4.0 -2.8199664825479e-015 6.0
endloop
endfacet
facet normal -1.25596934316362e-014 -1.0 2.93059513404849e-014
outer loop
vertex 23.0000000000009 -5.30327090611282e-013 0.0
vertex 21.4141104721641 2.8199664825479e-015 2.95451867793749
vertex 21.0 2.8199664825479e-015 2.9
endloop
endfacet
facet normal -1.25596934316362e-014 -1.0 2.93059513404849e-014
outer loop
vertex 21.4141104721641 2.8199664825479e-015 2.95451867793749
vertex 23.0000000000009 -5.30327090611282e-013 0.0
vertex 21.8 2.8199664825479e-015 3.1143593539449
endloop
endfacet
facet normal -1.25596934316362e-014 -1.0 2.93059513404849e-014
outer loop
vertex 21.8 2.8199664825479e-015 3.1143593539449
vertex 23.0000000000009 -5.30327090611282e-013 0.0
vertex 22.1313708498985 2.8199664825479e-015 3.36862915010152
endloop
endfacet
facet normal -1.25596934316362e-014 -1.0 2.93059513404849e-014
outer loop
vertex 22.1313708498985 2.8199664825479e-015 3.36862915010152
vertex 23.0000000000009 -5.30327090611282e-013 0.0
vertex 22.3856406460551 0.0 3.7
endloop
endfacet
facet normal -1.25596934316362e-014 -1.0 2.93059513404849e-014
outer loop
vertex 22.3856406460551 0.0 3.7
vertex 23.0000000000009 -5.30327090611282e-013 0.0
vertex 22.5454813220625 0.0 4.08588952783597
endloop
endfacet
facet normal -1.25596934316362e-014 -1.0 2.93059513404849e-014
outer loop
vertex 22.5454813220625 0.0 4.08588952783597
vertex 23.0000000000009 -5.30327090611282e-013 0.0
vertex 22.6 0.0 4.5
endloop
endfacet
facet normal -1.25596934316362e-014 -1.0 2.93059513404849e-014
outer loop
vertex 22.6 0.0 4.5
vertex 23.0000000000009 -5.30327090611282e-013 0.0
vertex 23.0000000000003 -2.8199664825479e-015 8.99999999999989
endloop
endfacet
facet normal -1.25596934316362e-014 -1.0 2.93059513404849e-014
outer loop
vertex 22.6 0.0 4.5
vertex 23.0000000000003 -2.8199664825479e-015 8.99999999999989
vertex 22.5454813220625 0.0 4.91411047216403
endloop
endfacet
facet normal -1.25596934316362e-014 -1.0 2.93059513404849e-014
outer loop
vertex 22.5454813220625 0.0 4.91411047216403
vertex 23.0000000000003 -2.8199664825479e-015 8.99999999999989
vertex 22.3856406460551 -2.8199664825479e-015 5.3
endloop
endfacet
facet normal -1.25596934316362e-014 -1.0 2.93059513404849e-014
outer loop
vertex 22.3856406460551 -2.8199664825479e-015 5.3
vertex 23.0000000000003 -2.8199664825479e-015 8.99999999999989
vertex 22.1313708498985 -2.8199664825479e-015 5.63137084989848
endloop
endfacet
facet normal -1.25596934316362e-014 -1.0 2.93059513404849e-014
outer loop
vertex 22.1313708498985 -2.8199664825479e-015 5.63137084989848
vertex 23.0000000000003 -2.8199664825479e-015 8.99999999999989
vertex 21.8 -2.8199664825479e-015 5.8856406460551
endloop
endfacet
facet normal -1.25596934316362e-014 -1.0 2.93059513404849e-014
outer loop
vertex 21.8 -2.8199664825479e-015 5.8856406460551
vertex 23.0000000000003 -2.8199664825479e-015 8.99999999999989
vertex 21.4141104721641 -2.8199664825479e-015 6.04548132206251
endloop
endfacet
facet normal -1.25596934316362e-014 -1.0 2.93059513404849e-014
outer loop
vertex 21.4141104721641 -2.8199664825479e-015 6.04548132206251
vertex 23.0000000000003 -2.8199664825479e-015 8.99999999999989
vertex 21.0 -2.8199664825479e-015 6.1
endloop
endfacet
facet normal -1.25596934316362e-014 -1.0 2.93059513404849e-014
outer loop
vertex 2.0 -2.8199664825479e-015 -7.04991620636974e-016
vertex 2.50000000000001 0.0 4.5
vertex 2.00000000000001 -2.8199664825479e-015 9.0
endloop
endfacet
facet normal -1.25596934316362e-014 -1.0 2.93059513404849e-014
outer loop
vertex 2.50000000000001 0.0 4.5
vertex 2.0 -2.8199664825479e-015 -7.04991620636974e-016
vertex 2.5511112605664 0.0 4.11177143234622
endloop
endfacet
facet normal -1.25596934316362e-014 -1.0 2.93059513404849e-014
outer loop
vertex 2.5511112605664 0.0 4.11177143234622
vertex 2.0 -2.8199664825479e-015 -7.04991620636974e-016
vertex 2.70096189432334 2.8199664825479e-015 3.75
endloop
endfacet
facet normal -1.25596934316362e-014 -1.0 2.93059513404849e-014
outer loop
vertex 2.70096189432334 2.8199664825479e-015 3.75
vertex 2.0 -2.8199664825479e-015 -7.04991620636974e-016
vertex 2.93933982822018 2.8199664825479e-015 3.43933982822018
endloop
endfacet
facet normal -1.25596934316362e-014 -1.0 2.93059513404849e-014
outer loop
vertex 2.93933982822018 2.8199664825479e-015 3.43933982822018
vertex 2.0 -2.8199664825479e-015 -7.04991620636974e-016
vertex 3.25000000000001 2.8199664825479e-015 3.20096189432334
endloop
endfacet
facet normal -1.25596934316362e-014 -1.0 2.93059513404849e-014
outer loop
vertex 3.25000000000001 2.8199664825479e-015 3.20096189432334
vertex 2.0 -2.8199664825479e-015 -7.04991620636974e-016
vertex 3.61177143234623 2.8199664825479e-015 3.0511112605664
endloop
endfacet
facet normal -1.25596934316362e-014 -1.0 2.93059513404849e-014
outer loop
vertex 3.61177143234623 2.8199664825479e-015 3.0511112605664
vertex 2.0 -2.8199664825479e-015 -7.04991620636974e-016
vertex 23.0000000000009 -5.30327090611282e-013 0.0
endloop
endfacet
facet normal -1.25596934316362e-014 -1.0 2.93059513404849e-014
outer loop
vertex 3.61177143234623 2.8199664825479e-015 3.0511112605664
vertex 23.0000000000009 -5.30327090611282e-013 0.0
vertex 4.0 2.8199664825479e-015 3.0
endloop
endfacet
facet normal -1.25596934316362e-014 -1.0 2.93059513404849e-014
outer loop
vertex 4.0 2.8199664825479e-015 3.0
vertex 23.0000000000009 -5.30327090611282e-013 0.0
vertex 21.0 2.8199664825479e-015 2.9
endloop
endfacet
facet normal -1.25596934316362e-014 -1.0 2.93059513404849e-014
outer loop
vertex 4.0 2.8199664825479e-015 3.0
vertex 21.0 2.8199664825479e-015 2.9
vertex 20.585889527836 2.8199664825479e-015 2.95451867793749
endloop
endfacet
facet normal -1.25596934316362e-014 -1.0 2.93059513404849e-014
outer loop
vertex 2.00000000000001 -2.8199664825479e-015 9.0
vertex 2.50000000000001 0.0 4.5
vertex 2.5511112605664 0.0 4.88822856765378
endloop
endfacet
facet normal -1.25596934316362e-014 -1.0 2.93059513404849e-014
outer loop
vertex 2.00000000000001 -2.8199664825479e-015 9.0
vertex 2.5511112605664 0.0 4.88822856765378
vertex 2.70096189432334 0.0 5.25
endloop
endfacet
facet normal -1.25596934316362e-014 -1.0 2.93059513404849e-014
outer loop
vertex 2.00000000000001 -2.8199664825479e-015 9.0
vertex 2.70096189432334 0.0 5.25
vertex 2.93933982822018 -2.8199664825479e-015 5.56066017177982
endloop
endfacet
facet normal -1.25596934316362e-014 -1.0 2.93059513404849e-014
outer loop
vertex 2.00000000000001 -2.8199664825479e-015 9.0
vertex 2.93933982822018 -2.8199664825479e-015 5.56066017177982
vertex 3.25000000000001 -2.8199664825479e-015 5.79903810567666
endloop
endfacet
facet normal -1.25596934316362e-014 -1.0 2.93059513404849e-014
outer loop
vertex 2.00000000000001 -2.8199664825479e-015 9.0
vertex 3.25000000000001 -2.8199664825479e-015 5.79903810567666
vertex 3.61177143234623 -2.8199664825479e-015 5.9488887394336
endloop
endfacet
facet normal -1.25596934316362e-014 -1.0 2.93059513404849e-014
outer loop
vertex 2.00000000000001 -2.8199664825479e-015 9.0
vertex 3.61177143234623 -2.8199664825479e-015 5.9488887394336
vertex 4.0 -2.8199664825479e-015 6.0
endloop
endfacet
facet normal -1.25596934316362e-014 -1.0 2.93059513404849e-014
outer loop
vertex 2.00000000000001 -2.8199664825479e-015 9.0
vertex 4.0 -2.8199664825479e-015 6.0
vertex 20.585889527836 -2.8199664825479e-015 6.04548132206251
endloop
endfacet
facet normal -1.25596934316362e-014 -1.0 2.93059513404849e-014
outer loop
vertex 2.00000000000001 -2.8199664825479e-015 9.0
vertex 20.585889527836 -2.8199664825479e-015 6.04548132206251
vertex 21.0 -2.8199664825479e-015 6.1
endloop
endfacet
facet normal -1.25596934316362e-014 -1.0 2.93059513404849e-014
outer loop
vertex 2.00000000000001 -2.8199664825479e-015 9.0
vertex 21.0 -2.8199664825479e-015 6.1
vertex 23.0000000000003 -2.8199664825479e-015 8.99999999999989
endloop
endfacet
facet normal -1.0 1.30084104880558e-015 -2.74178667685456e-031
outer loop
vertex 1.12798659301916e-014 11.0452994616207 9.0
vertex -1.5862311464332e-015 1.15470053837925 2.11497486191092e-015
vertex 1.11036180250323e-014 1.15470053837925 9.0
endloop
endfacet
facet normal -1.0 1.30084104880558e-015 -2.74178667685456e-031
outer loop
vertex -1.5862311464332e-015 1.15470053837925 2.11497486191092e-015
vertex 1.12798659301916e-014 11.0452994616207 9.0
vertex 2.39697151016571e-014 11.0452994616207 1.40998324127395e-015
endloop
endfacet
facet normal -1.20184285803824e-014 1.0 2.80430000208926e-014
outer loop
vertex 2.00000000000002 12.2 1.40998324127395e-015
vertex 3.61177143234623 12.2 3.05111126056642
vertex 23.0000000000009 12.2000000000005 1.40998324127395e-015
endloop
endfacet
facet normal -1.20184285803824e-014 1.0 2.80430000208926e-014
outer loop
vertex 3.61177143234623 12.2 3.05111126056642
vertex 2.00000000000002 12.2 1.40998324127395e-015
vertex 3.25000000000001 12.2 3.20096189432337
endloop
endfacet
facet normal -1.20184285803824e-014 1.0 2.80430000208926e-014
outer loop
vertex 3.25000000000001 12.2 3.20096189432337
vertex 2.00000000000002 12.2 1.40998324127395e-015
vertex 2.93933982822018 12.2 3.4393398282202
endloop
endfacet
facet normal -1.20184285803824e-014 1.0 2.80430000208926e-014
outer loop
vertex 2.93933982822018 12.2 3.4393398282202
vertex 2.00000000000002 12.2 1.40998324127395e-015
vertex 2.70096189432334 12.2 3.75000000000003
endloop
endfacet
facet normal -1.20184285803824e-014 1.0 2.80430000208926e-014
outer loop
vertex 2.70096189432334 12.2 3.75000000000003
vertex 2.00000000000002 12.2 1.40998324127395e-015
vertex 2.5511112605664 12.2 4.11177143234624
endloop
endfacet
facet normal -1.20184285803824e-014 1.0 2.80430000208926e-014
outer loop
vertex 2.5511112605664 12.2 4.11177143234624
vertex 2.00000000000002 12.2 1.40998324127395e-015
vertex 2.50000000000001 12.2 4.50000000000003
endloop
endfacet
facet normal -1.20184285803824e-014 1.0 2.80430000208926e-014
outer loop
vertex 2.50000000000001 12.2 4.50000000000003
vertex 2.00000000000002 12.2 1.40998324127395e-015
vertex 2.00000000000001 12.2 9.0
endloop
endfacet
facet normal -1.20184285803824e-014 1.0 2.80430000208926e-014
outer loop
vertex 23.0000000000009 12.2000000000005 1.40998324127395e-015
vertex 3.61177143234623 12.2 3.05111126056642
vertex 4.0 12.2 3.00000000000003
endloop
endfacet
facet normal -1.20184285803824e-014 1.0 2.80430000208926e-014
outer loop
vertex 23.0000000000009 12.2000000000005 1.40998324127395e-015
vertex 4.0 12.2 3.00000000000003
vertex 21.0 12.2 2.9
endloop
endfacet
facet normal -1.20184285803824e-014 1.0 2.80430000208926e-014
outer loop
vertex 21.0 12.2 2.9
vertex 4.0 12.2 3.00000000000003
vertex 20.585889527836 12.2 2.95451867793749
endloop
endfacet
facet normal -1.20184285803824e-014 1.0 2.80430000208926e-014
outer loop
vertex 2.50000000000001 12.2 4.50000000000003
vertex 2.00000000000001 12.2 9.0
vertex 2.5511112605664 12.2 4.88822856765381
endloop
endfacet
facet normal -1.20184285803824e-014 1.0 2.80430000208926e-014
outer loop
vertex 2.5511112605664 12.2 4.88822856765381
vertex 2.00000000000001 12.2 9.0
vertex 2.70096189432334 12.2 5.25000000000002
endloop
endfacet
facet normal -1.20184285803824e-014 1.0 2.80430000208926e-014
outer loop
vertex 2.70096189432334 12.2 5.25000000000002
vertex 2.00000000000001 12.2 9.0
vertex 2.93933982822018 12.2 5.56066017177985
endloop
endfacet
facet normal -1.20184285803824e-014 1.0 2.80430000208926e-014
outer loop
vertex 2.93933982822018 12.2 5.56066017177985
vertex 2.00000000000001 12.2 9.0
vertex 3.25000000000001 12.2 5.79903810567668
endloop
endfacet
facet normal -1.20184285803824e-014 1.0 2.80430000208926e-014
outer loop
vertex 3.25000000000001 12.2 5.79903810567668
vertex 2.00000000000001 12.2 9.0
vertex 3.61177143234623 12.2 5.94888873943363
endloop
endfacet
facet normal -1.20184285803824e-014 1.0 2.80430000208926e-014
outer loop
vertex 3.61177143234623 12.2 5.94888873943363
vertex 2.00000000000001 12.2 9.0
vertex 4.0 12.2 6.00000000000003
endloop
endfacet
facet normal -1.20184285803824e-014 1.0 2.80430000208926e-014
outer loop
vertex 4.0 12.2 6.00000000000003
vertex 2.00000000000001 12.2 9.0
vertex 20.585889527836 12.2 6.04548132206251
endloop
endfacet
facet normal -1.20184285803824e-014 1.0 2.80430000208926e-014
outer loop
vertex 20.585889527836 12.2 6.04548132206251
vertex 2.00000000000001 12.2 9.0
vertex 21.0 12.2 6.1
endloop
endfacet
facet normal -1.20184285803824e-014 1.0 2.80430000208926e-014
outer loop
vertex 21.0 12.2 6.1
vertex 2.00000000000001 12.2 9.0
vertex 23.0000000000003 12.2 8.99999999999989
endloop
endfacet
facet normal -1.20184285803824e-014 1.0 2.80430000208926e-014
outer loop
vertex 23.0000000000009 12.2000000000005 1.40998324127395e-015
vertex 22.6 12.2 4.5
vertex 23.0000000000003 12.2 8.99999999999989
endloop
endfacet
facet normal -1.20184285803824e-014 1.0 2.80430000208926e-014
outer loop
vertex 22.6 12.2 4.5
vertex 23.0000000000009 12.2000000000005 1.40998324127395e-015
vertex 22.5454813220625 12.2 4.08588952783597
endloop
endfacet
facet normal -1.20184285803824e-014 1.0 2.80430000208926e-014
outer loop
vertex 22.5454813220625 12.2 4.08588952783597
vertex 23.0000000000009 12.2000000000005 1.40998324127395e-015
vertex 22.3856406460551 12.2 3.7
endloop
endfacet
facet normal -1.20184285803824e-014 1.0 2.80430000208926e-014
outer loop
vertex 22.3856406460551 12.2 3.7
vertex 23.0000000000009 12.2000000000005 1.40998324127395e-015
vertex 22.1313708498985 12.2 3.36862915010152
endloop
endfacet
facet normal -1.20184285803824e-014 1.0 2.80430000208926e-014
outer loop
vertex 22.1313708498985 12.2 3.36862915010152
vertex 23.0000000000009 12.2000000000005 1.40998324127395e-015
vertex 21.8 12.2 3.1143593539449
endloop
endfacet
facet normal -1.20184285803824e-014 1.0 2.80430000208926e-014
outer loop
vertex 21.8 12.2 3.1143593539449
vertex 23.0000000000009 12.2000000000005 1.40998324127395e-015
vertex 21.4141104721641 12.2 2.95451867793749
endloop
endfacet
facet normal -1.20184285803824e-014 1.0 2.80430000208926e-014
outer loop
vertex 21.4141104721641 12.2 2.95451867793749
vertex 23.0000000000009 12.2000000000005 1.40998324127395e-015
vertex 21.0 12.2 2.9
endloop
endfacet
facet normal -1.20184285803824e-014 1.0 2.80430000208926e-014
outer loop
vertex 23.0000000000003 12.2 8.99999999999989
vertex 22.6 12.2 4.5
vertex 22.5454813220625 12.2 4.91411047216403
endloop
endfacet
facet normal -1.20184285803824e-014 1.0 2.80430000208926e-014
outer loop
vertex 23.0000000000003 12.2 8.99999999999989
vertex 22.5454813220625 12.2 4.91411047216403
vertex 22.3856406460551 12.2 5.3
endloop
endfacet
facet normal -1.20184285803824e-014 1.0 2.80430000208926e-014
outer loop
vertex 23.0000000000003 12.2 8.99999999999989
vertex 22.3856406460551 12.2 5.3
vertex 22.1313708498985 12.2 5.63137084989848
endloop
endfacet
facet normal -1.20184285803824e-014 1.0 2.80430000208926e-014
outer loop
vertex 23.0000000000003 12.2 8.99999999999989
vertex 22.1313708498985 12.2 5.63137084989848
vertex 21.8 12.2 5.8856406460551
endloop
endfacet
facet normal -1.20184285803824e-014 1.0 2.80430000208926e-014
outer loop
vertex 23.0000000000003 12.2 8.99999999999989
vertex 21.8 12.2 5.8856406460551
vertex 21.4141104721641 12.2 6.04548132206251
endloop
endfacet
facet normal -1.20184285803824e-014 1.0 2.80430000208926e-014
outer loop
vertex 23.0000000000003 12.2 8.99999999999989
vertex 21.4141104721641 12.2 6.04548132206251
vertex 21.0 12.2 6.1
endloop
endfacet
facet normal -1.20184285803824e-014 1.0 2.80430000208926e-014
outer loop
vertex 4.0 12.2 3.00000000000003
vertex 20.2 12.2 3.1143593539449
vertex 20.585889527836 12.2 2.95451867793749
endloop
endfacet
facet normal -1.20184285803824e-014 1.0 2.80430000208926e-014
outer loop
vertex 20.2 12.2 3.1143593539449
vertex 4.0 12.2 3.00000000000003
vertex 4.38822856765378 12.2 3.05111126056642
endloop
endfacet
facet normal -1.20184285803824e-014 1.0 2.80430000208926e-014
outer loop
vertex 20.2 12.2 3.1143593539449
vertex 4.38822856765378 12.2 3.05111126056642
vertex 4.75000000000001 12.2 3.20096189432337
endloop
endfacet
facet normal -1.20184285803824e-014 1.0 2.80430000208926e-014
outer loop
vertex 20.2 12.2 3.1143593539449
vertex 4.75000000000001 12.2 3.20096189432337
vertex 19.8686291501016 12.2 3.36862915010152
endloop
endfacet
facet normal -1.20184285803824e-014 1.0 2.80430000208926e-014
outer loop
vertex 19.8686291501016 12.2 3.36862915010152
vertex 4.75000000000001 12.2 3.20096189432337
vertex 5.06066017177982 12.2 3.43933982822021
endloop
endfacet
facet normal -1.20184285803824e-014 1.0 2.80430000208926e-014
outer loop
vertex 19.8686291501016 12.2 3.36862915010152
vertex 5.06066017177982 12.2 3.43933982822021
vertex 19.6143593539449 12.2 3.7
endloop
endfacet
facet normal -1.20184285803824e-014 1.0 2.80430000208926e-014
outer loop
vertex 19.6143593539449 12.2 3.7
vertex 5.06066017177982 12.2 3.43933982822021
vertex 5.29903810567667 12.2 3.75000000000003
endloop
endfacet
facet normal -1.20184285803824e-014 1.0 2.80430000208926e-014
outer loop
vertex 19.6143593539449 12.2 3.7
vertex 5.29903810567667 12.2 3.75000000000003
vertex 19.4545186779375 12.2 4.08588952783597
endloop
endfacet
facet normal -1.20184285803824e-014 1.0 2.80430000208926e-014
outer loop
vertex 19.4545186779375 12.2 4.08588952783597
vertex 5.29903810567667 12.2 3.75000000000003
vertex 5.4488887394336 12.2 4.11177143234625
endloop
endfacet
facet normal -1.20184285803824e-014 1.0 2.80430000208926e-014
outer loop
vertex 19.4545186779375 12.2 4.08588952783597
vertex 5.4488887394336 12.2 4.11177143234625
vertex 19.4 12.2 4.5
endloop
endfacet
facet normal -1.20184285803824e-014 1.0 2.80430000208926e-014
outer loop
vertex 19.4 12.2 4.5
vertex 5.4488887394336 12.2 4.11177143234625
vertex 5.5 12.2 4.50000000000003
endloop
endfacet
facet normal -1.20184285803824e-014 1.0 2.80430000208926e-014
outer loop
vertex 19.4 12.2 4.5
vertex 5.5 12.2 4.50000000000003
vertex 19.4545186779375 12.2 4.91411047216403
endloop
endfacet
facet normal -1.20184285803824e-014 1.0 2.80430000208926e-014
outer loop
vertex 19.4545186779375 12.2 4.91411047216403
vertex 5.5 12.2 4.50000000000003
vertex 5.4488887394336 12.2 4.88822856765381
endloop
endfacet
facet normal -1.20184285803824e-014 1.0 2.80430000208926e-014
outer loop
vertex 19.4545186779375 12.2 4.91411047216403
vertex 5.4488887394336 12.2 4.88822856765381
vertex 5.29903810567667 12.2 5.25000000000003
endloop
endfacet
facet normal -1.20184285803824e-014 1.0 2.80430000208926e-014
outer loop
vertex 19.4545186779375 12.2 4.91411047216403
vertex 5.29903810567667 12.2 5.25000000000003
vertex 19.6143593539449 12.2 5.3
endloop
endfacet
facet normal -1.20184285803824e-014 1.0 2.80430000208926e-014
outer loop
vertex 19.6143593539449 12.2 5.3
vertex 5.29903810567667 12.2 5.25000000000003
vertex 5.06066017177982 12.2 5.56066017177985
endloop
endfacet
facet normal -1.20184285803824e-014 1.0 2.80430000208926e-014
outer loop
vertex 19.6143593539449 12.2 5.3
vertex 5.06066017177982 12.2 5.56066017177985
vertex 19.8686291501016 12.2 5.63137084989848
endloop
endfacet
facet normal -1.20184285803824e-014 1.0 2.80430000208926e-014
outer loop
vertex 19.8686291501016 12.2 5.63137084989848
vertex 5.06066017177982 12.2 5.56066017177985
vertex 4.75000000000001 12.2 5.79903810567668
endloop
endfacet
facet normal -1.20184285803824e-014 1.0 2.80430000208926e-014
outer loop
vertex 19.8686291501016 12.2 5.63137084989848
vertex 4.75000000000001 12.2 5.79903810567668
vertex 20.2 12.2 5.8856406460551
endloop
endfacet
facet normal -1.20184285803824e-014 1.0 2.80430000208926e-014
outer loop
vertex 20.2 12.2 5.8856406460551
vertex 4.75000000000001 12.2 5.79903810567668
vertex 4.38822856765378 12.2 5.94888873943363
endloop
endfacet
facet normal -1.20184285803824e-014 1.0 2.80430000208926e-014
outer loop
vertex 20.2 12.2 5.8856406460551
vertex 4.38822856765378 12.2 5.94888873943363
vertex 20.585889527836 12.2 6.04548132206251
endloop
endfacet
facet normal -1.20184285803824e-014 1.0 2.80430000208926e-014
outer loop
vertex 20.585889527836 12.2 6.04548132206251
vertex 4.38822856765378 12.2 5.94888873943363
vertex 4.0 12.2 6.00000000000003
endloop
endfacet
facet normal -0.382683432365078 -0.923879532511291 0.0
outer loop
vertex 14.55 9.65070415551619 8.99999999999996
vertex 13.5611580849203 10.0602958877852 -4.51194637207664e-014
vertex 14.55 9.65070415551619 -4.51194637207664e-014
endloop
endfacet
facet normal -0.258819045102517 -0.965925826289069 -2.49101898336234e-019
outer loop
vertex 13.5611580849203 10.0602958877852 -4.51194637207664e-014
vertex 14.55 9.65070415551619 8.99999999999996
vertex 13.5611580849203 10.0602958877852 8.99999999999996
endloop
endfacet
facet normal -0.258819045102514 -0.96592582628907 -2.4910189833624e-019
outer loop
vertex 13.5611580849203 10.0602958877852 8.99999999999996
vertex 12.5 10.2 0.0
vertex 13.5611580849203 10.0602958877852 -4.51194637207664e-014
endloop
endfacet
facet normal -0.130526192220052 -0.99144486137381 -4.93941594127847e-019
outer loop
vertex 12.5 10.2 0.0
vertex 13.5611580849203 10.0602958877852 8.99999999999996
vertex 12.5 10.2 9.0
endloop
endfacet
facet normal 0.130526192220052 -0.99144486137381 0.0
outer loop
vertex 12.5 10.2 9.0
vertex 11.4388419150797 10.0602958877852 0.0
vertex 12.5 10.2 0.0
endloop
endfacet
facet normal 0.2588190451025 -0.965925826289074 0.0
outer loop
vertex 11.4388419150797 10.0602958877852 0.0
vertex 12.5 10.2 9.0
vertex 11.4388419150797 10.0602958877852 9.0
endloop
endfacet
facet normal 0.2588190451025 -0.965925826289074 0.0
outer loop
vertex 11.4388419150797 10.0602958877852 9.0
vertex 10.4499999999999 9.65070415551619 0.0
vertex 11.4388419150797 10.0602958877852 0.0
endloop
endfacet
facet normal 0.499999999999988 -0.866025403784446 0.0
outer loop
vertex 10.4499999999999 9.65070415551619 0.0
vertex 11.4388419150797 10.0602958877852 9.0
vertex 10.4499999999999 9.65070415551619 9.0
endloop
endfacet
facet normal 0.499999999999988 -0.866025403784446 0.0
outer loop
vertex 10.4499999999999 9.65070415551619 9.0
vertex 9.6008621971351 8.99913780286484 0.0
vertex 10.4499999999999 9.65070415551619 0.0
endloop
endfacet
facet normal 0.707106781186571 -0.707106781186525 0.0
outer loop
vertex 9.6008621971351 8.99913780286484 0.0
vertex 10.4499999999999 9.65070415551619 9.0
vertex 9.6008621971351 8.99913780286484 9.0
endloop
endfacet
facet normal 0.707106781186571 -0.707106781186525 0.0
outer loop
vertex 9.6008621971351 8.99913780286484 0.0
vertex 8.94929584448382 8.15000000000001 9.0
vertex 8.94929584448382 8.15000000000001 0.0
endloop
endfacet
facet normal 0.866025403784444 -0.499999999999992 0.0
outer loop
vertex 8.94929584448382 8.15000000000001 9.0
vertex 9.6008621971351 8.99913780286484 0.0
vertex 9.6008621971351 8.99913780286484 9.0
endloop
endfacet
facet normal 0.866025403784444 -0.499999999999992 0.0
outer loop
vertex 8.94929584448382 8.15000000000001 0.0
vertex 8.5397041122148 7.16115808492034 9.0
vertex 8.5397041122148 7.16115808492034 0.0
endloop
endfacet
facet normal 0.965925826289072 -0.258819045102508 0.0
outer loop
vertex 8.5397041122148 7.16115808492034 9.0
vertex 8.94929584448382 8.15000000000001 0.0
vertex 8.94929584448382 8.15000000000001 9.0
endloop
endfacet
facet normal 0.965925826289072 -0.258819045102508 0.0
outer loop
vertex 8.5397041122148 7.16115808492034 0.0
vertex 8.40000000000004 6.1 9.0
vertex 8.40000000000004 6.1 0.0
endloop
endfacet
facet normal 1.0 -1.78222197912937e-016 0.0
outer loop
vertex 8.40000000000004 6.1 9.0
vertex 8.5397041122148 7.16115808492034 0.0
vertex 8.5397041122148 7.16115808492034 9.0
endloop
endfacet
facet normal 1.0 -1.78222197912937e-016 0.0
outer loop
vertex 8.40000000000004 6.1 0.0
vertex 8.5397041122148 5.03884191507967 9.0
vertex 8.5397041122148 5.03884191507967 0.0
endloop
endfacet
facet normal 0.965925826289072 0.258819045102507 0.0
outer loop
vertex 8.5397041122148 5.03884191507967 9.0
vertex 8.40000000000004 6.1 0.0
vertex 8.40000000000004 6.1 9.0
endloop
endfacet
facet normal 0.965925826289072 0.258819045102507 0.0
outer loop
vertex 8.5397041122148 5.03884191507967 0.0
vertex 8.94929584448382 4.04999999999999 9.0
vertex 8.94929584448382 4.04999999999999 0.0
endloop
endfacet
facet normal 0.866025403784443 0.499999999999992 0.0
outer loop
vertex 8.94929584448382 4.04999999999999 9.0
vertex 8.5397041122148 5.03884191507967 0.0
vertex 8.5397041122148 5.03884191507967 9.0
endloop
endfacet
facet normal 0.96592582628907 -5.53303228744112e-016 0.258819045102513
outer loop
vertex 2.5511112605664 12.2 4.11177143234624
vertex 2.50000000000001 0.0 4.5
vertex 2.5511112605664 0.0 4.11177143234622
endloop
endfacet
facet normal 1.0 1.10805177068457e-031 -6.23777692695283e-017
outer loop
vertex 2.50000000000001 0.0 4.5
vertex 2.5511112605664 12.2 4.11177143234624
vertex 2.50000000000001 12.2 4.50000000000003
endloop
endfacet
facet normal 1.0 8.70612105537879e-031 -4.18822165095404e-016
outer loop
vertex 2.50000000000001 12.2 4.50000000000003
vertex 2.5511112605664 0.0 4.88822856765378
vertex 2.50000000000001 0.0 4.5
endloop
endfacet
facet normal 0.96592582628907 5.53190523347099e-016 -0.258819045102514
outer loop
vertex 2.5511112605664 0.0 4.88822856765378
vertex 2.50000000000001 12.2 4.50000000000003
vertex 2.5511112605664 12.2 4.88822856765381
endloop
endfacet
facet normal 0.96592582628907 5.531905233471e-016 -0.258819045102514
outer loop
vertex 2.5511112605664 12.2 4.88822856765381
vertex 2.70096189432334 0.0 5.25
vertex 2.5511112605664 0.0 4.88822856765378
endloop
endfacet
facet normal 0.866025403784441 1.06857777116712e-015 -0.499999999999997
outer loop
vertex 2.70096189432334 0.0 5.25
vertex 2.5511112605664 12.2 4.88822856765381
vertex 2.70096189432334 12.2 5.25000000000002
endloop
endfacet
facet normal 0.866025403784443 0.499999999999992 0.0
outer loop
vertex 8.94929584448382 4.04999999999999 0.0
vertex 9.6008621971351 3.20086219713516 9.0
vertex 9.6008621971351 3.20086219713516 0.0
endloop
endfacet
facet normal 0.707106781186569 0.707106781186526 0.0
outer loop
vertex 9.6008621971351 3.20086219713516 9.0
vertex 8.94929584448382 4.04999999999999 0.0
vertex 8.94929584448382 4.04999999999999 9.0
endloop
endfacet
facet normal -3.11473351460617e-016 5.46566935644827e-016 -1.0
outer loop
vertex 2.00000000000002 12.2 1.40998324127395e-015
vertex 8.5397041122148 7.16115808492034 0.0
vertex 8.40000000000004 6.1 0.0
endloop
endfacet
facet normal -3.11473351460617e-016 5.46566935644827e-016 -1.0
outer loop
vertex 8.5397041122148 7.16115808492034 0.0
vertex 2.00000000000002 12.2 1.40998324127395e-015
vertex 8.94929584448382 8.15000000000001 0.0
endloop
endfacet
facet normal -3.11473351460617e-016 5.46566935644827e-016 -1.0
outer loop
vertex 8.94929584448382 8.15000000000001 0.0
vertex 2.00000000000002 12.2 1.40998324127395e-015
vertex 9.6008621971351 8.99913780286484 0.0
endloop
endfacet
facet normal -3.11473351460617e-016 5.46566935644827e-016 -1.0
outer loop
vertex 9.6008621971351 8.99913780286484 0.0
vertex 2.00000000000002 12.2 1.40998324127395e-015
vertex 10.4499999999999 9.65070415551619 0.0
endloop
endfacet
facet normal -3.11473351460617e-016 5.46566935644827e-016 -1.0
outer loop
vertex 10.4499999999999 9.65070415551619 0.0
vertex 2.00000000000002 12.2 1.40998324127395e-015
vertex 11.4388419150797 10.0602958877852 0.0
endloop
endfacet
facet normal -3.11473351460617e-016 5.46566935644827e-016 -1.0
outer loop
vertex 11.4388419150797 10.0602958877852 0.0
vertex 2.00000000000002 12.2 1.40998324127395e-015
vertex 23.0000000000009 12.2000000000005 1.40998324127395e-015
endloop
endfacet
facet normal -3.11473351460617e-016 5.46566935644827e-016 -1.0
outer loop
vertex 11.4388419150797 10.0602958877852 0.0
vertex 23.0000000000009 12.2000000000005 1.40998324127395e-015
vertex 12.5 10.2 0.0
endloop
endfacet
facet normal -3.11473351460617e-016 5.46566935644827e-016 -1.0
outer loop
vertex 12.5 10.2 0.0
vertex 23.0000000000009 12.2000000000005 1.40998324127395e-015
vertex 13.5611580849203 10.0602958877852 -4.51194637207664e-014
endloop
endfacet
facet normal -3.11473351460617e-016 5.46566935644827e-016 -1.0
outer loop
vertex 13.5611580849203 10.0602958877852 -4.51194637207664e-014
vertex 23.0000000000009 12.2000000000005 1.40998324127395e-015
vertex 14.55 9.65070415551619 -4.51194637207664e-014
endloop
endfacet
facet normal -3.11473351460617e-016 5.46566935644827e-016 -1.0
outer loop
vertex 14.55 9.65070415551619 -4.51194637207664e-014
vertex 23.0000000000009 12.2000000000005 1.40998324127395e-015
vertex 25.0000000000003 9.65070415551619 -4.51194637207664e-014
endloop
endfacet
facet normal -3.11473351460617e-016 5.46566935644827e-016 -1.0
outer loop
vertex 25.0000000000003 9.65070415551619 -4.51194637207664e-014
vertex 23.0000000000009 12.2000000000005 1.40998324127395e-015
vertex 25.0000000000009 11.0452994616213 4.65294469620403e-014
endloop
endfacet
facet normal -3.11473351460617e-016 5.46566935644827e-016 -1.0
outer loop
vertex 2.39697151016571e-014 11.0452994616207 1.40998324127395e-015
vertex 2.0 -2.8199664825479e-015 -7.04991620636974e-016
vertex -1.5862311464332e-015 1.15470053837925 2.11497486191092e-015
endloop
endfacet
facet normal -3.11473351460617e-016 5.46566935644827e-016 -1.0
outer loop
vertex 2.0 -2.8199664825479e-015 -7.04991620636974e-016
vertex 2.39697151016571e-014 11.0452994616207 1.40998324127395e-015
vertex 2.00000000000002 12.2 1.40998324127395e-015
endloop
endfacet
facet normal -3.11473351460617e-016 5.46566935644827e-016 -1.0
outer loop
vertex 2.0 -2.8199664825479e-015 -7.04991620636974e-016
vertex 2.00000000000002 12.2 1.40998324127395e-015
vertex 9.6008621971351 3.20086219713516 0.0
endloop
endfacet
facet normal -3.11473351460617e-016 5.46566935644827e-016 -1.0
outer loop
vertex 2.0 -2.8199664825479e-015 -7.04991620636974e-016
vertex 9.6008621971351 3.20086219713516 0.0
vertex 10.4499999999999 2.54929584448381 0.0
endloop
endfacet
facet normal -3.11473351460617e-016 5.46566935644827e-016 -1.0
outer loop
vertex 2.0 -2.8199664825479e-015 -7.04991620636974e-016
vertex 10.4499999999999 2.54929584448381 0.0
vertex 11.4388419150797 2.13970411221482 0.0
endloop
endfacet
facet normal -3.11473351460617e-016 5.46566935644827e-016 -1.0
outer loop
vertex 2.0 -2.8199664825479e-015 -7.04991620636974e-016
vertex 11.4388419150797 2.13970411221482 0.0
vertex 23.0000000000009 -5.30327090611282e-013 0.0
endloop
endfacet
facet normal -3.11473351460617e-016 5.46566935644827e-016 -1.0
outer loop
vertex 9.6008621971351 3.20086219713516 0.0
vertex 2.00000000000002 12.2 1.40998324127395e-015
vertex 8.94929584448382 4.04999999999999 0.0
endloop
endfacet
facet normal -3.11473351460617e-016 5.46566935644827e-016 -1.0
outer loop
vertex 8.94929584448382 4.04999999999999 0.0
vertex 2.00000000000002 12.2 1.40998324127395e-015
vertex 8.5397041122148 5.03884191507967 0.0
endloop
endfacet
facet normal -3.11473351460617e-016 5.46566935644827e-016 -1.0
outer loop
vertex 8.5397041122148 5.03884191507967 0.0
vertex 2.00000000000002 12.2 1.40998324127395e-015
vertex 8.40000000000004 6.1 0.0
endloop
endfacet
facet normal -3.11473351460617e-016 5.46566935644827e-016 -1.0
outer loop
vertex 23.0000000000009 -5.30327090611282e-013 0.0
vertex 11.4388419150797 2.13970411221482 0.0
vertex 12.5 2.00000000000001 0.0
endloop
endfacet
facet normal -3.11473351460617e-016 5.46566935644827e-016 -1.0
outer loop
vertex 23.0000000000009 -5.30327090611282e-013 0.0
vertex 12.5 2.00000000000001 0.0
vertex 13.5611580849203 2.13970411221482 -5.78093128922319e-014
endloop
endfacet
facet normal -3.11473351460617e-016 5.46566935644827e-016 -1.0
outer loop
vertex 23.0000000000009 -5.30327090611282e-013 0.0
vertex 13.5611580849203 2.13970411221482 -5.78093128922319e-014
vertex 14.55 2.54929584448381 -5.78093128922319e-014
endloop
endfacet
facet normal -3.11473351460617e-016 5.46566935644827e-016 -1.0
outer loop
vertex 23.0000000000009 -5.30327090611282e-013 0.0
vertex 14.55 2.54929584448381 -5.78093128922319e-014
vertex 25.0000000000003 2.54929584448381 -5.78093128922319e-014
endloop
endfacet
facet normal -3.11473351460617e-016 5.46566935644827e-016 -1.0
outer loop
vertex 23.0000000000009 -5.30327090611282e-013 0.0
vertex 25.0000000000003 2.54929584448381 -5.78093128922319e-014
vertex 25.0000000000009 1.15470053837872 3.94795307556706e-014
endloop
endfacet
facet normal 0.866025403784441 1.06857777116712e-015 -0.499999999999997
outer loop
vertex 2.70096189432334 0.0 5.25
vertex 2.93933982822018 12.2 5.56066017177985
vertex 2.93933982822018 -2.8199664825479e-015 5.56066017177982
endloop
endfacet
facet normal 0.707106781186546 1.51199247875233e-015 -0.707106781186549
outer loop
vertex 2.93933982822018 12.2 5.56066017177985
vertex 2.70096189432334 0.0 5.25
vertex 2.70096189432334 12.2 5.25000000000002
endloop
endfacet
facet normal 0.499999999999997 1.85198265073075e-015 -0.86602540378444
outer loop
vertex 3.25000000000001 12.2 5.79903810567668
vertex 2.93933982822018 -2.8199664825479e-015 5.56066017177982
vertex 2.93933982822018 12.2 5.56066017177985
endloop
endfacet
facet normal 0.707106781186545 1.51199247875233e-015 -0.70710678118655
outer loop
vertex 2.93933982822018 -2.8199664825479e-015 5.56066017177982
vertex 3.25000000000001 12.2 5.79903810567668
vertex 3.25000000000001 -2.8199664825479e-015 5.79903810567666
endloop
endfacet
facet normal 0.258819045102522 2.06510657214832e-015 -0.965925826289068
outer loop
vertex 3.61177143234623 12.2 5.94888873943363
vertex 3.25000000000001 -2.8199664825479e-015 5.79903810567666
vertex 3.25000000000001 12.2 5.79903810567668
endloop
endfacet
facet normal 0.499999999999997 1.85198265073075e-015 -0.86602540378444
outer loop
vertex 3.25000000000001 -2.8199664825479e-015 5.79903810567666
vertex 3.61177143234623 12.2 5.94888873943363
vertex 3.61177143234623 -2.8199664825479e-015 5.9488887394336
endloop
endfacet
facet normal 9.26755429147279e-016 2.1380689888112e-015 -1.0
outer loop
vertex 4.0 12.2 6.00000000000003
vertex 3.61177143234623 -2.8199664825479e-015 5.9488887394336
vertex 3.61177143234623 12.2 5.94888873943363
endloop
endfacet
facet normal 0.258819045102522 2.06510657214832e-015 -0.965925826289068
outer loop
vertex 3.61177143234623 -2.8199664825479e-015 5.9488887394336
vertex 4.0 12.2 6.00000000000003
vertex 4.0 -2.8199664825479e-015 6.0
endloop
endfacet
facet normal 0.499999999999997 -1.83787366355126e-015 0.866025403784441
outer loop
vertex 3.25000000000001 2.8199664825479e-015 3.20096189432334
vertex 2.93933982822018 12.2 3.4393398282202
vertex 2.93933982822018 2.8199664825479e-015 3.43933982822018
endloop
endfacet
facet normal 0.707106781186544 -1.51192173668434e-015 0.707106781186551
outer loop
vertex 2.93933982822018 12.2 3.4393398282202
vertex 3.25000000000001 2.8199664825479e-015 3.20096189432334
vertex 3.25000000000001 12.2 3.20096189432337
endloop
endfacet
facet normal -0.707106781186543 1.51238529462109e-015 -0.707106781186552
outer loop
vertex 5.06066017177982 12.2 5.56066017177985
vertex 5.29903810567667 -2.8199664825479e-015 5.25
vertex 5.06066017177982 -2.8199664825479e-015 5.56066017177982
endloop
endfacet
facet normal -0.866025403784441 1.06917132082359e-015 -0.499999999999996
outer loop
vertex 5.29903810567667 -2.8199664825479e-015 5.25
vertex 5.06066017177982 12.2 5.56066017177985
vertex 5.29903810567667 12.2 5.25000000000003
endloop
endfacet
facet normal -0.707106781186543 1.51238529462109e-015 -0.707106781186552
outer loop
vertex 5.06066017177982 12.2 5.56066017177985
vertex 4.75000000000001 -2.8199664825479e-015 5.79903810567666
vertex 4.75000000000001 12.2 5.79903810567668
endloop
endfacet
facet normal -0.5 1.8522016157951e-015 -0.866025403784439
outer loop
vertex 4.75000000000001 -2.8199664825479e-015 5.79903810567666
vertex 5.06066017177982 12.2 5.56066017177985
vertex 5.06066017177982 -2.8199664825479e-015 5.56066017177982
endloop
endfacet
facet normal -0.5 1.8522016157951e-015 -0.866025403784439
outer loop
vertex 4.75000000000001 12.2 5.79903810567668
vertex 4.38822856765378 -2.8199664825479e-015 5.9488887394336
vertex 4.38822856765378 12.2 5.94888873943363
endloop
endfacet
facet normal -0.258819045102515 2.06532553721267e-015 -0.96592582628907
outer loop
vertex 4.38822856765378 -2.8199664825479e-015 5.9488887394336
vertex 4.75000000000001 12.2 5.79903810567668
vertex 4.75000000000001 -2.8199664825479e-015 5.79903810567666
endloop
endfacet
facet normal -0.866025403784442 1.06917132082358e-015 -0.499999999999995
outer loop
vertex 5.29903810567667 12.2 5.25000000000003
vertex 5.4488887394336 0.0 4.88822856765378
vertex 5.29903810567667 -2.8199664825479e-015 5.25
endloop
endfacet
facet normal -0.965925826289074 5.53391257134777e-016 -0.258819045102501
outer loop
vertex 5.4488887394336 0.0 4.88822856765378
vertex 5.29903810567667 12.2 5.25000000000003
vertex 5.4488887394336 12.2 4.88822856765381
endloop
endfacet
facet normal 0.86602540378444 -1.0693718527501e-015 0.499999999999997
outer loop
vertex 2.70096189432334 2.8199664825479e-015 3.75
vertex 2.5511112605664 12.2 4.11177143234624
vertex 2.5511112605664 0.0 4.11177143234622
endloop
endfacet
facet normal 0.96592582628907 -5.53303228744112e-016 0.258819045102513
outer loop
vertex 2.5511112605664 12.2 4.11177143234624
vertex 2.70096189432334 2.8199664825479e-015 3.75
vertex 2.70096189432334 12.2 3.75000000000003
endloop
endfacet
facet normal -0.258819045102515 2.06532553721267e-015 -0.96592582628907
outer loop
vertex 4.38822856765378 12.2 5.94888873943363
vertex 4.0 -2.8199664825479e-015 6.0
vertex 4.0 12.2 6.00000000000003
endloop
endfacet
facet normal 9.26755429147278e-016 2.1380689888112e-015 -1.0
outer loop
vertex 4.0 -2.8199664825479e-015 6.0
vertex 4.38822856765378 12.2 5.94888873943363
vertex 4.38822856765378 -2.8199664825479e-015 5.9488887394336
endloop
endfacet
facet normal 0.707106781186544 -1.51192173668434e-015 0.707106781186551
outer loop
vertex 2.93933982822018 12.2 3.4393398282202
vertex 2.70096189432334 2.8199664825479e-015 3.75
vertex 2.93933982822018 2.8199664825479e-015 3.43933982822018
endloop
endfacet
facet normal 0.86602540378444 -1.0693718527501e-015 0.499999999999997
outer loop
vertex 2.70096189432334 2.8199664825479e-015 3.75
vertex 2.93933982822018 12.2 3.4393398282202
vertex 2.70096189432334 12.2 3.75000000000003
endloop
endfacet
facet normal -0.965925826289074 5.53391257134774e-016 -0.2588190451025
outer loop
vertex 5.4488887394336 12.2 4.88822856765381
vertex 5.5 0.0 4.5
vertex 5.4488887394336 0.0 4.88822856765378
endloop
endfacet
facet normal -1.0 -6.18710017351698e-020 3.02977736451994e-016
outer loop
vertex 5.5 0.0 4.5
vertex 5.4488887394336 12.2 4.88822856765381
vertex 5.5 12.2 4.50000000000003
endloop
endfacet
facet normal -1.0 -6.18710017344099e-020 -4.45555494782345e-017
outer loop
vertex 5.5 12.2 4.50000000000003
vertex 5.4488887394336 0.0 4.11177143234622
vertex 5.5 0.0 4.5
endloop
endfacet
facet normal -0.965925826289074 -5.53252394348807e-016 0.258819045102501
outer loop
vertex 5.4488887394336 0.0 4.11177143234622
vertex 5.5 12.2 4.50000000000003
vertex 5.4488887394336 12.2 4.11177143234625
endloop
endfacet
facet normal -0.866025403784441 -1.06856846402102e-015 0.499999999999995
outer loop
vertex 5.29903810567667 12.2 3.75000000000003
vertex 5.06066017177982 2.8199664825479e-015 3.43933982822018
vertex 5.29903810567667 0.0 3.75
endloop
endfacet
facet normal -0.707106781186543 -1.51123105335229e-015 0.707106781186552
outer loop
vertex 5.06066017177982 2.8199664825479e-015 3.43933982822018
vertex 5.29903810567667 12.2 3.75000000000003
vertex 5.06066017177982 12.2 3.43933982822021
endloop
endfacet
facet normal -0.965925826289074 -5.53252394348806e-016 0.2588190451025
outer loop
vertex 5.4488887394336 12.2 4.11177143234625
vertex 5.29903810567667 0.0 3.75
vertex 5.4488887394336 0.0 4.11177143234622
endloop
endfacet
facet normal -0.866025403784442 -1.06856846402102e-015 0.499999999999995
outer loop
vertex 5.29903810567667 0.0 3.75
vertex 5.4488887394336 12.2 4.11177143234625
vertex 5.29903810567667 12.2 3.75000000000003
endloop
endfacet
facet normal -0.707106781186543 -1.51123105335229e-015 0.707106781186552
outer loop
vertex 5.06066017177982 2.8199664825479e-015 3.43933982822018
vertex 4.75000000000001 12.2 3.20096189432337
vertex 4.75000000000001 2.8199664825479e-015 3.20096189432334
endloop
endfacet
facet normal -0.5 -1.8376546984869e-015 0.866025403784439
outer loop
vertex 4.75000000000001 12.2 3.20096189432337
vertex 5.06066017177982 2.8199664825479e-015 3.43933982822018
vertex 5.06066017177982 12.2 3.43933982822021
endloop
endfacet
facet normal -0.5 -1.8376546984869e-015 0.866025403784439
outer loop
vertex 4.75000000000001 2.8199664825479e-015 3.20096189432334
vertex 4.38822856765378 12.2 3.05111126056642
vertex 4.38822856765378 2.8199664825479e-015 3.0511112605664
endloop
endfacet
facet normal -0.258819045102517 -2.02262838783159e-015 0.965925826289069
outer loop
vertex 4.38822856765378 12.2 3.05111126056642
vertex 4.75000000000001 2.8199664825479e-015 3.20096189432334
vertex 4.75000000000001 12.2 3.20096189432337
endloop
endfacet
facet normal -0.258819045102516 -2.0226283878316e-015 0.96592582628907
outer loop
vertex 4.38822856765378 2.8199664825479e-015 3.0511112605664
vertex 4.0 12.2 3.00000000000003
vertex 4.0 2.8199664825479e-015 3.0
endloop
endfacet
facet normal 9.35666539042925e-016 -2.08026428815755e-015 1.0
outer loop
vertex 4.0 12.2 3.00000000000003
vertex 4.38822856765378 2.8199664825479e-015 3.0511112605664
vertex 4.38822856765378 12.2 3.05111126056642
endloop
endfacet
facet normal 9.35666539042925e-016 -2.08026428815755e-015 1.0
outer loop
vertex 4.0 2.8199664825479e-015 3.0
vertex 3.61177143234623 12.2 3.05111126056642
vertex 3.61177143234623 2.8199664825479e-015 3.0511112605664
endloop
endfacet
facet normal 0.258819045102522 -2.02284735289595e-015 0.965925826289068
outer loop
vertex 3.61177143234623 12.2 3.05111126056642
vertex 4.0 2.8199664825479e-015 3.0
vertex 4.0 12.2 3.00000000000003
endloop
endfacet
facet normal 0.258819045102522 -2.02284735289595e-015 0.965925826289068
outer loop
vertex 3.61177143234623 2.8199664825479e-015 3.0511112605664
vertex 3.25000000000001 12.2 3.20096189432337
vertex 3.25000000000001 2.8199664825479e-015 3.20096189432334
endloop
endfacet
facet normal 0.499999999999997 -1.83787366355126e-015 0.866025403784441
outer loop
vertex 3.25000000000001 12.2 3.20096189432337
vertex 3.61177143234623 2.8199664825479e-015 3.0511112605664
vertex 3.61177143234623 12.2 3.05111126056642
endloop
endfacet
facet normal 0.500000000000011 -3.60123131490076e-015 0.866025403784432
outer loop
vertex 20.2 9.65070415551622 3.11435935394489
vertex 20.585889527836 12.2 2.95451867793749
vertex 20.2 12.2 3.1143593539449
endloop
endfacet
facet normal 0.258819045102527 -3.86459722954541e-015 0.965925826289067
outer loop
vertex 20.585889527836 12.2 2.95451867793749
vertex 20.2 9.65070415551622 3.11435935394489
vertex 20.585889527836 9.65070415551622 2.95451867793748
endloop
endfacet
facet normal -0.499999999999994 -3.09244743746182e-015 0.866025403784442
outer loop
vertex 21.8 9.65070415551622 3.11435935394489
vertex 22.1313708498985 12.2 3.36862915010152
vertex 21.8 12.2 3.1143593539449
endloop
endfacet
facet normal -0.707106781186557 -2.37291837767078e-015 0.707106781186538
outer loop
vertex 22.1313708498985 12.2 3.36862915010152
vertex 21.8 9.65070415551622 3.11435935394489
vertex 22.1313708498985 9.65070415551622 3.36862915010151
endloop
endfacet
facet normal -0.86602540378445 -1.49167885187452e-015 0.49999999999998
outer loop
vertex 22.3856406460551 12.2 3.7
vertex 22.1313708498985 9.65070415551622 3.36862915010151
vertex 22.3856406460551 9.65070415551621 3.69999999999999
endloop
endfacet
facet normal -0.707106781186558 -2.37291837767078e-015 0.707106781186537
outer loop
vertex 22.1313708498985 9.65070415551622 3.36862915010151
vertex 22.3856406460551 12.2 3.7
vertex 22.1313708498985 12.2 3.36862915010152
endloop
endfacet
facet normal -0.965925826289064 -5.08783877439058e-016 0.258819045102538
outer loop
vertex 22.5454813220625 12.2 4.08588952783597
vertex 22.3856406460551 9.65070415551621 3.69999999999999
vertex 22.5454813220625 9.65070415551621 4.08588952783596
endloop
endfacet
facet normal -0.866025403784451 -1.49167885187451e-015 0.499999999999978
outer loop
vertex 22.3856406460551 9.65070415551621 3.69999999999999
vertex 22.5454813220625 12.2 4.08588952783597
vertex 22.3856406460551 12.2 3.7
endloop
endfacet
facet normal -1.0 5.0878387743898e-016 -3.38622176034585e-016
outer loop
vertex 22.6 12.2 4.5
vertex 22.5454813220625 9.65070415551621 4.08588952783596
vertex 22.6 9.65070415551621 4.49999999999999
endloop
endfacet
facet normal -0.965925826289064 -5.08783877439061e-016 0.258819045102539
outer loop
vertex 22.5454813220625 9.65070415551621 4.08588952783596
vertex 22.6 12.2 4.5
vertex 22.5454813220625 12.2 4.08588952783597
endloop
endfacet
facet normal -0.258819045102515 -3.6012313149008e-015 0.96592582628907
outer loop
vertex 21.4141104721641 9.65070415551622 2.95451867793748
vertex 21.8 12.2 3.1143593539449
vertex 21.4141104721641 12.2 2.95451867793749
endloop
endfacet
facet normal -0.499999999999994 -3.09244743746182e-015 0.866025403784442
outer loop
vertex 21.8 12.2 3.1143593539449
vertex 21.4141104721641 9.65070415551622 2.95451867793748
vertex 21.8 9.65070415551622 3.11435935394489
endloop
endfacet
facet normal -8.0734655654561e-015 -3.86459722954541e-015 1.0
outer loop
vertex 21.0 9.65070415551622 2.89999999999999
vertex 21.4141104721641 12.2 2.95451867793749
vertex 21.0 12.2 2.9
endloop
endfacet
facet normal -0.258819045102515 -3.6012313149008e-015 0.96592582628907
outer loop
vertex 21.4141104721641 12.2 2.95451867793749
vertex 21.0 9.65070415551622 2.89999999999999
vertex 21.4141104721641 9.65070415551622 2.95451867793748
endloop
endfacet
facet normal 0.258819045102527 -3.86459722954541e-015 0.965925826289067
outer loop
vertex 20.585889527836 9.65070415551622 2.95451867793748
vertex 21.0 12.2 2.9
vertex 20.585889527836 12.2 2.95451867793749
endloop
endfacet
facet normal -7.71702116963022e-015 -3.86459722954541e-015 1.0
outer loop
vertex 21.0 12.2 2.9
vertex 20.585889527836 9.65070415551622 2.95451867793748
vertex 21.0 9.65070415551622 2.89999999999999
endloop
endfacet
facet normal 0.707106781186527 -3.09244743746187e-015 0.707106781186568
outer loop
vertex 19.8686291501016 9.65070415551622 3.36862915010151
vertex 20.2 12.2 3.1143593539449
vertex 19.8686291501016 12.2 3.36862915010152
endloop
endfacet
facet normal 0.500000000000012 -3.60123131490076e-015 0.866025403784432
outer loop
vertex 20.2 12.2 3.1143593539449
vertex 19.8686291501016 9.65070415551622 3.36862915010151
vertex 20.2 9.65070415551622 3.11435935394489
endloop
endfacet
facet normal 0.707106781186527 -3.09244743746186e-015 0.707106781186568
outer loop
vertex 19.8686291501016 12.2 3.36862915010152
vertex 19.6143593539449 9.65070415551622 3.69999999999999
vertex 19.8686291501016 9.65070415551622 3.36862915010151
endloop
endfacet
facet normal 0.86602540378443 -2.37291837767087e-015 0.500000000000015
outer loop
vertex 19.6143593539449 9.65070415551622 3.69999999999999
vertex 19.8686291501016 12.2 3.36862915010152
vertex 19.6143593539449 12.2 3.7
endloop
endfacet
facet normal 0.500000000000012 3.09244743746177e-015 -0.866025403784432
outer loop
vertex 20.2 12.2 5.8856406460551
vertex 19.8686291501016 9.65070415551621 5.63137084989846
vertex 19.8686291501016 12.2 5.63137084989848
endloop
endfacet
facet normal 0.707106781186528 2.37291837767091e-015 -0.707106781186567
outer loop
vertex 19.8686291501016 9.65070415551621 5.63137084989846
vertex 20.2 12.2 5.8856406460551
vertex 20.2 9.65070415551621 5.88564064605509
endloop
endfacet
facet normal 0.258819045102528 3.60123131490077e-015 -0.965925826289067
outer loop
vertex 20.585889527836 12.2 6.04548132206251
vertex 20.2 9.65070415551621 5.88564064605509
vertex 20.2 12.2 5.8856406460551
endloop
endfacet
facet normal 0.500000000000012 3.09244743746177e-015 -0.866025403784432
outer loop
vertex 20.2 9.65070415551621 5.88564064605509
vertex 20.585889527836 12.2 6.04548132206251
vertex 20.585889527836 9.65070415551621 6.0454813220625
endloop
endfacet
facet normal -6.87046572954377e-015 3.86459722954542e-015 -1.0
outer loop
vertex 21.0 12.2 6.1
vertex 20.585889527836 9.65070415551621 6.0454813220625
vertex 20.585889527836 12.2 6.04548132206251
endloop
endfacet
facet normal 0.258819045102528 3.60123131490078e-015 -0.965925826289067
outer loop
vertex 20.585889527836 9.65070415551621 6.0454813220625
vertex 21.0 12.2 6.1
vertex 21.0 9.65070415551621 6.09999999999999
endloop
endfacet
facet normal -0.258819045102514 3.86459722954542e-015 -0.96592582628907
outer loop
vertex 21.4141104721641 12.2 6.04548132206251
vertex 21.0 9.65070415551621 6.09999999999999
vertex 21.0 12.2 6.1
endloop
endfacet
facet normal -7.24473234516093e-015 3.86459722954542e-015 -1.0
outer loop
vertex 21.0 9.65070415551621 6.09999999999999
vertex 21.4141104721641 12.2 6.04548132206251
vertex 21.4141104721641 9.65070415551621 6.0454813220625
endloop
endfacet
facet normal -0.499999999999993 3.60123131490079e-015 -0.866025403784443
outer loop
vertex 21.8 12.2 5.8856406460551
vertex 21.4141104721641 9.65070415551621 6.0454813220625
vertex 21.4141104721641 12.2 6.04548132206251
endloop
endfacet
facet normal -0.258819045102515 3.86459722954542e-015 -0.96592582628907
outer loop
vertex 21.4141104721641 9.65070415551621 6.0454813220625
vertex 21.8 12.2 5.8856406460551
vertex 21.8 9.65070415551621 5.88564064605509
endloop
endfacet
facet normal -0.707106781186557 3.09244743746176e-015 -0.707106781186538
outer loop
vertex 22.1313708498985 12.2 5.63137084989848
vertex 21.8 9.65070415551621 5.88564064605509
vertex 21.8 12.2 5.8856406460551
endloop
endfacet
facet normal -0.499999999999994 3.60123131490079e-015 -0.866025403784442
outer loop
vertex 21.8 9.65070415551621 5.88564064605509
vertex 22.1313708498985 12.2 5.63137084989848
vertex 22.1313708498985 9.65070415551621 5.63137084989847
endloop
endfacet
facet normal -0.707106781186557 3.09244743746176e-015 -0.707106781186538
outer loop
vertex 22.1313708498985 12.2 5.63137084989848
vertex 22.3856406460551 9.65070415551621 5.29999999999999
vertex 22.1313708498985 9.65070415551621 5.63137084989847
endloop
endfacet
facet normal -0.866025403784451 2.37291837767073e-015 -0.499999999999978
outer loop
vertex 22.3856406460551 9.65070415551621 5.29999999999999
vertex 22.1313708498985 12.2 5.63137084989848
vertex 22.3856406460551 12.2 5.3
endloop
endfacet
facet normal -0.866025403784451 2.37291837767074e-015 -0.499999999999979
outer loop
vertex 22.3856406460551 12.2 5.3
vertex 22.5454813220625 9.65070415551621 4.91411047216402
vertex 22.3856406460551 9.65070415551621 5.29999999999999
endloop
endfacet
facet normal -0.965925826289064 1.49167885187466e-015 -0.258819045102538
outer loop
vertex 22.5454813220625 9.65070415551621 4.91411047216402
vertex 22.3856406460551 12.2 5.3
vertex 22.5454813220625 12.2 4.91411047216403
endloop
endfacet
facet normal -0.965925826289064 1.49167885187466e-015 -0.258819045102539
outer loop
vertex 22.5454813220625 12.2 4.91411047216403
vertex 22.6 9.65070415551621 4.49999999999999
vertex 22.5454813220625 9.65070415551621 4.91411047216402
endloop
endfacet
facet normal -1.0 5.08783877438978e-016 3.38622176034585e-016
outer loop
vertex 22.6 9.65070415551621 4.49999999999999
vertex 22.5454813220625 12.2 4.91411047216403
vertex 22.6 12.2 4.5
endloop
endfacet
facet normal 0.86602540378443 -2.37291837767087e-015 0.500000000000015
outer loop
vertex 19.6143593539449 9.65070415551622 3.69999999999999
vertex 19.4545186779375 12.2 4.08588952783597
vertex 19.4545186779375 9.65070415551621 4.08588952783596
endloop
endfacet
facet normal 0.965925826289077 -1.49167885187447e-015 0.258819045102487
outer loop
vertex 19.4545186779375 12.2 4.08588952783597
vertex 19.6143593539449 9.65070415551622 3.69999999999999
vertex 19.6143593539449 12.2 3.7
endloop
endfacet
facet normal 0.965925826289077 -1.49167885187447e-015 0.258819045102487
outer loop
vertex 19.4545186779375 12.2 4.08588952783597
vertex 19.4 9.65070415551621 4.49999999999999
vertex 19.4545186779375 9.65070415551621 4.08588952783596
endloop
endfacet
facet normal 1.0 -5.08783877438979e-016 8.91110989564685e-018
outer loop
vertex 19.4 9.65070415551621 4.49999999999999
vertex 19.4545186779375 12.2 4.08588952783597
vertex 19.4 12.2 4.5
endloop
endfacet
facet normal 1.0 -5.08783877438976e-016 -6.77244352069161e-016
outer loop
vertex 19.4 12.2 4.5
vertex 19.4545186779375 9.65070415551621 4.91411047216402
vertex 19.4 9.65070415551621 4.49999999999999
endloop
endfacet
facet normal 0.965925826289078 5.08783877438853e-016 -0.258819045102487
outer loop
vertex 19.4545186779375 9.65070415551621 4.91411047216402
vertex 19.4 12.2 4.5
vertex 19.4545186779375 12.2 4.91411047216403
endloop
endfacet
facet normal 0.965925826289077 5.08783877438856e-016 -0.258819045102487
outer loop
vertex 19.4545186779375 12.2 4.91411047216403
vertex 19.6143593539449 9.65070415551621 5.29999999999999
vertex 19.4545186779375 9.65070415551621 4.91411047216402
endloop
endfacet
facet normal 0.86602540378443 1.49167885187467e-015 -0.500000000000015
outer loop
vertex 19.6143593539449 9.65070415551621 5.29999999999999
vertex 19.4545186779375 12.2 4.91411047216403
vertex 19.6143593539449 12.2 5.3
endloop
endfacet
facet normal 0.86602540378443 1.49167885187467e-015 -0.500000000000016
outer loop
vertex 19.6143593539449 12.2 5.3
vertex 19.8686291501016 9.65070415551621 5.63137084989846
vertex 19.6143593539449 9.65070415551621 5.29999999999999
endloop
endfacet
facet normal 0.707106781186528 2.37291837767091e-015 -0.707106781186567
outer loop
vertex 19.8686291501016 9.65070415551621 5.63137084989846
vertex 19.6143593539449 12.2 5.3
vertex 19.8686291501016 12.2 5.63137084989848
endloop
endfacet
facet normal 3.74279266828197e-015 -4.54274030489324e-016 1.0
outer loop
vertex 2.00000000000001 -2.8199664825479e-015 9.0
vertex 1.12798659301916e-014 11.0452994616207 9.0
vertex 1.11036180250323e-014 1.15470053837925 9.0
endloop
endfacet
facet normal 3.74279266828197e-015 -4.54274030489324e-016 1.0
outer loop
vertex 1.12798659301916e-014 11.0452994616207 9.0
vertex 2.00000000000001 -2.8199664825479e-015 9.0
vertex 2.00000000000001 12.2 9.0
endloop
endfacet
facet normal 3.74279266828197e-015 -4.54274030489324e-016 1.0
outer loop
vertex 2.00000000000001 12.2 9.0
vertex 2.00000000000001 -2.8199664825479e-015 9.0
vertex 9.6008621971351 3.20086219713516 9.0
endloop
endfacet
facet normal 3.74279266828197e-015 -4.54274030489324e-016 1.0
outer loop
vertex 9.6008621971351 3.20086219713516 9.0
vertex 2.00000000000001 -2.8199664825479e-015 9.0
vertex 10.4499999999999 2.54929584448381 9.0
endloop
endfacet
facet normal 3.74279266828197e-015 -4.54274030489324e-016 1.0
outer loop
vertex 10.4499999999999 2.54929584448381 9.0
vertex 2.00000000000001 -2.8199664825479e-015 9.0
vertex 11.4388419150797 2.13970411221482 9.0
endloop
endfacet
facet normal 3.74279266828197e-015 -4.54274030489324e-016 1.0
outer loop
vertex 11.4388419150797 2.13970411221482 9.0
vertex 2.00000000000001 -2.8199664825479e-015 9.0
vertex 23.0000000000003 -2.8199664825479e-015 8.99999999999989
endloop
endfacet
facet normal 3.74279266828197e-015 -4.54274030489324e-016 1.0
outer loop
vertex 2.00000000000001 12.2 9.0
vertex 9.6008621971351 3.20086219713516 9.0
vertex 8.94929584448382 4.04999999999999 9.0
endloop
endfacet
facet normal 3.74279266828197e-015 -4.54274030489324e-016 1.0
outer loop
vertex 2.00000000000001 12.2 9.0
vertex 8.94929584448382 4.04999999999999 9.0
vertex 8.5397041122148 5.03884191507967 9.0
endloop
endfacet
facet normal 3.74279266828197e-015 -4.54274030489324e-016 1.0
outer loop
vertex 2.00000000000001 12.2 9.0
vertex 8.5397041122148 5.03884191507967 9.0
vertex 8.40000000000004 6.1 9.0
endloop
endfacet
facet normal 3.74279266828197e-015 -4.54274030489324e-016 1.0
outer loop
vertex 11.4388419150797 2.13970411221482 9.0
vertex 23.0000000000003 -2.8199664825479e-015 8.99999999999989
vertex 12.5 2.00000000000001 9.0
endloop
endfacet
facet normal 3.74279266828197e-015 -4.54274030489324e-016 1.0
outer loop
vertex 12.5 2.00000000000001 9.0
vertex 23.0000000000003 -2.8199664825479e-015 8.99999999999989
vertex 13.5611580849203 2.13970411221482 8.99999999999994
endloop
endfacet
facet normal 3.74279266828197e-015 -4.54274030489324e-016 1.0
outer loop
vertex 13.5611580849203 2.13970411221482 8.99999999999994
vertex 23.0000000000003 -2.8199664825479e-015 8.99999999999989
vertex 14.55 2.54929584448381 8.99999999999994
endloop
endfacet
facet normal 3.74279266828197e-015 -4.54274030489324e-016 1.0
outer loop
vertex 14.55 2.54929584448381 8.99999999999994
vertex 23.0000000000003 -2.8199664825479e-015 8.99999999999989
vertex 25.0000000000003 2.54929584448381 8.99999999999994
endloop
endfacet
facet normal 3.74279266828197e-015 -4.54274030489324e-016 1.0
outer loop
vertex 25.0000000000003 2.54929584448381 8.99999999999994
vertex 23.0000000000003 -2.8199664825479e-015 8.99999999999989
vertex 25.0000000000003 1.15470053837925 8.99999999999993
endloop
endfacet
facet normal 3.74279266828197e-015 -4.54274030489324e-016 1.0
outer loop
vertex 2.00000000000001 12.2 9.0
vertex 11.4388419150797 10.0602958877852 9.0
vertex 23.0000000000003 12.2 8.99999999999989
endloop
endfacet
facet normal 3.74279266828197e-015 -4.54274030489324e-016 1.0
outer loop
vertex 11.4388419150797 10.0602958877852 9.0
vertex 2.00000000000001 12.2 9.0
vertex 10.4499999999999 9.65070415551619 9.0
endloop
endfacet
facet normal 3.74279266828197e-015 -4.54274030489324e-016 1.0
outer loop
vertex 10.4499999999999 9.65070415551619 9.0
vertex 2.00000000000001 12.2 9.0
vertex 9.6008621971351 8.99913780286484 9.0
endloop
endfacet
facet normal 3.74279266828197e-015 -4.54274030489324e-016 1.0
outer loop
vertex 9.6008621971351 8.99913780286484 9.0
vertex 2.00000000000001 12.2 9.0
vertex 8.94929584448382 8.15000000000001 9.0
endloop
endfacet
facet normal 3.74279266828197e-015 -4.54274030489324e-016 1.0
outer loop
vertex 8.94929584448382 8.15000000000001 9.0
vertex 2.00000000000001 12.2 9.0
vertex 8.5397041122148 7.16115808492034 9.0
endloop
endfacet
facet normal 3.74279266828197e-015 -4.54274030489324e-016 1.0
outer loop
vertex 8.5397041122148 7.16115808492034 9.0
vertex 2.00000000000001 12.2 9.0
vertex 8.40000000000004 6.1 9.0
endloop
endfacet
facet normal 3.74279266828197e-015 -4.54274030489324e-016 1.0
outer loop
vertex 23.0000000000003 12.2 8.99999999999989
vertex 11.4388419150797 10.0602958877852 9.0
vertex 12.5 10.2 9.0
endloop
endfacet
facet normal 3.74279266828197e-015 -4.54274030489324e-016 1.0
outer loop
vertex 23.0000000000003 12.2 8.99999999999989
vertex 12.5 10.2 9.0
vertex 13.5611580849203 10.0602958877852 8.99999999999996
endloop
endfacet
facet normal 3.74279266828197e-015 -4.54274030489324e-016 1.0
outer loop
vertex 23.0000000000003 12.2 8.99999999999989
vertex 13.5611580849203 10.0602958877852 8.99999999999996
vertex 14.55 9.65070415551619 8.99999999999996
endloop
endfacet
facet normal 3.74279266828197e-015 -4.54274030489324e-016 1.0
outer loop
vertex 23.0000000000003 12.2 8.99999999999989
vertex 14.55 9.65070415551619 8.99999999999996
vertex 25.0000000000003 9.65070415551619 8.99999999999996
endloop
endfacet
facet normal 3.74279266828197e-015 -4.54274030489324e-016 1.0
outer loop
vertex 23.0000000000003 12.2 8.99999999999989
vertex 25.0000000000003 9.65070415551619 8.99999999999996
vertex 25.0000000000003 11.0452994616207 8.99999999999994
endloop
endfacet
facet normal 0.5 -0.866025403784439 7.87818604459402e-014
outer loop
vertex 25.0000000000009 1.15470053837872 3.94795307556706e-014
vertex 23.0000000000003 -2.8199664825479e-015 8.99999999999989
vertex 23.0000000000009 -5.30327090611282e-013 0.0
endloop
endfacet
facet normal 0.5 -0.866025403784439 7.87818604459402e-014
outer loop
vertex 23.0000000000003 -2.8199664825479e-015 8.99999999999989
vertex 25.0000000000009 1.15470053837872 3.94795307556706e-014
vertex 25.0000000000003 1.15470053837925 8.99999999999993
endloop
endfacet
facet normal 0.500000000000001 0.866025403784438 7.72467474544035e-014
outer loop
vertex 23.0000000000003 12.2 8.99999999999989
vertex 25.0000000000009 11.0452994616213 4.65294469620403e-014
vertex 23.0000000000009 12.2000000000005 1.40998324127395e-015
endloop
endfacet
facet normal 0.500000000000001 0.866025403784438 7.72467474544035e-014
outer loop
vertex 25.0000000000009 11.0452994616213 4.65294469620403e-014
vertex 23.0000000000003 12.2 8.99999999999989
vertex 25.0000000000003 11.0452994616207 8.99999999999994
endloop
endfacet
endsolid M8_Hall-O holder
